G04*
G04 #@! TF.GenerationSoftware,Altium Limited,Altium Designer,23.1.1 (15)*
G04*
G04 Layer_Physical_Order=2*
G04 Layer_Color=16711680*
%FSLAX44Y44*%
%MOMM*%
G71*
G04*
G04 #@! TF.SameCoordinates,4FD7E483-A0BE-4EFF-918D-63B1A9DD4886*
G04*
G04*
G04 #@! TF.FilePolarity,Positive*
G04*
G01*
G75*
%ADD17C,0.2540*%
%ADD21R,0.5800X0.6400*%
%ADD24R,1.2000X1.7000*%
%ADD27R,1.4000X1.2500*%
%ADD28R,1.1000X1.7000*%
%ADD29R,1.8500X3.4500*%
%ADD30R,0.6400X0.5800*%
%ADD50C,0.5000*%
%ADD51C,1.0000*%
%ADD53C,1.7000*%
%ADD54C,1.6000*%
%ADD55C,4.2000*%
%ADD56R,4.2000X4.2000*%
%ADD57C,0.6000*%
%ADD58C,0.5000*%
%ADD59C,0.8000*%
%ADD60R,0.5800X0.6200*%
%ADD61R,0.5000X0.5200*%
%ADD62R,2.3000X1.2500*%
%ADD63R,1.6000X1.2500*%
%ADD64R,0.5500X0.6000*%
%ADD65R,0.6200X0.5800*%
%ADD66R,0.8500X0.2500*%
%ADD67R,0.2500X0.8500*%
%ADD68R,2.6000X2.6000*%
%ADD69R,1.3500X0.4000*%
%ADD70R,0.8000X1.0000*%
%ADD71R,0.3000X1.1000*%
%ADD72R,1.1000X0.3000*%
%ADD73R,2.1000X2.1000*%
%ADD74R,1.2500X1.6000*%
%ADD75R,1.7000X1.6500*%
%ADD76R,2.0000X2.1000*%
%ADD77R,0.8500X0.9000*%
%ADD78R,0.6000X1.4500*%
%ADD79R,1.4000X5.2000*%
%ADD80R,1.7000X1.2000*%
%ADD81R,1.6200X2.6500*%
G04:AMPARAMS|DCode=82|XSize=1.62mm|YSize=2.65mm|CornerRadius=0mm|HoleSize=0mm|Usage=FLASHONLY|Rotation=135.000|XOffset=0mm|YOffset=0mm|HoleType=Round|Shape=Rectangle|*
%AMROTATEDRECTD82*
4,1,4,1.5097,0.3642,-0.3642,-1.5097,-1.5097,-0.3642,0.3642,1.5097,1.5097,0.3642,0.0*
%
%ADD82ROTATEDRECTD82*%

%ADD83R,0.8750X0.5000*%
%ADD84R,0.5000X8.3000*%
%ADD85R,0.5000X4.5000*%
%ADD86R,0.9750X0.5000*%
%ADD87R,0.5000X6.1000*%
%ADD88R,0.9250X0.5000*%
%ADD89R,0.9000X0.5000*%
%ADD90R,1.6750X0.5000*%
%ADD91R,3.1448X2.1783*%
%ADD92R,1.6200X1.3000*%
G36*
X500000Y130000D02*
X173199D01*
X172957Y130056D01*
X170347Y131147D01*
Y134177D01*
X186992Y150822D01*
X188114Y152285D01*
X188820Y153988D01*
X189060Y155815D01*
Y172050D01*
X205200D01*
Y172793D01*
X206730Y172995D01*
X209041Y173952D01*
X210654Y175190D01*
X216409D01*
X218414Y172190D01*
X218076Y171375D01*
X217500Y168477D01*
Y165523D01*
X218076Y162625D01*
X219207Y159895D01*
X220849Y157438D01*
X222938Y155349D01*
X225395Y153707D01*
X228125Y152577D01*
X231022Y152000D01*
X233977D01*
X236875Y152577D01*
X239605Y153707D01*
X242062Y155349D01*
X244151Y157438D01*
X245793Y159895D01*
X246923Y162625D01*
X247341Y164724D01*
X249500Y166883D01*
X252500Y165641D01*
Y165523D01*
X253076Y162625D01*
X254207Y159895D01*
X255849Y157438D01*
X257938Y155349D01*
X260395Y153707D01*
X263125Y152577D01*
X266023Y152000D01*
X268977D01*
X271875Y152577D01*
X274605Y153707D01*
X277062Y155349D01*
X279151Y157438D01*
X280793Y159895D01*
X281924Y162625D01*
X282500Y165523D01*
Y168477D01*
X282041Y170786D01*
X290474Y179219D01*
X296574D01*
X298543Y179478D01*
X300377Y180238D01*
X301952Y181446D01*
X318465Y197960D01*
X323790D01*
Y220040D01*
X323355D01*
Y233600D01*
X328965Y239210D01*
X336790D01*
Y269256D01*
X336855Y269750D01*
Y286754D01*
X350246Y300145D01*
X376210D01*
Y298960D01*
X404290D01*
Y316540D01*
X376210D01*
Y315355D01*
X347096D01*
X346081Y315221D01*
X344619Y318003D01*
X373117Y346500D01*
X408750D01*
Y373000D01*
X371750D01*
Y371854D01*
X369250D01*
X366117Y371441D01*
X363500Y370357D01*
X361743Y370999D01*
X360420Y371882D01*
X359924Y374375D01*
X358793Y377105D01*
X357151Y379562D01*
X355062Y381651D01*
X352605Y383293D01*
X349875Y384423D01*
X346977Y385000D01*
X344023D01*
X342583Y384714D01*
X332648Y394648D01*
X330921Y395974D01*
X328909Y396807D01*
X326750Y397091D01*
X326750Y397091D01*
X294750D01*
Y403500D01*
X263750D01*
Y398841D01*
X254750D01*
X254750Y398841D01*
X252591Y398557D01*
X250579Y397724D01*
X248852Y396398D01*
X248852Y396398D01*
X248113Y395660D01*
X245341Y396808D01*
Y438500D01*
X245341Y438500D01*
X245057Y440659D01*
X244224Y442671D01*
X242898Y444398D01*
X225321Y461975D01*
Y463520D01*
X225250Y464062D01*
Y471954D01*
X237953Y484657D01*
X242073Y484534D01*
X242110Y484498D01*
X244390Y483181D01*
X246933Y482500D01*
X249566D01*
X252110Y483181D01*
X254390Y484498D01*
X256252Y486360D01*
X257060Y487759D01*
X297228Y527927D01*
X300000Y526779D01*
Y508750D01*
X332500D01*
Y539228D01*
X333041Y539452D01*
X335025Y540975D01*
X338241Y544190D01*
X339640Y544998D01*
X341502Y546860D01*
X342818Y549140D01*
X343500Y551684D01*
Y554316D01*
X342818Y556860D01*
X341502Y559140D01*
X339640Y561002D01*
X337360Y562318D01*
X334817Y563000D01*
X332183D01*
X329640Y562318D01*
X327360Y561002D01*
X325498Y559140D01*
X324690Y557741D01*
X324281Y557332D01*
X323000D01*
X322377Y557250D01*
X314466D01*
X313318Y560022D01*
X327955Y574659D01*
X333033D01*
X333849Y573438D01*
X335938Y571349D01*
X338395Y569707D01*
X341125Y568576D01*
X344023Y568000D01*
X346977D01*
X349875Y568576D01*
X352605Y569707D01*
X355062Y571349D01*
X357151Y573438D01*
X358793Y575895D01*
X359924Y578625D01*
X360500Y581523D01*
Y584477D01*
X359924Y587375D01*
X358793Y590105D01*
X357151Y592562D01*
X355062Y594651D01*
X352605Y596293D01*
X349875Y597424D01*
X346977Y598000D01*
X344023D01*
X341125Y597424D01*
X338395Y596293D01*
X335938Y594651D01*
X333849Y592562D01*
X333033Y591341D01*
X324500D01*
X322341Y591057D01*
X320329Y590224D01*
X318602Y588898D01*
X318602Y588898D01*
X317695Y587992D01*
X314312Y588851D01*
X313793Y590105D01*
X312151Y592562D01*
X310062Y594651D01*
X307605Y596293D01*
X304875Y597424D01*
X301977Y598000D01*
X299023D01*
X296125Y597424D01*
X293395Y596293D01*
X290938Y594651D01*
X288849Y592562D01*
X287207Y590105D01*
X286076Y587375D01*
X285500Y584477D01*
Y581523D01*
X286076Y578625D01*
X287207Y575895D01*
X288849Y573438D01*
X290938Y571349D01*
X293395Y569707D01*
X294649Y569188D01*
X295508Y565805D01*
X213453Y483750D01*
X199250D01*
Y453000D01*
X199250Y452750D01*
X198646Y450000D01*
X198023D01*
X195125Y449424D01*
X192395Y448293D01*
X189938Y446651D01*
X187849Y444562D01*
X186207Y442105D01*
X185077Y439375D01*
X184500Y436477D01*
Y433523D01*
X185077Y430625D01*
X186207Y427895D01*
X187849Y425438D01*
X189938Y423349D01*
X192395Y421707D01*
X195125Y420577D01*
X198023Y420000D01*
X200977D01*
X203875Y420577D01*
X206605Y421707D01*
X209062Y423349D01*
X211151Y425438D01*
X212793Y427895D01*
X213923Y430625D01*
X214500Y433523D01*
Y436477D01*
X213923Y439375D01*
X212793Y442105D01*
X211151Y444562D01*
X209062Y446651D01*
X206605Y448293D01*
X203875Y449424D01*
X202234Y449750D01*
X202530Y452750D01*
X210983D01*
X211082Y452622D01*
X228659Y435045D01*
Y386955D01*
X216695Y374992D01*
X213312Y375851D01*
X212793Y377105D01*
X211151Y379562D01*
X209062Y381651D01*
X206605Y383293D01*
X203875Y384424D01*
X200977Y385000D01*
X198023D01*
X195125Y384424D01*
X192395Y383293D01*
X189938Y381651D01*
X187849Y379562D01*
X186207Y377105D01*
X185077Y374375D01*
X184500Y371477D01*
Y368523D01*
X185077Y365625D01*
X186207Y362895D01*
X187849Y360438D01*
X189938Y358349D01*
X192395Y356707D01*
X193649Y356188D01*
X194508Y352805D01*
X175295Y333591D01*
X158000D01*
X155841Y333307D01*
X153829Y332474D01*
X152102Y331148D01*
X152102Y331148D01*
X111045Y290091D01*
X107250D01*
Y290750D01*
X79750D01*
Y274250D01*
X79750Y272750D01*
X79750Y272750D01*
X79750Y271250D01*
X79750Y271250D01*
X79750Y269750D01*
Y254750D01*
X79750Y253250D01*
X79750D01*
Y251750D01*
X79323Y249650D01*
X76436Y248610D01*
X72091Y252955D01*
Y296500D01*
X75500D01*
Y327500D01*
X72091D01*
Y340795D01*
X151583Y420286D01*
X153023Y420000D01*
X155977D01*
X158875Y420577D01*
X161605Y421707D01*
X164062Y423349D01*
X166151Y425438D01*
X167793Y427895D01*
X168923Y430625D01*
X169500Y433523D01*
Y436477D01*
X168923Y439375D01*
X167793Y442105D01*
X166151Y444562D01*
X164062Y446651D01*
X161605Y448293D01*
X158875Y449424D01*
X155977Y450000D01*
X153023D01*
X150125Y449424D01*
X147395Y448293D01*
X144938Y446651D01*
X142849Y444562D01*
X141207Y442105D01*
X140077Y439375D01*
X139500Y436477D01*
Y433523D01*
X139786Y432083D01*
X79906Y372202D01*
X77697Y374112D01*
X77957Y374741D01*
X78470Y375980D01*
X74270D01*
Y371780D01*
X75508Y372293D01*
X76138Y372553D01*
X78048Y370344D01*
X57852Y350148D01*
X56526Y348421D01*
X55693Y346409D01*
X55409Y344250D01*
X55409Y344250D01*
Y327500D01*
X52471D01*
X52253Y327500D01*
X50571Y327543D01*
X49328Y329888D01*
X49290Y330549D01*
X49290Y332474D01*
Y339730D01*
X42020D01*
Y329960D01*
X46319D01*
X46537Y329960D01*
X48219Y329917D01*
X49462Y327572D01*
X49500Y326911D01*
X49500Y324986D01*
Y296500D01*
X55409D01*
Y252546D01*
X53750Y251092D01*
X53750Y251092D01*
X49750D01*
Y258250D01*
Y266250D01*
Y272750D01*
Y290750D01*
X23797D01*
X21591Y292955D01*
Y324034D01*
X24591Y325485D01*
X25679Y325457D01*
X26922Y323112D01*
X26960Y322451D01*
X26960Y320526D01*
Y313270D01*
X34230D01*
Y323040D01*
X29931D01*
X29713Y323040D01*
X28031Y323083D01*
X26788Y325428D01*
X26750Y326089D01*
X26750Y328014D01*
Y356500D01*
X26750D01*
X26105Y358058D01*
X65981Y397934D01*
X69727Y397438D01*
X70362Y396803D01*
X72230Y396030D01*
Y401500D01*
X73500D01*
Y402770D01*
X78970D01*
X78197Y404638D01*
X76990Y405845D01*
X77262Y407691D01*
X77792Y408962D01*
X78610Y409182D01*
X80890Y410498D01*
X82752Y412360D01*
X84068Y414640D01*
X84750Y417183D01*
Y419817D01*
X84068Y422360D01*
X82752Y424640D01*
X80890Y426502D01*
X78610Y427818D01*
X76412Y428408D01*
X75887Y428838D01*
X74489Y431480D01*
X63530D01*
X64303Y429612D01*
X65862Y428053D01*
X65902Y428037D01*
X66732Y424703D01*
X66654Y424478D01*
X65431Y422360D01*
X64926Y420472D01*
X7352Y362898D01*
X6026Y361171D01*
X5193Y359159D01*
X5088Y358364D01*
X2325Y357560D01*
X0Y359444D01*
Y664500D01*
X147298D01*
X147895Y661500D01*
X147395Y661293D01*
X144938Y659651D01*
X142849Y657562D01*
X141207Y655105D01*
X140077Y652375D01*
X139500Y649477D01*
Y646523D01*
X140077Y643625D01*
X141207Y640895D01*
X142849Y638438D01*
X144938Y636349D01*
X147395Y634707D01*
X150125Y633577D01*
X153023Y633000D01*
X155977D01*
X158876Y633577D01*
X161605Y634707D01*
X164062Y636349D01*
X166151Y638438D01*
X167793Y640895D01*
X168924Y643625D01*
X169500Y646523D01*
Y649477D01*
X168924Y652375D01*
X167793Y655105D01*
X166151Y657562D01*
X164062Y659651D01*
X161605Y661293D01*
X161105Y661500D01*
X161702Y664500D01*
X192298D01*
X192895Y661500D01*
X192395Y661293D01*
X189938Y659651D01*
X187849Y657562D01*
X186208Y655105D01*
X185077Y652375D01*
X184500Y649477D01*
Y646523D01*
X185077Y643625D01*
X186208Y640895D01*
X187849Y638438D01*
X189938Y636349D01*
X192395Y634707D01*
X195125Y633577D01*
X198023Y633000D01*
X200978D01*
X203876Y633577D01*
X206605Y634707D01*
X209062Y636349D01*
X211152Y638438D01*
X212793Y640895D01*
X213924Y643625D01*
X214500Y646523D01*
Y649477D01*
X213924Y652375D01*
X212793Y655105D01*
X211152Y657562D01*
X209062Y659651D01*
X206605Y661293D01*
X206105Y661500D01*
X206702Y664500D01*
X293298D01*
X293895Y661500D01*
X293395Y661293D01*
X290938Y659651D01*
X288849Y657562D01*
X287207Y655105D01*
X286076Y652375D01*
X285500Y649477D01*
Y646523D01*
X286076Y643625D01*
X287207Y640895D01*
X288849Y638438D01*
X290938Y636349D01*
X293395Y634707D01*
X296125Y633576D01*
X299023Y633000D01*
X301977D01*
X304875Y633576D01*
X307605Y634707D01*
X310062Y636349D01*
X312151Y638438D01*
X313793Y640895D01*
X314923Y643625D01*
X315500Y646523D01*
Y649477D01*
X314923Y652375D01*
X313793Y655105D01*
X312151Y657562D01*
X310062Y659651D01*
X307605Y661293D01*
X307105Y661500D01*
X307702Y664500D01*
X338298D01*
X338895Y661500D01*
X338395Y661293D01*
X335938Y659651D01*
X333849Y657562D01*
X332207Y655105D01*
X331077Y652375D01*
X330500Y649477D01*
Y646523D01*
X331077Y643625D01*
X332207Y640895D01*
X333849Y638438D01*
X335938Y636349D01*
X338395Y634707D01*
X341125Y633576D01*
X344023Y633000D01*
X346977D01*
X349875Y633576D01*
X352605Y634707D01*
X355062Y636349D01*
X357151Y638438D01*
X358793Y640895D01*
X359924Y643625D01*
X360500Y646523D01*
Y649477D01*
X359924Y652375D01*
X358793Y655105D01*
X357151Y657562D01*
X355062Y659651D01*
X352605Y661293D01*
X352105Y661500D01*
X352702Y664500D01*
X500000D01*
Y130000D01*
D02*
G37*
G36*
X263750Y377500D02*
X284124D01*
X286128Y374500D01*
X286076Y374375D01*
X285500Y371477D01*
Y368523D01*
X286076Y365625D01*
X287207Y362895D01*
X288849Y360438D01*
X290938Y358349D01*
X293395Y356707D01*
X296125Y355577D01*
X299023Y355000D01*
X301977D01*
X304875Y355577D01*
X307605Y356707D01*
X310062Y358349D01*
X312151Y360438D01*
X313793Y362895D01*
X314923Y365625D01*
X315500Y368523D01*
Y371477D01*
X314923Y374375D01*
X313793Y377105D01*
X313590Y377409D01*
X315194Y380409D01*
X323295D01*
X330786Y372917D01*
X330500Y371477D01*
Y368523D01*
X331077Y365625D01*
X332207Y362895D01*
X333849Y360438D01*
X335938Y358349D01*
X338395Y356707D01*
X341125Y355577D01*
X343286Y355146D01*
X344236Y353225D01*
X344383Y352000D01*
X293194Y300811D01*
X279250D01*
X278787Y300750D01*
X263250D01*
Y234750D01*
X274133D01*
X276896Y231987D01*
Y229002D01*
X273897Y228406D01*
X273697Y228888D01*
X272138Y230447D01*
X270270Y231220D01*
Y225750D01*
X269000D01*
Y224480D01*
X263530D01*
X264303Y222612D01*
X265862Y221053D01*
X267898Y220210D01*
X268011Y217210D01*
X267867Y217191D01*
X264948Y215982D01*
X262441Y214058D01*
X233510Y185128D01*
X230510Y186370D01*
Y204590D01*
X244054Y218134D01*
X244082Y218170D01*
X244118Y218198D01*
X244642Y218900D01*
X245176Y219596D01*
X245194Y219638D01*
X245221Y219675D01*
X245546Y220489D01*
X245881Y221299D01*
X245887Y221344D01*
X245904Y221387D01*
X247843Y229010D01*
X247946Y229881D01*
X248060Y230750D01*
Y257250D01*
X247820Y259077D01*
X247115Y260780D01*
X245993Y262243D01*
X244530Y263365D01*
X242827Y264070D01*
X241000Y264310D01*
X233144D01*
X231550Y266650D01*
Y286850D01*
X230850D01*
Y290250D01*
Y310050D01*
X223239D01*
X221759Y313050D01*
X221974Y313329D01*
X222807Y315341D01*
X223091Y317500D01*
X222807Y319659D01*
X221974Y321671D01*
X220648Y323398D01*
X220148Y323898D01*
X218421Y325224D01*
X216409Y326057D01*
X214250Y326341D01*
X214250Y326341D01*
X206308D01*
X205159Y329113D01*
X258205Y382159D01*
X263750D01*
Y377500D01*
D02*
G37*
G36*
X241000Y230750D02*
X239062Y223127D01*
X230250Y231938D01*
Y232000D01*
X239750D01*
X241000Y230750D01*
D02*
G37*
G36*
X145000Y231810D02*
Y231250D01*
X150591D01*
X150954Y228250D01*
X143852Y221148D01*
X142526Y219421D01*
X141693Y217409D01*
X141409Y215250D01*
X139550Y214700D01*
Y194900D01*
X144010D01*
Y189760D01*
X144389D01*
X146760Y188240D01*
Y176760D01*
X151900D01*
Y172300D01*
X158740D01*
Y165450D01*
X146477Y153187D01*
X142302Y149339D01*
X142209Y149228D01*
X142094Y149140D01*
X141694Y148618D01*
X141420Y148311D01*
X140147Y148479D01*
X118336D01*
X116509Y148238D01*
X114806Y147533D01*
X113343Y146411D01*
X112221Y144949D01*
X111516Y143246D01*
X111276Y141419D01*
Y130000D01*
X0D01*
Y155098D01*
X3000Y156578D01*
X3067Y156526D01*
X5079Y155693D01*
X7238Y155409D01*
X10332D01*
X11360Y153869D01*
X13519Y151710D01*
X16058Y150014D01*
X18879Y148846D01*
X21873Y148250D01*
X24927D01*
X27921Y148846D01*
X30742Y150014D01*
X33281Y151710D01*
X35440Y153869D01*
X36970Y156160D01*
X38199Y156493D01*
X40426Y156511D01*
X42021Y154916D01*
X44539Y153462D01*
X47347Y152710D01*
X47530D01*
Y163750D01*
Y174790D01*
X47347D01*
X44539Y174038D01*
X42021Y172584D01*
X40426Y170989D01*
X38199Y171007D01*
X36970Y171340D01*
X35440Y173631D01*
X34201Y174870D01*
X35602Y177711D01*
X36000Y177659D01*
X38159Y177943D01*
X40171Y178776D01*
X41898Y180102D01*
X43224Y181829D01*
X44057Y183841D01*
X44341Y186000D01*
X44057Y188159D01*
X43224Y190171D01*
X41898Y191898D01*
X40148Y193648D01*
X38421Y194974D01*
X36409Y195807D01*
X34250Y196091D01*
X34250Y196091D01*
X25955D01*
X16881Y205165D01*
Y219261D01*
X17386Y219585D01*
X19730Y220615D01*
X20663Y220172D01*
X22250Y218957D01*
Y214250D01*
X49750D01*
Y215072D01*
X52522Y216220D01*
X65859Y202883D01*
Y176818D01*
X64319Y175790D01*
X62160Y173631D01*
X60630Y171340D01*
X59401Y171007D01*
X57174Y170989D01*
X55579Y172584D01*
X53061Y174038D01*
X50253Y174790D01*
X50070D01*
Y163750D01*
Y152710D01*
X50253D01*
X53061Y153462D01*
X55579Y154916D01*
X57174Y156511D01*
X59401Y156493D01*
X60630Y156160D01*
X62160Y153869D01*
X64319Y151710D01*
X66858Y150014D01*
X69679Y148846D01*
X72673Y148250D01*
X75727D01*
X78721Y148846D01*
X81542Y150014D01*
X84081Y151710D01*
X84868Y152498D01*
X86900Y153533D01*
X88932Y152498D01*
X89719Y151710D01*
X92258Y150014D01*
X95079Y148846D01*
X98073Y148250D01*
X101127D01*
X104121Y148846D01*
X106942Y150014D01*
X109481Y151710D01*
X111640Y153869D01*
X113336Y156408D01*
X114504Y159229D01*
X115100Y162223D01*
Y165277D01*
X114504Y168271D01*
X113336Y171092D01*
X111640Y173631D01*
X109481Y175790D01*
X107941Y176818D01*
Y196900D01*
X107941Y196900D01*
X107657Y199059D01*
X106824Y201071D01*
X105498Y202798D01*
X105498Y202798D01*
X96818Y211479D01*
X97966Y214250D01*
X107250D01*
Y220750D01*
X107250D01*
Y221409D01*
X127500D01*
X127500Y221409D01*
X129659Y221693D01*
X131671Y222526D01*
X133398Y223852D01*
X142000Y232453D01*
X145000Y231810D01*
D02*
G37*
G36*
X216500Y208500D02*
X207250Y208750D01*
X207750Y211250D01*
X208868Y215843D01*
X209157D01*
X216500Y208500D01*
D02*
G37*
G36*
X182000Y155815D02*
X181562Y155377D01*
X179085Y157651D01*
X182000D01*
Y155815D01*
D02*
G37*
G36*
X155021Y145266D02*
X156072Y143789D01*
X151831D01*
X147087Y144147D01*
X151368Y148093D01*
X155021Y145266D01*
D02*
G37*
G36*
X163287Y131147D02*
X162389Y130250D01*
X147984D01*
X147087Y131147D01*
X151231Y131676D01*
X155250Y131500D01*
X159322Y131676D01*
X163287Y131147D01*
D02*
G37*
%LPC*%
G36*
X257770Y652970D02*
Y648770D01*
X261970D01*
X261197Y650638D01*
X259638Y652197D01*
X257770Y652970D01*
D02*
G37*
G36*
X255230D02*
X253362Y652197D01*
X251803Y650638D01*
X251030Y648770D01*
X255230D01*
Y652970D01*
D02*
G37*
G36*
X261970Y646230D02*
X257770D01*
Y642030D01*
X259638Y642803D01*
X261197Y644362D01*
X261970Y646230D01*
D02*
G37*
G36*
X255230D02*
X251030D01*
X251803Y644362D01*
X253362Y642803D01*
X255230Y642030D01*
Y646230D01*
D02*
G37*
G36*
X475520Y642470D02*
Y638270D01*
X479720D01*
X478947Y640138D01*
X477388Y641697D01*
X475520Y642470D01*
D02*
G37*
G36*
X472980D02*
X471112Y641697D01*
X469553Y640138D01*
X468780Y638270D01*
X472980D01*
Y642470D01*
D02*
G37*
G36*
X479720Y635730D02*
X475520D01*
Y631530D01*
X477388Y632303D01*
X478947Y633862D01*
X479720Y635730D01*
D02*
G37*
G36*
X472980D02*
X468780D01*
X469553Y633862D01*
X471112Y632303D01*
X472980Y631530D01*
Y635730D01*
D02*
G37*
G36*
X17230Y578230D02*
X9710D01*
Y568960D01*
X17230D01*
Y578230D01*
D02*
G37*
G36*
X283676Y570831D02*
Y566631D01*
X287877D01*
X287103Y568499D01*
X285545Y570057D01*
X283676Y570831D01*
D02*
G37*
G36*
X281136D02*
X279268Y570057D01*
X277710Y568499D01*
X276936Y566631D01*
X281136D01*
Y570831D01*
D02*
G37*
G36*
X287877Y564091D02*
X283676D01*
Y559890D01*
X285545Y560664D01*
X287103Y562223D01*
X287877Y564091D01*
D02*
G37*
G36*
X281136D02*
X276936D01*
X277710Y562223D01*
X279268Y560664D01*
X281136Y559890D01*
Y564091D01*
D02*
G37*
G36*
X360270Y544470D02*
Y540270D01*
X364470D01*
X363697Y542138D01*
X362138Y543697D01*
X360270Y544470D01*
D02*
G37*
G36*
X357730D02*
X355862Y543697D01*
X354303Y542138D01*
X353530Y540270D01*
X357730D01*
Y544470D01*
D02*
G37*
G36*
X364470Y537730D02*
X360270D01*
Y533530D01*
X362138Y534303D01*
X363697Y535862D01*
X364470Y537730D01*
D02*
G37*
G36*
X357730D02*
X353530D01*
X354303Y535862D01*
X355862Y534303D01*
X357730Y533530D01*
Y537730D01*
D02*
G37*
G36*
X14980Y537790D02*
X5710D01*
Y530270D01*
X14980D01*
Y537790D01*
D02*
G37*
G36*
X39067Y650500D02*
X36433D01*
X33890Y649818D01*
X31610Y648502D01*
X29748Y646640D01*
X28431Y644360D01*
X27750Y641816D01*
Y639184D01*
X28418Y636691D01*
Y622500D01*
X25000D01*
Y622000D01*
X5250D01*
Y592000D01*
X7522D01*
X9710Y590040D01*
Y580770D01*
X18500D01*
Y579500D01*
X19770D01*
Y568960D01*
X24750D01*
Y560250D01*
X28168D01*
Y558481D01*
X28168Y558480D01*
Y549627D01*
X27750Y548066D01*
Y545434D01*
X28431Y542890D01*
X28750Y542250D01*
X28274Y539447D01*
X26790Y537790D01*
X25750Y537790D01*
X17520D01*
Y529000D01*
X16250D01*
Y527730D01*
X5710D01*
Y520210D01*
X7445D01*
X8750Y517750D01*
X8750Y517210D01*
Y494750D01*
X11659D01*
Y482302D01*
X10682Y480610D01*
X10000Y478066D01*
Y475434D01*
X10682Y472890D01*
X11998Y470610D01*
X13860Y468748D01*
X16140Y467431D01*
X18684Y466750D01*
X21316D01*
X23860Y467431D01*
X26140Y468748D01*
X28002Y470610D01*
X29318Y472890D01*
X30000Y475434D01*
Y477250D01*
X34750D01*
Y477250D01*
X44530D01*
X45928Y475852D01*
X45928Y475852D01*
X47656Y474526D01*
X49667Y473693D01*
X51826Y473409D01*
X51826Y473409D01*
X58750D01*
Y452500D01*
X63210D01*
Y450020D01*
X72750D01*
X82290D01*
Y452500D01*
X86750D01*
Y462183D01*
X88649Y462433D01*
X90660Y463266D01*
X92388Y464592D01*
X96561Y468765D01*
X100244Y468205D01*
X107474Y460975D01*
X109459Y459452D01*
X111770Y458494D01*
X114250Y458168D01*
X148000D01*
X150480Y458494D01*
X152791Y459452D01*
X154775Y460975D01*
X174148Y480347D01*
X176710Y478666D01*
X176710Y476548D01*
Y469520D01*
X183980D01*
Y479290D01*
X179638D01*
X177334Y479290D01*
X175653Y481852D01*
X181991Y488190D01*
X183390Y488998D01*
X185252Y490860D01*
X186569Y493140D01*
X187250Y495684D01*
Y498316D01*
X187158Y498659D01*
X189449Y501659D01*
X200000D01*
X200000Y501659D01*
X202159Y501943D01*
X204171Y502776D01*
X205898Y504102D01*
X215898Y514102D01*
X215898Y514102D01*
X217224Y515829D01*
X218057Y517841D01*
X218341Y520000D01*
Y545000D01*
X218057Y547159D01*
X217224Y549171D01*
X215898Y550898D01*
X215898Y550898D01*
X201710Y565087D01*
X202697Y568342D01*
X203876Y568576D01*
X206605Y569707D01*
X209062Y571349D01*
X211152Y573438D01*
X212793Y575895D01*
X213924Y578625D01*
X214500Y581523D01*
Y584477D01*
X213924Y587375D01*
X212793Y590105D01*
X211152Y592562D01*
X209062Y594651D01*
X206605Y596293D01*
X203876Y597424D01*
X200978Y598000D01*
X198023D01*
X195125Y597424D01*
X192395Y596293D01*
X189938Y594651D01*
X187849Y592562D01*
X186208Y590105D01*
X185077Y587375D01*
X184500Y584477D01*
Y581523D01*
X185077Y578625D01*
X186022Y576341D01*
X185442Y574867D01*
X184305Y573341D01*
X169695D01*
X168558Y574867D01*
X167978Y576341D01*
X168924Y578625D01*
X169500Y581523D01*
Y584477D01*
X168924Y587375D01*
X167793Y590105D01*
X166151Y592562D01*
X164062Y594651D01*
X161605Y596293D01*
X158875Y597424D01*
X155977Y598000D01*
X153023D01*
X150125Y597424D01*
X147395Y596293D01*
X144938Y594651D01*
X142849Y592562D01*
X141207Y590105D01*
X140077Y587375D01*
X139500Y584477D01*
Y581523D01*
X140077Y578625D01*
X141022Y576341D01*
X140442Y574867D01*
X139305Y573341D01*
X96290D01*
Y578230D01*
X87500D01*
Y580770D01*
X96290D01*
Y581110D01*
X99290Y583479D01*
X99750Y583418D01*
X103750D01*
Y577750D01*
X134750D01*
Y608250D01*
X103750D01*
Y608250D01*
X100928Y608679D01*
X100750Y608798D01*
Y622000D01*
X78000D01*
Y622500D01*
X52000D01*
Y622500D01*
X51000D01*
Y622500D01*
X47582D01*
Y638556D01*
X47750Y639184D01*
Y641816D01*
X47069Y644360D01*
X45752Y646640D01*
X43890Y648502D01*
X41610Y649818D01*
X39067Y650500D01*
D02*
G37*
G36*
X451590Y501540D02*
X447320D01*
Y493020D01*
X451590D01*
Y501540D01*
D02*
G37*
G36*
X328040Y503790D02*
X317520D01*
Y485270D01*
X328040D01*
Y503790D01*
D02*
G37*
G36*
X314980D02*
X304460D01*
Y485270D01*
X314980D01*
Y503790D01*
D02*
G37*
G36*
X186520Y479290D02*
Y469520D01*
X193790D01*
Y479290D01*
X186520D01*
D02*
G37*
G36*
X328040Y482730D02*
X317520D01*
Y464210D01*
X328040D01*
Y482730D01*
D02*
G37*
G36*
X314980D02*
X304460D01*
Y464210D01*
X314980D01*
Y482730D01*
D02*
G37*
G36*
X193790Y466980D02*
X186520D01*
Y457210D01*
X193790D01*
Y466980D01*
D02*
G37*
G36*
X183980D02*
X176710D01*
Y457210D01*
X183980D01*
Y466980D01*
D02*
G37*
G36*
X271270Y444970D02*
Y440770D01*
X275470D01*
X274697Y442638D01*
X273138Y444197D01*
X271270Y444970D01*
D02*
G37*
G36*
X268730D02*
X266862Y444197D01*
X265303Y442638D01*
X264530Y440770D01*
X268730D01*
Y444970D01*
D02*
G37*
G36*
X275470Y438230D02*
X271270D01*
Y434030D01*
X273138Y434803D01*
X274697Y436362D01*
X275470Y438230D01*
D02*
G37*
G36*
X268730D02*
X264530D01*
X265303Y436362D01*
X266862Y434803D01*
X268730Y434030D01*
Y438230D01*
D02*
G37*
G36*
X82290Y447480D02*
X72750D01*
X63210D01*
Y439960D01*
X64455D01*
X64848Y439259D01*
X65375Y436960D01*
X64303Y435888D01*
X63530Y434020D01*
X74470D01*
X73697Y435888D01*
X72625Y436960D01*
X73152Y439259D01*
X73545Y439960D01*
X82290D01*
Y447480D01*
D02*
G37*
G36*
X346977Y450000D02*
X344023D01*
X341125Y449423D01*
X338395Y448293D01*
X335938Y446651D01*
X333849Y444562D01*
X332207Y442105D01*
X331077Y439375D01*
X330500Y436477D01*
Y433523D01*
X331077Y430625D01*
X332207Y427895D01*
X333849Y425438D01*
X335938Y423349D01*
X338395Y421707D01*
X341125Y420577D01*
X344023Y420000D01*
X346977D01*
X349875Y420577D01*
X352605Y421707D01*
X355062Y423349D01*
X357151Y425438D01*
X358793Y427895D01*
X359924Y430625D01*
X360500Y433523D01*
Y436477D01*
X359924Y439375D01*
X358793Y442105D01*
X357151Y444562D01*
X355062Y446651D01*
X352605Y448293D01*
X349875Y449423D01*
X346977Y450000D01*
D02*
G37*
G36*
X301977D02*
X299023D01*
X296125Y449423D01*
X293395Y448293D01*
X290938Y446651D01*
X288849Y444562D01*
X287207Y442105D01*
X286076Y439375D01*
X285500Y436477D01*
Y433523D01*
X286076Y430625D01*
X286733Y429040D01*
X285142Y426040D01*
X280520D01*
Y418770D01*
X290290D01*
Y420174D01*
X293290Y421777D01*
X293395Y421707D01*
X296125Y420577D01*
X299023Y420000D01*
X301977D01*
X304875Y420577D01*
X307605Y421707D01*
X310062Y423349D01*
X312151Y425438D01*
X313793Y427895D01*
X314923Y430625D01*
X315500Y433523D01*
Y436477D01*
X314923Y439375D01*
X313793Y442105D01*
X312151Y444562D01*
X310062Y446651D01*
X307605Y448293D01*
X304875Y449423D01*
X301977Y450000D01*
D02*
G37*
G36*
X277980Y426040D02*
X268210D01*
Y418770D01*
X277980D01*
Y426040D01*
D02*
G37*
G36*
X290290Y416230D02*
X280520D01*
Y408960D01*
X290290D01*
Y416230D01*
D02*
G37*
G36*
X277980D02*
X268210D01*
Y408960D01*
X277980D01*
Y416230D01*
D02*
G37*
G36*
X78970Y400230D02*
X74770D01*
Y396030D01*
X76638Y396803D01*
X78197Y398362D01*
X78970Y400230D01*
D02*
G37*
G36*
X74270Y382720D02*
Y378520D01*
X78470D01*
X77697Y380388D01*
X76138Y381947D01*
X74270Y382720D01*
D02*
G37*
G36*
X71730D02*
X69862Y381947D01*
X68303Y380388D01*
X67530Y378520D01*
X71730D01*
Y382720D01*
D02*
G37*
G36*
Y375980D02*
X67530D01*
X68303Y374112D01*
X69862Y372553D01*
X71730Y371780D01*
Y375980D01*
D02*
G37*
G36*
X155977Y385000D02*
X153023D01*
X150125Y384424D01*
X147395Y383293D01*
X144938Y381651D01*
X142849Y379562D01*
X141207Y377105D01*
X140077Y374375D01*
X139500Y371477D01*
Y368523D01*
X140077Y365625D01*
X141207Y362895D01*
X142849Y360438D01*
X144938Y358349D01*
X147395Y356707D01*
X150125Y355577D01*
X153023Y355000D01*
X155977D01*
X158875Y355577D01*
X161605Y356707D01*
X164062Y358349D01*
X166151Y360438D01*
X167793Y362895D01*
X168923Y365625D01*
X169500Y368523D01*
Y371477D01*
X168923Y374375D01*
X167793Y377105D01*
X166151Y379562D01*
X164062Y381651D01*
X161605Y383293D01*
X158875Y384424D01*
X155977Y385000D01*
D02*
G37*
G36*
X430650Y506000D02*
X397950D01*
Y477500D01*
X397950D01*
X398112Y477338D01*
X398018Y451500D01*
X397950D01*
Y436251D01*
X392475Y430775D01*
X390952Y428791D01*
X389995Y426480D01*
X389668Y424000D01*
Y412500D01*
X386250D01*
Y381500D01*
X412250D01*
Y381500D01*
X413250D01*
Y381500D01*
X425949D01*
X429225Y378224D01*
X431209Y376702D01*
X433520Y375745D01*
X436000Y375418D01*
X446905D01*
X447282Y374854D01*
X445679Y371854D01*
X440500D01*
X437367Y371441D01*
X434448Y370232D01*
X431941Y368308D01*
X431692Y368059D01*
X429768Y365552D01*
X428559Y362633D01*
X428146Y359500D01*
X428559Y356367D01*
X429768Y353448D01*
X431692Y350942D01*
X434198Y349018D01*
X437117Y347809D01*
X440250Y347396D01*
X442149Y347646D01*
X459750D01*
Y346500D01*
X496750D01*
Y373000D01*
X477772D01*
X477548Y373541D01*
X476026Y375526D01*
X459776Y391776D01*
X457791Y393298D01*
X455480Y394255D01*
X453000Y394582D01*
X441626D01*
X440516Y396612D01*
X440323Y397582D01*
X441648Y399309D01*
X442245Y400750D01*
X443816D01*
X446360Y401432D01*
X448640Y402748D01*
X450502Y404610D01*
X451310Y406009D01*
X452826Y407525D01*
X454348Y409509D01*
X455306Y411820D01*
X455632Y414300D01*
Y423000D01*
X456050D01*
Y446168D01*
X461500D01*
X463980Y446494D01*
X466291Y447452D01*
X468275Y448974D01*
X488026Y468725D01*
X489548Y470709D01*
X490505Y473020D01*
X490832Y475500D01*
Y491373D01*
X491250Y492934D01*
Y495566D01*
X490569Y498110D01*
X489252Y500390D01*
X487390Y502252D01*
X485110Y503568D01*
X482566Y504250D01*
X479934D01*
X477390Y503568D01*
X475110Y502252D01*
X473248Y500390D01*
X471931Y498110D01*
X471250Y495566D01*
Y492934D01*
X471668Y491373D01*
Y479469D01*
X461603Y469404D01*
X458002Y469640D01*
X456140Y471502D01*
X454741Y472310D01*
X447863Y479188D01*
X449011Y481960D01*
X451590D01*
Y490480D01*
X446050D01*
Y491750D01*
X444780D01*
Y501540D01*
X443350D01*
Y506000D01*
X430650D01*
Y506000D01*
D02*
G37*
G36*
X49290Y352040D02*
X42020D01*
Y342270D01*
X49290D01*
Y352040D01*
D02*
G37*
G36*
X39480D02*
X32210D01*
Y342270D01*
X39480D01*
Y352040D01*
D02*
G37*
G36*
Y339730D02*
X32210D01*
Y329960D01*
X39480D01*
Y339730D01*
D02*
G37*
G36*
X36770Y323040D02*
Y313270D01*
X44040D01*
Y323040D01*
X36770D01*
D02*
G37*
G36*
X492290Y316540D02*
X479520D01*
Y309020D01*
X492290D01*
Y316540D01*
D02*
G37*
G36*
X476980D02*
X464210D01*
Y309020D01*
X476980D01*
Y316540D01*
D02*
G37*
G36*
X44040Y310730D02*
X36770D01*
Y300960D01*
X44040D01*
Y310730D01*
D02*
G37*
G36*
X34230D02*
X26960D01*
Y300960D01*
X34230D01*
Y310730D01*
D02*
G37*
G36*
X492290Y306480D02*
X479520D01*
Y298960D01*
X492290D01*
Y306480D01*
D02*
G37*
G36*
X476980D02*
X464210D01*
Y298960D01*
X476980D01*
Y306480D01*
D02*
G37*
%LPD*%
G36*
X201659Y541545D02*
Y523455D01*
X196545Y518341D01*
X193040D01*
Y527230D01*
X180500D01*
X167960D01*
Y515460D01*
X167960Y515460D01*
X167960D01*
X166381Y513177D01*
X165059Y511855D01*
X161520Y512559D01*
X161500Y512607D01*
Y546000D01*
X138735D01*
X134750Y549985D01*
Y556659D01*
X173404D01*
X174141Y555003D01*
X174324Y553659D01*
X173053Y552388D01*
X172280Y550520D01*
X183220D01*
X182447Y552388D01*
X181176Y553659D01*
X181359Y555003D01*
X182096Y556659D01*
X186545D01*
X201659Y541545D01*
D02*
G37*
G36*
X141250Y533500D02*
Y519250D01*
X109250D01*
Y523750D01*
X98500D01*
Y524000D01*
Y534250D01*
X100750D01*
X111750Y545250D01*
X129500D01*
X141250Y533500D01*
D02*
G37*
G36*
X94750Y523500D02*
X94500Y523250D01*
X83500D01*
X83750Y523000D01*
Y519250D01*
X73000D01*
Y540750D01*
X94750D01*
Y523500D01*
D02*
G37*
%LPC*%
G36*
X183220Y547980D02*
X172280D01*
X173053Y546112D01*
X174612Y544553D01*
X174644Y544540D01*
X174047Y541540D01*
X167960D01*
Y529770D01*
X180500D01*
X193040D01*
Y541540D01*
X181453D01*
X180856Y544540D01*
X180888Y544553D01*
X182447Y546112D01*
X183220Y547980D01*
D02*
G37*
%LPD*%
G36*
X410750Y444500D02*
X411000Y444250D01*
X423500D01*
Y430250D01*
X423250Y430000D01*
X405000D01*
X405250Y498750D01*
X410750D01*
Y444500D01*
D02*
G37*
%LPC*%
G36*
X252319Y352490D02*
X251270D01*
Y330220D01*
X273540D01*
Y331268D01*
X272635Y335816D01*
X270861Y340100D01*
X268285Y343956D01*
X265006Y347235D01*
X261150Y349811D01*
X256866Y351585D01*
X252319Y352490D01*
D02*
G37*
G36*
X248730D02*
X247682D01*
X243134Y351585D01*
X238850Y349811D01*
X234994Y347235D01*
X231715Y343956D01*
X229139Y340100D01*
X227365Y335816D01*
X226460Y331268D01*
Y330220D01*
X248730D01*
Y352490D01*
D02*
G37*
G36*
X273540Y327680D02*
X251270D01*
Y305410D01*
X252319D01*
X256866Y306315D01*
X261150Y308089D01*
X265006Y310665D01*
X268285Y313944D01*
X270861Y317800D01*
X272635Y322084D01*
X273540Y326632D01*
Y327680D01*
D02*
G37*
G36*
X248730D02*
X226460D01*
Y326632D01*
X227365Y322084D01*
X229139Y317800D01*
X231715Y313944D01*
X234994Y310665D01*
X238850Y308089D01*
X243134Y306315D01*
X247682Y305410D01*
X248730D01*
Y327680D01*
D02*
G37*
G36*
X267730Y231220D02*
X265862Y230447D01*
X264303Y228888D01*
X263530Y227020D01*
X267730D01*
Y231220D01*
D02*
G37*
%LPD*%
D17*
X34250Y187750D02*
X41898Y180102D01*
X151500Y232250D02*
X155000D01*
X146750Y227500D02*
X151500Y232250D01*
X170000Y198400D02*
Y232250D01*
Y198400D02*
X173200Y195200D01*
X181500Y203500D01*
Y203750D01*
X149750Y195200D02*
X173200D01*
X141250Y182000D02*
X141750Y182500D01*
X152200D01*
X149750Y185250D02*
X152200Y182800D01*
X149750Y185250D02*
Y195200D01*
X152200Y182500D02*
Y182800D01*
X220020Y275120D02*
X221650Y276750D01*
X211100Y262250D02*
Y262450D01*
X212730Y264080D02*
X212930D01*
X220020Y271170D02*
Y275120D01*
X212930Y264080D02*
X220020Y271170D01*
X211100Y262450D02*
X212730Y264080D01*
X200100Y251250D02*
X209270Y260420D01*
X184000Y251250D02*
X200100D01*
X209270Y260420D02*
X209470D01*
X211100Y262050D01*
Y262250D01*
X201000Y318000D02*
X223091D01*
X22500Y187750D02*
X34250D01*
X149750Y215250D02*
X160000Y225500D01*
X149750Y204800D02*
Y215250D01*
X8540Y201710D02*
Y243079D01*
Y201710D02*
X22500Y187750D01*
X193050Y310050D02*
X201000Y318000D01*
X192750Y310050D02*
X193050D01*
X27481Y262020D02*
X35770D01*
X8540Y243079D02*
X27481Y262020D01*
X15810Y230250D02*
X16080Y229980D01*
X35770D02*
X36000Y229750D01*
X35770Y262020D02*
X36000Y262250D01*
X16080Y229980D02*
X35770D01*
X36000Y268750D02*
X36230Y268520D01*
X3000Y167988D02*
X7238Y163750D01*
X3000Y167988D02*
Y256250D01*
X15500Y268750D01*
X7238Y163750D02*
X23400D01*
X74200D02*
Y206339D01*
X44519Y236020D02*
X74200Y206339D01*
X36000Y236250D02*
X36230Y236020D01*
X44519D01*
X53750Y242750D02*
X99600Y196900D01*
Y163750D02*
Y196900D01*
X36000Y242750D02*
X53750D01*
X63750Y249500D02*
Y344250D01*
Y249500D02*
X77000Y236250D01*
X175000Y215230D02*
Y232250D01*
Y215230D02*
X177480Y212750D01*
X181500D01*
X193250Y245250D02*
X204000D01*
X213250Y236000D01*
X186960Y241250D02*
X195460Y232750D01*
X200250D01*
X184000Y241250D02*
X186960D01*
X163300Y184000D02*
X174250D01*
X184070D01*
X185700Y182370D01*
X161800Y182500D02*
X163300Y184000D01*
X185700Y182250D02*
Y182370D01*
X74250Y479500D02*
X83471Y488721D01*
X87733Y479500D02*
X93250Y485017D01*
X74250Y479500D02*
X87733D01*
X83471Y488721D02*
X86520D01*
X86750Y488951D02*
Y492750D01*
X86520Y488721D02*
X86750Y488951D01*
X140500Y508750D02*
X154000D01*
X132500D02*
X140500D01*
X139250Y507500D02*
X140500Y508750D01*
X114500Y507500D02*
X139250D01*
X154000Y508750D02*
X154250Y508500D01*
X127250Y514000D02*
X132500Y508750D01*
X114500Y514000D02*
X127250D01*
X148025Y291225D02*
X152025D01*
X147750Y291500D02*
X148025Y291225D01*
X152025D02*
X160000Y283250D01*
Y270250D02*
Y283250D01*
X192314Y245250D02*
X193250D01*
X184000Y246250D02*
X191314D01*
X192314Y245250D01*
X165000Y270250D02*
Y280250D01*
X206250Y283750D02*
Y290700D01*
X200750Y278250D02*
X206250Y283750D01*
X159250Y213250D02*
X165000Y219000D01*
Y232250D01*
X93250Y485017D02*
Y492750D01*
X73000Y565000D02*
X190000D01*
X64750Y573250D02*
X73000Y565000D01*
X64750Y573250D02*
Y575750D01*
X190000Y565000D02*
X210000Y545000D01*
Y520000D02*
Y545000D01*
X200000Y510000D02*
X210000Y520000D01*
X175000Y510000D02*
X200000D01*
X166000Y501000D02*
X175000Y510000D01*
X114500Y501000D02*
X166000D01*
X324500Y583000D02*
X345500D01*
X212250Y470750D02*
X324500Y583000D01*
X212250Y468250D02*
X216980Y463520D01*
Y458520D02*
X237000Y438500D01*
Y383500D02*
Y438500D01*
X216980Y458520D02*
Y463520D01*
X212250Y468250D02*
Y470750D01*
X178750Y325250D02*
X237000Y383500D01*
X158000Y325250D02*
X178750D01*
X114500Y281750D02*
X158000Y325250D01*
X93500Y281750D02*
X114500D01*
X279250Y390500D02*
X281000Y388750D01*
X326750D01*
X345500Y370000D01*
X183000Y318750D02*
X254750Y390500D01*
X279250D01*
X161750Y318750D02*
X183000D01*
X111750Y268750D02*
X161750Y318750D01*
X93500Y268750D02*
X111750D01*
X13250Y341500D02*
X13750Y341000D01*
X150250Y280250D02*
X155000Y275500D01*
Y270250D02*
Y275500D01*
X15500Y268750D02*
X36000D01*
X15500Y268750D02*
X15500Y268750D01*
X77000Y236250D02*
X93500D01*
X63750Y344250D02*
X154500Y435000D01*
X13250Y289500D02*
Y357000D01*
X74750Y418500D01*
X13250Y289500D02*
X21000Y281750D01*
X36000D01*
X160000Y225500D02*
Y232250D01*
X191350Y256250D02*
X210020Y274920D01*
X210220D02*
X211850Y276550D01*
Y276750D01*
X184000Y256250D02*
X191350D01*
X210020Y274920D02*
X210220D01*
X210980Y277620D02*
Y280780D01*
Y277620D02*
X211850Y276750D01*
X220550Y290350D02*
X220750D01*
X210980Y280780D02*
X220550Y290350D01*
X206250Y300300D02*
X220600D01*
X220750Y300150D01*
X206100Y300450D02*
X206250Y300300D01*
X192750Y300450D02*
X206100D01*
X184000Y261250D02*
X190750D01*
X192750Y263250D02*
Y300450D01*
X190750Y261250D02*
X192750Y263250D01*
X175000Y270250D02*
Y301250D01*
X165000Y311250D02*
X175000Y301250D01*
X157314Y303750D02*
X170000Y291064D01*
Y270250D02*
Y291064D01*
X156500Y303750D02*
X157314D01*
X94000Y256250D02*
X146000D01*
X130500Y246250D02*
X146000D01*
X127500Y229750D02*
X139000Y241250D01*
X127500Y251250D02*
X146000D01*
X139000Y241250D02*
X146000D01*
X125500Y249250D02*
X127500Y251250D01*
X93500Y249250D02*
X125500D01*
X93500Y229750D02*
X127500D01*
X127000Y242750D02*
X130500Y246250D01*
X93500Y242750D02*
X127000D01*
X93500Y255750D02*
X94000Y256250D01*
X94230Y261520D02*
X100258D01*
X100468Y261310D02*
X141190D01*
X93500Y262250D02*
X94230Y261520D01*
X100258D02*
X100468Y261310D01*
X77598Y470490D02*
X86490D01*
X99750Y483750D01*
Y492750D01*
X48070Y485506D02*
X51826Y481750D01*
X63000D01*
X67500Y486250D01*
Y493750D01*
X74750Y501000D01*
X78500D01*
X58250Y493750D02*
Y501750D01*
X64000Y507500D01*
X78500D01*
X50000Y505750D02*
X58250Y514000D01*
X78500D01*
X20000Y476750D02*
Y506250D01*
D21*
X185700Y182250D02*
D03*
X195300D02*
D03*
X152200Y182500D02*
D03*
X161800D02*
D03*
D24*
X35500Y312000D02*
D03*
X62500D02*
D03*
X212250Y468250D02*
D03*
X185250D02*
D03*
X65000Y607000D02*
D03*
X38000D02*
D03*
X64750Y575750D02*
D03*
X37750Y575750D02*
D03*
X399250Y397000D02*
D03*
X426250D02*
D03*
X40750Y341000D02*
D03*
X13750D02*
D03*
D27*
X72750Y465750D02*
D03*
Y448750D02*
D03*
D28*
X288750Y209000D02*
D03*
X315750D02*
D03*
D29*
X316250Y533000D02*
D03*
Y484000D02*
D03*
D30*
X149750Y204800D02*
D03*
Y195200D02*
D03*
X192750Y310050D02*
D03*
Y300450D02*
D03*
X206250Y290700D02*
D03*
Y300300D02*
D03*
D50*
X227450Y255500D02*
X227750D01*
X220900Y262050D02*
Y262250D01*
Y262050D02*
X227450Y255500D01*
X204250Y182250D02*
X209500Y187500D01*
X195300Y182250D02*
X204250D01*
X65000Y605000D02*
Y607000D01*
Y576000D02*
Y605000D01*
X64750Y575750D02*
X65000Y576000D01*
X83750Y603250D02*
X87500Y607000D01*
X83750Y601500D02*
Y603250D01*
X37750Y558481D02*
Y591750D01*
X38000Y607000D02*
X38000Y607000D01*
X38000Y592000D02*
Y607000D01*
X37750Y591750D02*
X38000Y592000D01*
X65000Y605000D02*
X68500Y601500D01*
X83750D01*
X87500Y605250D01*
Y607000D01*
X18500Y607000D02*
X38000D01*
X38000Y607000D01*
X37750Y640229D02*
Y640500D01*
Y640229D02*
X38000Y639980D01*
Y607000D02*
Y639980D01*
X37750Y546750D02*
Y558481D01*
X37750Y558481D02*
X37750Y558481D01*
X87500Y605250D02*
X99750Y593000D01*
X119250D01*
X430000Y391000D02*
X436000Y385000D01*
X426250Y394500D02*
Y397000D01*
Y394500D02*
X429750Y391000D01*
X430000D01*
X436000Y385000D02*
X453000D01*
X469250Y368750D01*
X473000Y359750D02*
X478250D01*
X469250Y363500D02*
X473000Y359750D01*
X469250Y363500D02*
Y368750D01*
X248250Y492500D02*
X302429Y546679D01*
X40929Y525750D02*
X77500D01*
X77750Y526000D01*
X40429Y525250D02*
X40929Y525750D01*
X316250Y533000D02*
Y543000D01*
X35000Y506250D02*
X36428Y507678D01*
Y514179D02*
X40429Y518179D01*
X36428Y507678D02*
Y514179D01*
X40429Y518179D02*
Y525250D01*
X312571Y546679D02*
X316250Y543000D01*
X302429Y546679D02*
X312571D01*
X316250Y541000D02*
X323000Y547750D01*
X328250D02*
X333500Y553000D01*
X323000Y547750D02*
X328250D01*
X148000Y467750D02*
X177250Y497000D01*
X114250Y467750D02*
X148000D01*
X106250Y475750D02*
X114250Y467750D01*
X106250Y475750D02*
Y492750D01*
X35000Y489500D02*
X35250Y489250D01*
X35000Y489500D02*
Y506250D01*
X481250Y475500D02*
Y494250D01*
X461500Y455750D02*
X481250Y475500D01*
X453330Y455460D02*
X453620Y455750D01*
X461500D01*
X433500D02*
X446380D01*
X446670Y455460D01*
X453330D01*
X420650Y468600D02*
X433500Y455750D01*
X420650Y468600D02*
Y491750D01*
X399250Y424000D02*
X408686Y433436D01*
X399250Y397000D02*
Y424000D01*
X426250Y397000D02*
X433350Y404100D01*
Y437250D01*
Y480150D02*
X450000Y463500D01*
X433350Y480150D02*
Y491750D01*
X442500Y410750D02*
X446050Y414300D01*
Y437250D01*
D51*
X440500Y359750D02*
X473000D01*
X277250Y248750D02*
Y286708D01*
X279250Y288708D01*
X298207D02*
X369250Y359750D01*
X279250Y288708D02*
X298207D01*
X369250Y359750D02*
X390250D01*
X440250Y359500D02*
X440500Y359750D01*
X325250Y265750D02*
X329250Y269750D01*
Y289904D01*
X347096Y307750D01*
X390250D01*
X315750Y236750D02*
X325250Y246250D01*
Y265750D01*
X315750Y206000D02*
Y236750D01*
X288750Y209000D02*
X289000Y209250D01*
X277250Y248750D02*
X289000Y237000D01*
Y209250D02*
Y237000D01*
X296574Y186824D02*
X315750Y206000D01*
X267500Y167000D02*
X287324Y186824D01*
X296574D01*
X271000Y205500D02*
X288250D01*
X288750Y206000D02*
Y209000D01*
X232500Y167000D02*
X271000Y205500D01*
X288250D02*
X288750Y206000D01*
D53*
X99600Y163750D02*
D03*
X74200D02*
D03*
X48800D02*
D03*
X23400D02*
D03*
D54*
X154500Y648000D02*
D03*
X154500Y583000D02*
D03*
X199500D02*
D03*
Y648000D02*
D03*
X300500Y583000D02*
D03*
Y648000D02*
D03*
X345500D02*
D03*
Y583000D02*
D03*
Y370000D02*
D03*
Y435000D02*
D03*
X300500D02*
D03*
Y370000D02*
D03*
X154500Y435000D02*
D03*
Y370000D02*
D03*
X199500D02*
D03*
Y435000D02*
D03*
X232500Y167000D02*
D03*
X267500D02*
D03*
D55*
X250000Y328950D02*
D03*
D56*
Y885050D02*
D03*
D57*
X73500Y401500D02*
D03*
X270000Y439500D02*
D03*
X256500Y647500D02*
D03*
X282407Y565361D02*
D03*
X159250Y213250D02*
D03*
X15810Y230250D02*
D03*
X73000Y377250D02*
D03*
X213250Y236000D02*
D03*
X200250Y232750D02*
D03*
X69000Y432750D02*
D03*
X74250Y479500D02*
D03*
X177750Y549250D02*
D03*
X474250Y637000D02*
D03*
X359000Y539000D02*
D03*
X269000Y225750D02*
D03*
X165000Y280250D02*
D03*
X147750Y291500D02*
D03*
X154250Y508500D02*
D03*
X193250Y245250D02*
D03*
X200750Y278250D02*
D03*
X150250Y280250D02*
D03*
X15500Y268750D02*
D03*
X74750Y418500D02*
D03*
X248250Y492500D02*
D03*
X80500Y539000D02*
D03*
X333500Y553000D02*
D03*
X37750Y640500D02*
D03*
X165000Y311250D02*
D03*
X156500Y303750D02*
D03*
X37750Y546750D02*
D03*
X177250Y497000D02*
D03*
X58250Y493750D02*
D03*
X50000Y505750D02*
D03*
X20000Y476750D02*
D03*
X481250Y494250D02*
D03*
X450000Y463500D02*
D03*
X442500Y410750D02*
D03*
D58*
X159500Y245750D02*
D03*
X170500D02*
D03*
X159500Y256750D02*
D03*
X170500D02*
D03*
X91000Y516250D02*
D03*
Y505250D02*
D03*
X102000Y516250D02*
D03*
Y505250D02*
D03*
D59*
X440250Y359500D02*
D03*
D60*
X220900Y262250D02*
D03*
X211100D02*
D03*
X221650Y276750D02*
D03*
X211850D02*
D03*
D61*
X136250Y127750D02*
D03*
X155250D02*
D03*
D62*
X478250Y359750D02*
D03*
Y307750D02*
D03*
X390250Y359750D02*
D03*
Y307750D02*
D03*
D63*
X16250Y529000D02*
D03*
X43750D02*
D03*
D64*
X181500Y212750D02*
D03*
Y203750D02*
D03*
D65*
X220750Y300150D02*
D03*
Y290350D02*
D03*
D66*
X146000Y241250D02*
D03*
Y246250D02*
D03*
Y251250D02*
D03*
Y256250D02*
D03*
Y261250D02*
D03*
X184000D02*
D03*
Y256250D02*
D03*
Y251250D02*
D03*
Y246250D02*
D03*
Y241250D02*
D03*
D67*
X155000Y270250D02*
D03*
X160000D02*
D03*
X165000D02*
D03*
X170000D02*
D03*
X175000D02*
D03*
Y232250D02*
D03*
X170000D02*
D03*
X165000D02*
D03*
X160000D02*
D03*
X155000D02*
D03*
D68*
X165000Y251250D02*
D03*
D69*
X36000Y223250D02*
D03*
Y229750D02*
D03*
Y236250D02*
D03*
Y242750D02*
D03*
Y249250D02*
D03*
Y255750D02*
D03*
Y262250D02*
D03*
Y268750D02*
D03*
Y275250D02*
D03*
Y281750D02*
D03*
X93500Y223250D02*
D03*
X93500Y229750D02*
D03*
Y236250D02*
D03*
X93500Y242750D02*
D03*
X93500Y249250D02*
D03*
Y255750D02*
D03*
X93500Y262250D02*
D03*
X93500Y268750D02*
D03*
Y275250D02*
D03*
X93500Y281750D02*
D03*
D70*
X35250Y489250D02*
D03*
X45750Y489250D02*
D03*
D71*
X86750Y528750D02*
D03*
X93250D02*
D03*
X99750Y528750D02*
D03*
X106250Y528750D02*
D03*
Y492750D02*
D03*
X99750Y492750D02*
D03*
X93250D02*
D03*
X86750Y492750D02*
D03*
D72*
X114500Y520500D02*
D03*
Y514000D02*
D03*
Y507500D02*
D03*
Y501000D02*
D03*
X78500Y501000D02*
D03*
Y507500D02*
D03*
Y514000D02*
D03*
Y520500D02*
D03*
D73*
X96500Y510750D02*
D03*
D74*
X87500Y579500D02*
D03*
X87500Y607000D02*
D03*
X18500Y579500D02*
D03*
Y607000D02*
D03*
D75*
X119250Y593000D02*
D03*
X119250Y552500D02*
D03*
D76*
X144500Y528500D02*
D03*
X180500Y528500D02*
D03*
D77*
X35000Y506250D02*
D03*
X20000D02*
D03*
D78*
X446050Y437250D02*
D03*
X433350Y437250D02*
D03*
X420650Y437250D02*
D03*
X407950D02*
D03*
X446050Y491750D02*
D03*
X433350Y491750D02*
D03*
X420650Y491750D02*
D03*
X407950D02*
D03*
D79*
X277250Y267750D02*
D03*
X327250Y267750D02*
D03*
D80*
X279250Y417500D02*
D03*
Y390500D02*
D03*
D81*
X215350Y195500D02*
D03*
X232900Y244000D02*
D03*
X173900Y170750D02*
D03*
D82*
X223965Y219485D02*
D03*
X166465Y151735D02*
D03*
D83*
X173375Y100758D02*
D03*
X198125Y100758D02*
D03*
D84*
X155250Y83753D02*
D03*
X136250Y83753D02*
D03*
D85*
X216750Y64755D02*
D03*
D86*
X210375Y44755D02*
D03*
D87*
X204450Y72754D02*
D03*
X192150Y72755D02*
D03*
X179850Y72755D02*
D03*
X167550Y72755D02*
D03*
D88*
X185876Y44756D02*
D03*
D89*
X161251D02*
D03*
D90*
X144876Y44756D02*
D03*
D91*
X125921Y140892D02*
D03*
D92*
X155187Y137647D02*
D03*
M02*
