G04*
G04 #@! TF.GenerationSoftware,Altium Limited,Altium Designer,23.1.1 (15)*
G04*
G04 Layer_Physical_Order=1*
G04 Layer_Color=255*
%FSLAX44Y44*%
%MOMM*%
G71*
G04*
G04 #@! TF.SameCoordinates,4FD7E483-A0BE-4EFF-918D-63B1A9DD4886*
G04*
G04*
G04 #@! TF.FilePolarity,Positive*
G04*
G01*
G75*
%ADD17C,0.2540*%
%ADD19R,0.8000X1.2000*%
%ADD20R,0.6000X0.8000*%
%ADD21R,0.5800X0.6400*%
%ADD22R,2.0000X5.5000*%
%ADD23R,5.3200X2.0600*%
%ADD24R,1.2000X1.7000*%
%ADD25R,2.1000X2.0000*%
%ADD26R,1.1000X3.3000*%
%ADD27R,1.4000X1.2500*%
%ADD28R,1.1000X1.7000*%
%ADD29R,1.8500X3.4500*%
%ADD30R,0.6400X0.5800*%
%ADD50C,0.5000*%
%ADD51C,1.0000*%
%ADD52R,3.0500X1.9500*%
%ADD53C,1.7000*%
%ADD54C,1.6000*%
%ADD55C,4.2000*%
%ADD56R,4.2000X4.2000*%
%ADD57C,0.6000*%
%ADD58C,0.5000*%
%ADD59C,0.8000*%
G36*
X192395Y661293D02*
X189938Y659651D01*
X187849Y657562D01*
X186208Y655105D01*
X185908Y654381D01*
X182369Y653678D01*
X182148Y653898D01*
X180421Y655224D01*
X178409Y656057D01*
X176250Y656341D01*
X176250Y656341D01*
X166967D01*
X166151Y657562D01*
X164062Y659651D01*
X161605Y661293D01*
X162306Y664250D01*
X191695D01*
X192395Y661293D01*
D02*
G37*
G36*
X500000Y583794D02*
X497000Y582551D01*
X491776Y587775D01*
X489791Y589298D01*
X487480Y590256D01*
X485000Y590582D01*
X444000D01*
X441520Y590256D01*
X439209Y589298D01*
X437225Y587775D01*
X425281Y575832D01*
X411300D01*
X410677Y575750D01*
X369900D01*
Y568032D01*
X355498D01*
X354588Y571032D01*
X355062Y571349D01*
X357151Y573438D01*
X358793Y575895D01*
X359924Y578625D01*
X360500Y581523D01*
Y584477D01*
X359924Y587375D01*
X358793Y590105D01*
X357151Y592562D01*
X355062Y594651D01*
X352605Y596293D01*
X349875Y597424D01*
X346977Y598000D01*
X344023D01*
X341125Y597424D01*
X338395Y596293D01*
X335938Y594651D01*
X333849Y592562D01*
X332207Y590105D01*
X331591Y588619D01*
X328591Y589215D01*
Y641785D01*
X331591Y642382D01*
X332207Y640895D01*
X333849Y638438D01*
X335938Y636349D01*
X338395Y634707D01*
X341125Y633576D01*
X344023Y633000D01*
X346977D01*
X349875Y633576D01*
X352605Y634707D01*
X355062Y636349D01*
X357151Y638438D01*
X358793Y640895D01*
X359924Y643625D01*
X360500Y646523D01*
Y649477D01*
X359924Y652375D01*
X358793Y655105D01*
X357151Y657562D01*
X355062Y659651D01*
X352605Y661293D01*
X353305Y664250D01*
X423209D01*
Y657063D01*
X422693Y655817D01*
X422409Y653659D01*
X422693Y651500D01*
X423526Y649488D01*
X424852Y647760D01*
X426579Y646435D01*
X428591Y645601D01*
X430750Y645317D01*
X432909Y645601D01*
X434921Y646435D01*
X436648Y647760D01*
X437448Y648560D01*
X437448Y648560D01*
X438774Y650288D01*
X439607Y652300D01*
X439891Y654459D01*
Y664250D01*
X500000D01*
Y583794D01*
D02*
G37*
G36*
X147395Y661293D02*
X144938Y659651D01*
X142849Y657562D01*
X141207Y655105D01*
X140077Y652375D01*
X139500Y649477D01*
Y646523D01*
X140077Y643625D01*
X141207Y640895D01*
X142849Y638438D01*
X144938Y636349D01*
X147395Y634707D01*
X150125Y633577D01*
X153023Y633000D01*
X155977D01*
X158876Y633577D01*
X161605Y634707D01*
X164062Y636349D01*
X166151Y638438D01*
X166967Y639659D01*
X172795D01*
X262659Y549795D01*
Y508205D01*
X254673Y500219D01*
X254390Y500502D01*
X252110Y501819D01*
X249566Y502500D01*
X246933D01*
X244390Y501819D01*
X242110Y500502D01*
X240248Y498640D01*
X239440Y497241D01*
X236531Y494332D01*
X188287D01*
X187250Y495684D01*
Y498316D01*
X186569Y500860D01*
X185252Y503140D01*
X183390Y505002D01*
X181110Y506319D01*
X178566Y507000D01*
X175933D01*
X174373Y506582D01*
X160335D01*
X159902Y507230D01*
X154250D01*
Y508500D01*
X152980D01*
Y513970D01*
X151112Y513197D01*
X149553Y511638D01*
X148710Y509602D01*
Y509084D01*
X145710Y507841D01*
X100026Y553526D01*
X98041Y555048D01*
X95730Y556006D01*
X93250Y556332D01*
X40627D01*
X39067Y556750D01*
X36433D01*
X33890Y556068D01*
X31610Y554752D01*
X29748Y552890D01*
X28431Y550610D01*
X27750Y548066D01*
Y545434D01*
X28431Y542890D01*
X29748Y540610D01*
X31610Y538748D01*
X33890Y537431D01*
X36433Y536750D01*
X39067D01*
X40627Y537168D01*
X61244D01*
X62108Y536119D01*
X62944Y534168D01*
X62245Y532480D01*
X61918Y530000D01*
Y511099D01*
X58918Y510303D01*
X58002Y511890D01*
X56140Y513752D01*
X53860Y515069D01*
X51316Y515750D01*
X48684D01*
X46140Y515069D01*
X43860Y513752D01*
X41998Y511890D01*
X40682Y509610D01*
X40000Y507066D01*
Y504434D01*
X40682Y501890D01*
X41659Y500198D01*
Y464500D01*
X31703D01*
X28341Y467862D01*
Y471198D01*
X29318Y472890D01*
X30000Y475434D01*
Y478066D01*
X29318Y480610D01*
X28002Y482890D01*
X26140Y484752D01*
X23860Y486068D01*
X21316Y486750D01*
X18684D01*
X16140Y486068D01*
X13860Y484752D01*
X11998Y482890D01*
X10682Y480610D01*
X10000Y478066D01*
Y475434D01*
X10682Y472890D01*
X11659Y471198D01*
Y464407D01*
X11659Y464407D01*
X11943Y462248D01*
X12776Y460236D01*
X14102Y458508D01*
X20000Y452610D01*
Y438500D01*
X22659D01*
Y420750D01*
X20000D01*
Y394750D01*
X46300D01*
Y380150D01*
X48514D01*
X48908Y379700D01*
X48909Y379700D01*
Y350600D01*
X47050D01*
Y330800D01*
X67450D01*
Y332359D01*
X77000D01*
Y298500D01*
X111000D01*
Y298500D01*
X113252Y299433D01*
X114833Y297852D01*
X114833Y297852D01*
X116561Y296526D01*
X118573Y295693D01*
X120732Y295409D01*
X120732Y295409D01*
X134869D01*
X136112Y292409D01*
X120795Y277091D01*
X21052D01*
X19360Y278069D01*
X16817Y278750D01*
X14183D01*
X11640Y278069D01*
X9360Y276752D01*
X7498Y274890D01*
X6181Y272610D01*
X5500Y270067D01*
Y267433D01*
X6181Y264890D01*
X7498Y262610D01*
X9360Y260748D01*
X11640Y259431D01*
X14183Y258750D01*
X16817D01*
X19360Y259431D01*
X21052Y260409D01*
X114692D01*
X115840Y257637D01*
X96795Y238591D01*
X21362D01*
X19670Y239569D01*
X17126Y240250D01*
X14493D01*
X11950Y239569D01*
X9670Y238252D01*
X7808Y236390D01*
X6492Y234110D01*
X5810Y231567D01*
Y228934D01*
X6492Y226390D01*
X7808Y224110D01*
X9670Y222248D01*
X11950Y220931D01*
X14493Y220250D01*
X17126D01*
X19670Y220931D01*
X21362Y221909D01*
X100250D01*
X100250Y221909D01*
X102409Y222193D01*
X104421Y223026D01*
X106148Y224352D01*
X129384Y247588D01*
X130664Y247485D01*
X132717Y246678D01*
X133276Y245329D01*
X134602Y243602D01*
X136329Y242276D01*
X138341Y241443D01*
X140500Y241159D01*
X142659Y241443D01*
X144671Y242276D01*
X146398Y243602D01*
X147086Y244290D01*
X147417Y244314D01*
X150325Y243286D01*
X150647Y242083D01*
X151898Y239917D01*
X153667Y238148D01*
X155833Y236897D01*
X158249Y236250D01*
X160751D01*
X163167Y236897D01*
X165000Y237956D01*
X166833Y236897D01*
X169249Y236250D01*
X171751D01*
X174167Y236897D01*
X176333Y238148D01*
X178102Y239917D01*
X179353Y242083D01*
X180000Y244499D01*
Y247001D01*
X179353Y249417D01*
X178294Y251250D01*
X179353Y253083D01*
X180000Y255499D01*
Y258000D01*
X179353Y260417D01*
X178102Y262583D01*
X176333Y264352D01*
X174167Y265602D01*
X173973Y265654D01*
X172976Y268325D01*
X173724Y269119D01*
X177499Y269205D01*
X190367Y256336D01*
X190359Y255340D01*
X189501Y252959D01*
X188329Y252474D01*
X186602Y251148D01*
X185276Y249421D01*
X184443Y247409D01*
X184159Y245250D01*
X184443Y243091D01*
X185276Y241079D01*
X186602Y239352D01*
X188329Y238026D01*
X189769Y237242D01*
X190045Y235050D01*
X189932Y234229D01*
X177295Y221591D01*
X164802D01*
X163110Y222568D01*
X160567Y223250D01*
X157934D01*
X155390Y222568D01*
X153110Y221252D01*
X151248Y219390D01*
X149931Y217110D01*
X149250Y214566D01*
Y211933D01*
X149931Y209390D01*
X151248Y207110D01*
X153110Y205248D01*
X155390Y203932D01*
X157934Y203250D01*
X160567D01*
X163110Y203932D01*
X164802Y204909D01*
X180750D01*
X180750Y204909D01*
X182909Y205193D01*
X184921Y206026D01*
X186648Y207352D01*
X202222Y222926D01*
X204110Y223431D01*
X206390Y224748D01*
X208252Y226610D01*
X209569Y228890D01*
X209660Y229233D01*
X211980Y230377D01*
Y236000D01*
Y241470D01*
X211841Y241413D01*
X208841Y243346D01*
Y258000D01*
X208841Y258000D01*
X208557Y260159D01*
X207724Y262171D01*
X206398Y263898D01*
X206398Y263898D01*
X200586Y269710D01*
X201829Y272710D01*
X201852D01*
X203888Y273553D01*
X205447Y275112D01*
X206220Y276980D01*
X200750D01*
Y279520D01*
X206402D01*
X206829Y280159D01*
X264702D01*
X264702Y280159D01*
X266861Y280443D01*
X268873Y281276D01*
X270600Y282602D01*
X326148Y338150D01*
X326148Y338150D01*
X327474Y339878D01*
X328307Y341889D01*
X328591Y344048D01*
X328591Y344048D01*
Y363785D01*
X331591Y364381D01*
X332207Y362895D01*
X333849Y360438D01*
X335938Y358349D01*
X338395Y356707D01*
X341125Y355577D01*
X344023Y355000D01*
X346977D01*
X349875Y355577D01*
X352605Y356707D01*
X355062Y358349D01*
X357151Y360438D01*
X358793Y362895D01*
X359924Y365625D01*
X360500Y368523D01*
Y371477D01*
X359924Y374375D01*
X358793Y377105D01*
X357151Y379562D01*
X355062Y381651D01*
X352605Y383293D01*
X349875Y384423D01*
X346977Y385000D01*
X344023D01*
X341125Y384423D01*
X338395Y383293D01*
X335938Y381651D01*
X333849Y379562D01*
X332207Y377105D01*
X331591Y375619D01*
X328591Y376215D01*
Y428785D01*
X331591Y429381D01*
X332207Y427895D01*
X333849Y425438D01*
X335938Y423349D01*
X338395Y421707D01*
X341125Y420577D01*
X344023Y420000D01*
X346977D01*
X349875Y420577D01*
X352605Y421707D01*
X355062Y423349D01*
X357151Y425438D01*
X358793Y427895D01*
X359924Y430625D01*
X360500Y433523D01*
Y436477D01*
X359924Y439375D01*
X358793Y442105D01*
X357151Y444562D01*
X355062Y446651D01*
X352605Y448293D01*
X349875Y449423D01*
X346977Y450000D01*
X344023D01*
X341125Y449423D01*
X338395Y448293D01*
X335938Y446651D01*
X333849Y444562D01*
X332207Y442105D01*
X331591Y440619D01*
X328591Y441215D01*
Y540993D01*
X331591Y543159D01*
X332183Y543000D01*
X334817D01*
X337360Y543681D01*
X339640Y544998D01*
X341502Y546860D01*
X342310Y548259D01*
X342919Y548868D01*
X369900D01*
Y541150D01*
X437100D01*
Y560549D01*
X447969Y571418D01*
X481031D01*
X483418Y569031D01*
Y537870D01*
X482500Y535250D01*
X447500D01*
Y527832D01*
X437100D01*
Y536350D01*
X369900D01*
Y501750D01*
X437100D01*
Y508668D01*
X447500D01*
Y501250D01*
X468449D01*
X471668Y498031D01*
Y497127D01*
X471250Y495566D01*
Y492934D01*
X471931Y490390D01*
X473248Y488110D01*
X475110Y486248D01*
X477390Y484931D01*
X479934Y484250D01*
X482566D01*
X483418Y483597D01*
Y476000D01*
X455500D01*
Y474390D01*
X452500Y473183D01*
X451316Y473500D01*
X448684D01*
X446140Y472818D01*
X443860Y471502D01*
X443040Y470682D01*
X440040Y471925D01*
Y474540D01*
X432770D01*
Y463500D01*
Y452460D01*
X440040D01*
Y455075D01*
X443040Y456318D01*
X443860Y455498D01*
X446140Y454182D01*
X448684Y453500D01*
X451316D01*
X452500Y453817D01*
X455500Y452610D01*
Y449500D01*
X459960D01*
Y447020D01*
X469500D01*
Y445750D01*
X470770D01*
Y436960D01*
X476166D01*
X477409Y433960D01*
X475031Y431582D01*
X444500D01*
Y449000D01*
X420086D01*
X418500Y449000D01*
X417500Y451586D01*
Y479000D01*
X391500D01*
Y449000D01*
X391500D01*
Y418000D01*
X406449D01*
X412638Y411811D01*
X411490Y409040D01*
X405460D01*
Y399270D01*
X413500D01*
X421540D01*
Y399585D01*
X424540Y401590D01*
X424770Y401494D01*
X427250Y401168D01*
X439623D01*
X441184Y400750D01*
X443816D01*
X446360Y401432D01*
X448640Y402748D01*
X450502Y404610D01*
X451819Y406890D01*
X452500Y409434D01*
Y412066D01*
X452770Y412418D01*
X479000D01*
X481480Y412744D01*
X483791Y413702D01*
X485775Y415224D01*
X497000Y426449D01*
X500000Y425206D01*
Y133750D01*
X0D01*
Y664250D01*
X28168D01*
Y643377D01*
X27750Y641816D01*
Y639184D01*
X28431Y636640D01*
X29748Y634360D01*
X31610Y632498D01*
X33890Y631181D01*
X36433Y630500D01*
X39067D01*
X41610Y631181D01*
X43890Y632498D01*
X45752Y634360D01*
X47069Y636640D01*
X47750Y639184D01*
Y641816D01*
X47332Y643377D01*
Y664250D01*
X146695D01*
X147395Y661293D01*
D02*
G37*
G36*
X293395Y661293D02*
X290938Y659651D01*
X288849Y657562D01*
X287207Y655105D01*
X286076Y652375D01*
X285500Y649477D01*
Y646523D01*
X286076Y643625D01*
X287207Y640895D01*
X288849Y638438D01*
X290938Y636349D01*
X293395Y634707D01*
X296125Y633576D01*
X299023Y633000D01*
X301977D01*
X304875Y633576D01*
X307605Y634707D01*
X308909Y635578D01*
X311909Y634124D01*
Y596876D01*
X308909Y595422D01*
X307605Y596293D01*
X304875Y597424D01*
X301977Y598000D01*
X299023D01*
X296125Y597424D01*
X293395Y596293D01*
X290938Y594651D01*
X288849Y592562D01*
X288033Y591341D01*
X267955D01*
X214214Y645083D01*
X214500Y646523D01*
Y649477D01*
X214214Y650917D01*
X227547Y664250D01*
X292695D01*
X293395Y661293D01*
D02*
G37*
G36*
X288849Y573438D02*
X290938Y571349D01*
X292159Y570533D01*
Y515205D01*
X282341Y505388D01*
X279341Y506631D01*
Y553250D01*
X279057Y555409D01*
X278224Y557421D01*
X279499Y560437D01*
X279632Y560513D01*
X281136Y559890D01*
Y564091D01*
X276936D01*
X277458Y562831D01*
X274914Y561132D01*
X264309Y571738D01*
X264309Y571740D01*
X265631Y574659D01*
X288033D01*
X288849Y573438D01*
D02*
G37*
G36*
X129345Y497104D02*
X128197Y494332D01*
X108089D01*
X107285Y497332D01*
X107833Y497648D01*
X109601Y499417D01*
X110852Y501583D01*
X111500Y503999D01*
Y506501D01*
X110852Y508917D01*
X110819Y508974D01*
X111543Y510677D01*
X115019Y511430D01*
X129345Y497104D01*
D02*
G37*
G36*
X85225Y477975D02*
X87209Y476452D01*
X89520Y475494D01*
X92000Y475168D01*
X225702D01*
X226850Y472396D01*
X213045Y458591D01*
X100862D01*
X100862Y458591D01*
X98703Y458307D01*
X96691Y457474D01*
X94964Y456148D01*
X94964Y456148D01*
X74536Y435721D01*
X73697Y435888D01*
X72138Y437447D01*
X70270Y438220D01*
Y432750D01*
X67730D01*
Y438402D01*
X66591Y439163D01*
Y475673D01*
X69373Y476320D01*
X69591Y476324D01*
X71112Y474803D01*
X72980Y474030D01*
Y479500D01*
X75520D01*
Y474030D01*
X77388Y474803D01*
X78947Y476362D01*
X79790Y478398D01*
Y479167D01*
X82790Y480409D01*
X85225Y477975D01*
D02*
G37*
G36*
X311909Y565658D02*
Y448876D01*
X308909Y447422D01*
X307605Y448293D01*
X304875Y449423D01*
X301977Y450000D01*
X299023D01*
X296125Y449423D01*
X293395Y448293D01*
X290938Y446651D01*
X288849Y444562D01*
X287207Y442105D01*
X286076Y439375D01*
X285500Y436477D01*
Y433523D01*
X286076Y430625D01*
X287207Y427895D01*
X288849Y425438D01*
X290938Y423349D01*
X293395Y421707D01*
X296125Y420577D01*
X299023Y420000D01*
X301977D01*
X304875Y420577D01*
X307605Y421707D01*
X308909Y422578D01*
X311909Y421124D01*
Y383876D01*
X308909Y382422D01*
X307605Y383293D01*
X304875Y384423D01*
X301977Y385000D01*
X299023D01*
X296125Y384423D01*
X293395Y383293D01*
X290938Y381651D01*
X288849Y379562D01*
X288033Y378341D01*
X230455D01*
X207841Y400955D01*
Y422533D01*
X209062Y423349D01*
X211151Y425438D01*
X211967Y426659D01*
X223750D01*
X223750Y426659D01*
X225909Y426943D01*
X227921Y427776D01*
X229648Y429102D01*
X306398Y505852D01*
X306398Y505852D01*
X307724Y507579D01*
X308557Y509591D01*
X308841Y511750D01*
Y567277D01*
X308909Y567319D01*
X311909Y565658D01*
D02*
G37*
G36*
X49909Y423488D02*
X47171Y420750D01*
X39342D01*
Y438500D01*
X49909D01*
Y423488D01*
D02*
G37*
G36*
X184000Y441049D02*
X184984Y438909D01*
X184500Y436477D01*
Y433523D01*
X185077Y430625D01*
X186207Y427895D01*
X187849Y425438D01*
X189938Y423349D01*
X191159Y422533D01*
Y397500D01*
X191159Y397500D01*
X191443Y395341D01*
X192276Y393329D01*
X193602Y391602D01*
X197290Y387913D01*
X196303Y384658D01*
X195125Y384424D01*
X192395Y383293D01*
X189938Y381651D01*
X187849Y379562D01*
X186207Y377105D01*
X185077Y374375D01*
X184500Y371477D01*
Y368523D01*
X185077Y365625D01*
X186207Y362895D01*
X187849Y360438D01*
X189938Y358349D01*
X192395Y356707D01*
X195125Y355577D01*
X198023Y355000D01*
X200977D01*
X203875Y355577D01*
X206605Y356707D01*
X209062Y358349D01*
X211151Y360438D01*
X212793Y362895D01*
X213923Y365625D01*
X214158Y366803D01*
X217413Y367790D01*
X221102Y364102D01*
X221102Y364102D01*
X222829Y362776D01*
X224841Y361943D01*
X227000Y361659D01*
X288033D01*
X288849Y360438D01*
X290938Y358349D01*
X293395Y356707D01*
X296125Y355577D01*
X299023Y355000D01*
X301977D01*
X304875Y355577D01*
X307605Y356707D01*
X308909Y357578D01*
X311909Y356124D01*
Y347503D01*
X261247Y296841D01*
X170000D01*
X170000Y296841D01*
X170000Y296841D01*
X168936D01*
X167126Y299677D01*
X167941Y301685D01*
X168860Y301931D01*
X171140Y303248D01*
X173002Y305110D01*
X174319Y307390D01*
X175000Y309933D01*
Y312567D01*
X174319Y315110D01*
X173002Y317390D01*
X171140Y319252D01*
X168860Y320569D01*
X166317Y321250D01*
X163683D01*
X161140Y320569D01*
X159448Y319591D01*
X128955D01*
X128841Y319705D01*
Y387711D01*
X128841Y387711D01*
X128557Y389870D01*
X127724Y391882D01*
X126398Y393609D01*
X126398Y393610D01*
X113609Y406398D01*
X111882Y407724D01*
X111000Y408089D01*
Y435000D01*
X101328D01*
X100180Y437772D01*
X104317Y441909D01*
X138426D01*
X139000Y441049D01*
X139984Y438909D01*
X139500Y436477D01*
Y433523D01*
X140077Y430625D01*
X141207Y427895D01*
X142849Y425438D01*
X144938Y423349D01*
X147395Y421707D01*
X150125Y420577D01*
X153023Y420000D01*
X155977D01*
X158875Y420577D01*
X161605Y421707D01*
X164062Y423349D01*
X166151Y425438D01*
X167793Y427895D01*
X168923Y430625D01*
X169500Y433523D01*
Y436477D01*
X169016Y438909D01*
X170000Y441049D01*
X170574Y441909D01*
X183426D01*
X184000Y441049D01*
D02*
G37*
G36*
X69905Y369193D02*
X72064Y368909D01*
X72064Y368909D01*
X73000D01*
X74000Y369040D01*
X77000Y367055D01*
Y366000D01*
X77000D01*
Y349042D01*
X67450D01*
Y350600D01*
X65591D01*
Y368011D01*
X66510Y368815D01*
X68591Y369737D01*
X69905Y369193D01*
D02*
G37*
%LPC*%
G36*
X475520Y642470D02*
Y638270D01*
X479720D01*
X478947Y640138D01*
X477388Y641697D01*
X475520Y642470D01*
D02*
G37*
G36*
X472980D02*
X471112Y641697D01*
X469553Y640138D01*
X468780Y638270D01*
X472980D01*
Y642470D01*
D02*
G37*
G36*
X479720Y635730D02*
X475520D01*
Y631530D01*
X477388Y632303D01*
X478947Y633862D01*
X479720Y635730D01*
D02*
G37*
G36*
X472980D02*
X468780D01*
X469553Y633862D01*
X471112Y632303D01*
X472980Y631530D01*
Y635730D01*
D02*
G37*
G36*
X200978Y598000D02*
X198023D01*
X195125Y597424D01*
X192395Y596293D01*
X189938Y594651D01*
X187849Y592562D01*
X186208Y590105D01*
X185077Y587375D01*
X184500Y584477D01*
Y581523D01*
X185077Y578625D01*
X186208Y575895D01*
X187849Y573438D01*
X189938Y571349D01*
X192395Y569707D01*
X195125Y568576D01*
X198023Y568000D01*
X200978D01*
X203876Y568576D01*
X206605Y569707D01*
X209062Y571349D01*
X211152Y573438D01*
X212793Y575895D01*
X213924Y578625D01*
X214500Y581523D01*
Y584477D01*
X213924Y587375D01*
X212793Y590105D01*
X211152Y592562D01*
X209062Y594651D01*
X206605Y596293D01*
X203876Y597424D01*
X200978Y598000D01*
D02*
G37*
G36*
X155977D02*
X153023D01*
X150125Y597424D01*
X147395Y596293D01*
X144938Y594651D01*
X142849Y592562D01*
X141207Y590105D01*
X140077Y587375D01*
X139500Y584477D01*
Y581523D01*
X140077Y578625D01*
X141207Y575895D01*
X142849Y573438D01*
X144938Y571349D01*
X147395Y569707D01*
X150125Y568576D01*
X153023Y568000D01*
X155977D01*
X158875Y568576D01*
X161605Y569707D01*
X164062Y571349D01*
X166151Y573438D01*
X167793Y575895D01*
X168924Y578625D01*
X169500Y581523D01*
Y584477D01*
X168924Y587375D01*
X167793Y590105D01*
X166151Y592562D01*
X164062Y594651D01*
X161605Y596293D01*
X158875Y597424D01*
X155977Y598000D01*
D02*
G37*
G36*
X478040Y566790D02*
X466270D01*
Y555520D01*
X478040D01*
Y566790D01*
D02*
G37*
G36*
X463730D02*
X451960D01*
Y555520D01*
X463730D01*
Y566790D01*
D02*
G37*
G36*
X179020Y554720D02*
Y550520D01*
X183220D01*
X182447Y552388D01*
X180888Y553947D01*
X179020Y554720D01*
D02*
G37*
G36*
X176480D02*
X174612Y553947D01*
X173053Y552388D01*
X172280Y550520D01*
X176480D01*
Y554720D01*
D02*
G37*
G36*
X183220Y547980D02*
X179020D01*
Y543780D01*
X180888Y544553D01*
X182447Y546112D01*
X183220Y547980D01*
D02*
G37*
G36*
X176480D02*
X172280D01*
X173053Y546112D01*
X174612Y544553D01*
X176480Y543780D01*
Y547980D01*
D02*
G37*
G36*
X478040Y552980D02*
X466270D01*
Y541710D01*
X478040D01*
Y552980D01*
D02*
G37*
G36*
X463730D02*
X451960D01*
Y541710D01*
X463730D01*
Y552980D01*
D02*
G37*
G36*
X360270Y544470D02*
Y540270D01*
X364470D01*
X363697Y542138D01*
X362138Y543697D01*
X360270Y544470D01*
D02*
G37*
G36*
X357730D02*
X355862Y543697D01*
X354303Y542138D01*
X353530Y540270D01*
X357730D01*
Y544470D01*
D02*
G37*
G36*
X364470Y537730D02*
X360270D01*
Y533530D01*
X362138Y534303D01*
X363697Y535862D01*
X364470Y537730D01*
D02*
G37*
G36*
X357730D02*
X353530D01*
X354303Y535862D01*
X355862Y534303D01*
X357730Y533530D01*
Y537730D01*
D02*
G37*
G36*
X155520Y513970D02*
Y509770D01*
X159720D01*
X158947Y511638D01*
X157388Y513197D01*
X155520Y513970D01*
D02*
G37*
G36*
X430230Y474540D02*
X422960D01*
Y464770D01*
X430230D01*
Y474540D01*
D02*
G37*
G36*
Y462230D02*
X422960D01*
Y452460D01*
X430230D01*
Y462230D01*
D02*
G37*
G36*
X468230Y444480D02*
X459960D01*
Y436960D01*
X468230D01*
Y444480D01*
D02*
G37*
G36*
X421540Y396730D02*
X414770D01*
Y386960D01*
X421540D01*
Y396730D01*
D02*
G37*
G36*
X412230D02*
X405460D01*
Y386960D01*
X412230D01*
Y396730D01*
D02*
G37*
G36*
X399000Y413500D02*
X374000D01*
Y382500D01*
X374396D01*
Y364108D01*
X374809Y360975D01*
X376018Y358056D01*
X377942Y355549D01*
X383799Y349691D01*
X386306Y347768D01*
X389225Y346559D01*
X392358Y346146D01*
X396500D01*
Y334000D01*
X429000D01*
Y347396D01*
X440250D01*
X443383Y347809D01*
X446302Y349018D01*
X448809Y350942D01*
X450732Y353448D01*
X451941Y356367D01*
X452354Y359500D01*
X451941Y362633D01*
X450732Y365552D01*
X448809Y368059D01*
X446302Y369982D01*
X443383Y371191D01*
X440250Y371604D01*
X429000D01*
Y382500D01*
X399000D01*
Y413500D01*
D02*
G37*
G36*
X424540Y329040D02*
X414020D01*
Y310520D01*
X424540D01*
Y329040D01*
D02*
G37*
G36*
X411480D02*
X400960D01*
Y310520D01*
X411480D01*
Y329040D01*
D02*
G37*
G36*
X424540Y307980D02*
X414020D01*
Y289460D01*
X424540D01*
Y307980D01*
D02*
G37*
G36*
X411480D02*
X400960D01*
Y289460D01*
X411480D01*
Y307980D01*
D02*
G37*
G36*
X214520Y241470D02*
Y237270D01*
X218720D01*
X217947Y239138D01*
X216388Y240697D01*
X214520Y241470D01*
D02*
G37*
G36*
X218720Y234730D02*
X214520D01*
Y230530D01*
X216388Y231303D01*
X217947Y232862D01*
X218720Y234730D01*
D02*
G37*
G36*
X270270Y231220D02*
Y227020D01*
X274470D01*
X273697Y228888D01*
X272138Y230447D01*
X270270Y231220D01*
D02*
G37*
G36*
X267730D02*
X265862Y230447D01*
X264303Y228888D01*
X263530Y227020D01*
X267730D01*
Y231220D01*
D02*
G37*
G36*
X274470Y224480D02*
X270270D01*
Y220280D01*
X272138Y221053D01*
X273697Y222612D01*
X274470Y224480D01*
D02*
G37*
G36*
X267730D02*
X263530D01*
X264303Y222612D01*
X265862Y221053D01*
X267730Y220280D01*
Y224480D01*
D02*
G37*
G36*
X101127Y179250D02*
X98073D01*
X95079Y178654D01*
X92258Y177486D01*
X89719Y175790D01*
X88932Y175002D01*
X86900Y173967D01*
X84868Y175002D01*
X84081Y175790D01*
X81542Y177486D01*
X78721Y178654D01*
X75727Y179250D01*
X72673D01*
X69679Y178654D01*
X66858Y177486D01*
X64319Y175790D01*
X62160Y173631D01*
X60630Y171340D01*
X59401Y171007D01*
X57174Y170989D01*
X55579Y172584D01*
X53061Y174038D01*
X50253Y174790D01*
X50070D01*
Y163750D01*
Y152710D01*
X50253D01*
X53061Y153462D01*
X55579Y154916D01*
X57174Y156511D01*
X59401Y156493D01*
X60630Y156160D01*
X62160Y153869D01*
X64319Y151710D01*
X66858Y150014D01*
X69679Y148846D01*
X72673Y148250D01*
X75727D01*
X78721Y148846D01*
X81542Y150014D01*
X84081Y151710D01*
X84868Y152498D01*
X86900Y153533D01*
X88932Y152498D01*
X89719Y151710D01*
X92258Y150014D01*
X95079Y148846D01*
X98073Y148250D01*
X101127D01*
X104121Y148846D01*
X106942Y150014D01*
X109481Y151710D01*
X111640Y153869D01*
X113336Y156408D01*
X114504Y159229D01*
X115100Y162223D01*
Y165277D01*
X114504Y168271D01*
X113336Y171092D01*
X111640Y173631D01*
X109481Y175790D01*
X106942Y177486D01*
X104121Y178654D01*
X101127Y179250D01*
D02*
G37*
G36*
X24927D02*
X21873D01*
X18879Y178654D01*
X16058Y177486D01*
X13519Y175790D01*
X11360Y173631D01*
X9664Y171092D01*
X8496Y168271D01*
X7900Y165277D01*
Y162223D01*
X8496Y159229D01*
X9664Y156408D01*
X11360Y153869D01*
X13519Y151710D01*
X16058Y150014D01*
X18879Y148846D01*
X21873Y148250D01*
X24927D01*
X27921Y148846D01*
X30742Y150014D01*
X33281Y151710D01*
X35440Y153869D01*
X36970Y156160D01*
X38199Y156493D01*
X40426Y156511D01*
X42021Y154916D01*
X44539Y153462D01*
X47347Y152710D01*
X47530D01*
Y163750D01*
Y174790D01*
X47347D01*
X44539Y174038D01*
X42021Y172584D01*
X40426Y170989D01*
X38199Y171007D01*
X36970Y171340D01*
X35440Y173631D01*
X33281Y175790D01*
X30742Y177486D01*
X27921Y178654D01*
X24927Y179250D01*
D02*
G37*
G36*
X268977Y182000D02*
X266023D01*
X263125Y181423D01*
X260395Y180293D01*
X257938Y178651D01*
X255849Y176562D01*
X254207Y174105D01*
X253076Y171375D01*
X252500Y168477D01*
Y165523D01*
X253076Y162625D01*
X254207Y159895D01*
X255849Y157438D01*
X257938Y155349D01*
X260395Y153707D01*
X263125Y152577D01*
X266023Y152000D01*
X268977D01*
X271875Y152577D01*
X274605Y153707D01*
X277062Y155349D01*
X279151Y157438D01*
X280793Y159895D01*
X281924Y162625D01*
X282500Y165523D01*
Y168477D01*
X281924Y171375D01*
X280793Y174105D01*
X279151Y176562D01*
X277062Y178651D01*
X274605Y180293D01*
X271875Y181423D01*
X268977Y182000D01*
D02*
G37*
G36*
X233977D02*
X231022D01*
X228125Y181423D01*
X225395Y180293D01*
X222938Y178651D01*
X220849Y176562D01*
X219207Y174105D01*
X218076Y171375D01*
X217500Y168477D01*
Y165523D01*
X218076Y162625D01*
X219207Y159895D01*
X220849Y157438D01*
X222938Y155349D01*
X225395Y153707D01*
X228125Y152577D01*
X231022Y152000D01*
X233977D01*
X236875Y152577D01*
X239605Y153707D01*
X242062Y155349D01*
X244151Y157438D01*
X245793Y159895D01*
X246923Y162625D01*
X247500Y165523D01*
Y168477D01*
X246923Y171375D01*
X245793Y174105D01*
X244151Y176562D01*
X242062Y178651D01*
X239605Y180293D01*
X236875Y181423D01*
X233977Y182000D01*
D02*
G37*
G36*
X257770Y652970D02*
Y648770D01*
X261970D01*
X261197Y650638D01*
X259638Y652197D01*
X257770Y652970D01*
D02*
G37*
G36*
X255230D02*
X253362Y652197D01*
X251803Y650638D01*
X251030Y648770D01*
X255230D01*
Y652970D01*
D02*
G37*
G36*
X261970Y646230D02*
X257770D01*
Y642030D01*
X259638Y642803D01*
X261197Y644362D01*
X261970Y646230D01*
D02*
G37*
G36*
X255230D02*
X251030D01*
X251803Y644362D01*
X253362Y642803D01*
X255230Y642030D01*
Y646230D01*
D02*
G37*
G36*
X283676Y570831D02*
Y566631D01*
X287877D01*
X287103Y568499D01*
X285545Y570057D01*
X283676Y570831D01*
D02*
G37*
G36*
X281136D02*
X279268Y570057D01*
X277710Y568499D01*
X276936Y566631D01*
X281136D01*
Y570831D01*
D02*
G37*
G36*
X287877Y564091D02*
X283676D01*
Y559890D01*
X285545Y560664D01*
X287103Y562223D01*
X287877Y564091D01*
D02*
G37*
G36*
X271270Y444970D02*
Y440770D01*
X275470D01*
X274697Y442638D01*
X273138Y444197D01*
X271270Y444970D01*
D02*
G37*
G36*
X268730D02*
X266862Y444197D01*
X265303Y442638D01*
X264530Y440770D01*
X268730D01*
Y444970D01*
D02*
G37*
G36*
X275470Y438230D02*
X271270D01*
Y434030D01*
X273138Y434803D01*
X274697Y436362D01*
X275470Y438230D01*
D02*
G37*
G36*
X268730D02*
X264530D01*
X265303Y436362D01*
X266862Y434803D01*
X268730Y434030D01*
Y438230D01*
D02*
G37*
G36*
X155977Y385000D02*
X153023D01*
X150125Y384424D01*
X147395Y383293D01*
X144938Y381651D01*
X142849Y379562D01*
X141207Y377105D01*
X140077Y374375D01*
X139500Y371477D01*
Y368523D01*
X140077Y365625D01*
X141207Y362895D01*
X142849Y360438D01*
X144938Y358349D01*
X147395Y356707D01*
X150125Y355577D01*
X153023Y355000D01*
X155977D01*
X158875Y355577D01*
X161605Y356707D01*
X164062Y358349D01*
X166151Y360438D01*
X167793Y362895D01*
X168923Y365625D01*
X169500Y368523D01*
Y371477D01*
X168923Y374375D01*
X167793Y377105D01*
X166151Y379562D01*
X164062Y381651D01*
X161605Y383293D01*
X158875Y384424D01*
X155977Y385000D01*
D02*
G37*
G36*
X252319Y352490D02*
X251270D01*
Y330220D01*
X273540D01*
Y331268D01*
X272635Y335816D01*
X270861Y340100D01*
X268285Y343956D01*
X265006Y347235D01*
X261150Y349811D01*
X256866Y351585D01*
X252319Y352490D01*
D02*
G37*
G36*
X248730D02*
X247682D01*
X243134Y351585D01*
X238850Y349811D01*
X234994Y347235D01*
X231715Y343956D01*
X229139Y340100D01*
X227365Y335816D01*
X226460Y331268D01*
Y330220D01*
X248730D01*
Y352490D01*
D02*
G37*
G36*
X273540Y327680D02*
X251270D01*
Y305410D01*
X252319D01*
X256866Y306315D01*
X261150Y308089D01*
X265006Y310665D01*
X268285Y313944D01*
X270861Y317800D01*
X272635Y322084D01*
X273540Y326632D01*
Y327680D01*
D02*
G37*
G36*
X248730D02*
X226460D01*
Y326632D01*
X227365Y322084D01*
X229139Y317800D01*
X231715Y313944D01*
X234994Y310665D01*
X238850Y308089D01*
X243134Y306315D01*
X247682Y305410D01*
X248730D01*
Y327680D01*
D02*
G37*
%LPD*%
D17*
X57250Y379700D02*
X58000Y380450D01*
X140500Y252500D02*
X160250Y272250D01*
X140500Y246750D02*
Y252500D01*
X133750Y240000D02*
X140500Y246750D01*
X160250Y272250D02*
X164750D01*
X159250Y213250D02*
X180750D01*
X58000Y380450D02*
X68864D01*
X72064Y377250D02*
X73000D01*
X68864Y380450D02*
X72064Y377250D01*
X15810Y230250D02*
X100250D01*
X57250Y350300D02*
Y379700D01*
X165000Y272500D02*
Y280250D01*
X164750Y272250D02*
X165000Y272500D01*
X180750Y213250D02*
X200500Y233000D01*
Y258000D01*
X430750Y653659D02*
X431550Y654459D01*
Y779500D01*
X152134Y291334D02*
X154968Y288500D01*
X147916Y291334D02*
X152134D01*
X147750Y291500D02*
X147916Y291334D01*
X124250Y268750D02*
X147000Y291500D01*
X154968Y288500D02*
X170000D01*
X147000Y291500D02*
X147750D01*
X192500Y245250D02*
X193250D01*
X431550Y779500D02*
X431550Y779500D01*
X431550Y779500D02*
Y801500D01*
X433180Y803430D02*
X433480D01*
X431550Y801800D02*
X433180Y803430D01*
X443500Y813450D02*
Y830250D01*
X433480Y803430D02*
X443500Y813450D01*
X431550Y801500D02*
Y801800D01*
X421950Y801500D02*
Y829665D01*
Y779500D02*
Y801500D01*
X170000Y288500D02*
X264702D01*
X170000D02*
X200500Y258000D01*
X85270Y390050D02*
X94000Y398780D01*
Y400500D01*
X56500Y390050D02*
X85270D01*
X57250Y340700D02*
X86300D01*
X94000Y333000D01*
X120500Y316250D02*
Y387711D01*
X107711Y400500D02*
X120500Y387711D01*
Y316250D02*
X125500Y311250D01*
X165000D01*
X120732Y303750D02*
X156500D01*
X113210Y311272D02*
X120732Y303750D01*
X113210Y311272D02*
Y326336D01*
X106546Y333000D02*
X113210Y326336D01*
X94000Y333000D02*
X106546D01*
X94000Y400500D02*
X107711D01*
X100862Y450250D02*
X216500D01*
X79004Y428392D02*
X100862Y450250D01*
X79004Y423690D02*
Y428392D01*
X74750Y419436D02*
X79004Y423690D01*
X74750Y418500D02*
Y419436D01*
X100250Y230250D02*
X150250Y280250D01*
X15500Y268750D02*
X124250D01*
X271000Y504750D02*
Y553250D01*
X216500Y450250D02*
X271000Y504750D01*
X176250Y648000D02*
X271000Y553250D01*
X154500Y648000D02*
X176250D01*
X199500Y397500D02*
X227000Y370000D01*
X300500D01*
X199500Y397500D02*
Y435000D01*
X223750D01*
X300500Y511750D01*
Y583000D01*
X264500D02*
X300500D01*
X199500Y648000D02*
X264500Y583000D01*
X331000Y779500D02*
X421950D01*
X199500Y648000D02*
X331000Y779500D01*
X320250Y648500D02*
X421950Y750200D01*
X320250Y344048D02*
Y648500D01*
X421950Y750200D02*
Y779500D01*
X264702Y288500D02*
X320250Y344048D01*
X421950Y779500D02*
X421950Y779500D01*
X50272Y412055D02*
X58250Y420033D01*
Y493750D01*
X48000Y451500D02*
X50000Y453500D01*
Y505750D01*
X31000Y407750D02*
X31000Y407750D01*
Y451500D01*
X20000Y464407D02*
X28878Y455529D01*
X20000Y464407D02*
Y476750D01*
X31000Y451500D02*
X31000Y451500D01*
D19*
X31000Y407750D02*
D03*
X48000D02*
D03*
X31000Y451500D02*
D03*
X48000D02*
D03*
D20*
X421500Y830250D02*
D03*
X443500D02*
D03*
D21*
X421950Y779500D02*
D03*
X431550D02*
D03*
X421950Y801500D02*
D03*
X431550D02*
D03*
D22*
X94000Y400500D02*
D03*
X94000Y333000D02*
D03*
D23*
X403500Y558450D02*
D03*
Y519050D02*
D03*
D24*
X404500Y433500D02*
D03*
X431500Y433500D02*
D03*
X431500Y463500D02*
D03*
X404500Y463500D02*
D03*
D25*
X465000Y518250D02*
D03*
Y554250D02*
D03*
D26*
X399000Y883250D02*
D03*
X456000D02*
D03*
D27*
X469500Y462750D02*
D03*
Y445750D02*
D03*
D28*
X413500Y398000D02*
D03*
X386500D02*
D03*
D29*
X412750Y309250D02*
D03*
Y358250D02*
D03*
D30*
X57250Y340700D02*
D03*
Y350300D02*
D03*
X56500Y380450D02*
D03*
Y390050D02*
D03*
D50*
X453447Y880697D02*
X456000Y883250D01*
X453447Y863197D02*
Y880697D01*
X422000Y831750D02*
X453447Y863197D01*
X422000Y830750D02*
Y831750D01*
X421500Y830250D02*
X422000Y830750D01*
X37750Y546750D02*
X93250D01*
X143000Y497000D01*
X177250D01*
X435000Y427231D02*
X440231Y422000D01*
X435000Y427231D02*
Y430000D01*
X440231Y422000D02*
X479000D01*
X431500Y433500D02*
X435000Y430000D01*
X479000Y422000D02*
X493000Y436000D01*
Y573000D01*
X444000Y581000D02*
X485000D01*
X493000Y573000D01*
X429250Y566250D02*
X444000Y581000D01*
X403500Y558450D02*
X411300Y566250D01*
X429250D01*
X92000Y484750D02*
X240500D01*
X248250Y492500D01*
X71500Y530000D02*
X80500Y539000D01*
X71500Y505250D02*
Y530000D01*
Y505250D02*
X92000Y484750D01*
X37750Y843250D02*
X79550Y885050D01*
X250000D01*
X333500Y553000D02*
X338950Y558450D01*
X403500D01*
X37750Y640771D02*
Y843250D01*
X397200Y885050D02*
X399000Y883250D01*
X250000Y885050D02*
X397200D01*
X399000Y883250D02*
Y892300D01*
X386800Y519050D02*
X403500D01*
X404300Y518250D01*
X465000D01*
X481250Y502000D01*
Y494250D02*
Y502000D01*
X468750Y463500D02*
X469500Y462750D01*
X450000Y463500D02*
X468750D01*
X404500Y463500D02*
X404500Y463500D01*
X404500Y433500D02*
Y463500D01*
Y433500D02*
X427250Y410750D01*
X442500D01*
D51*
X412750Y359500D02*
X440250D01*
X386500Y364108D02*
Y398000D01*
Y364108D02*
X392358Y358250D01*
X412750D01*
D52*
X431000Y654500D02*
D03*
D53*
X99600Y163750D02*
D03*
X74200D02*
D03*
X48800D02*
D03*
X23400D02*
D03*
D54*
X154500Y648000D02*
D03*
X154500Y583000D02*
D03*
X199500D02*
D03*
Y648000D02*
D03*
X300500Y583000D02*
D03*
Y648000D02*
D03*
X345500D02*
D03*
Y583000D02*
D03*
Y370000D02*
D03*
Y435000D02*
D03*
X300500D02*
D03*
Y370000D02*
D03*
X154500Y435000D02*
D03*
Y370000D02*
D03*
X199500D02*
D03*
Y435000D02*
D03*
X232500Y167000D02*
D03*
X267500D02*
D03*
D55*
X250000Y328950D02*
D03*
D56*
Y885050D02*
D03*
D57*
X73500Y401500D02*
D03*
X270000Y439500D02*
D03*
X256500Y647500D02*
D03*
X282407Y565361D02*
D03*
X159250Y213250D02*
D03*
X15810Y230250D02*
D03*
X73000Y377250D02*
D03*
X213250Y236000D02*
D03*
X200250Y232750D02*
D03*
X69000Y432750D02*
D03*
X74250Y479500D02*
D03*
X177750Y549250D02*
D03*
X474250Y637000D02*
D03*
X359000Y539000D02*
D03*
X269000Y225750D02*
D03*
X165000Y280250D02*
D03*
X147750Y291500D02*
D03*
X154250Y508500D02*
D03*
X193250Y245250D02*
D03*
X200750Y278250D02*
D03*
X150250Y280250D02*
D03*
X15500Y268750D02*
D03*
X74750Y418500D02*
D03*
X248250Y492500D02*
D03*
X80500Y539000D02*
D03*
X333500Y553000D02*
D03*
X37750Y640500D02*
D03*
X165000Y311250D02*
D03*
X156500Y303750D02*
D03*
X37750Y546750D02*
D03*
X177250Y497000D02*
D03*
X58250Y493750D02*
D03*
X50000Y505750D02*
D03*
X20000Y476750D02*
D03*
X481250Y494250D02*
D03*
X450000Y463500D02*
D03*
X442500Y410750D02*
D03*
D58*
X159500Y245750D02*
D03*
X170500D02*
D03*
X159500Y256750D02*
D03*
X170500D02*
D03*
X91000Y516250D02*
D03*
Y505250D02*
D03*
X102000Y516250D02*
D03*
Y505250D02*
D03*
D59*
X440250Y359500D02*
D03*
M02*
