G04*
G04 #@! TF.GenerationSoftware,Altium Limited,Altium Designer,23.1.1 (15)*
G04*
G04 Layer_Color=2752767*
%FSLAX44Y44*%
%MOMM*%
G71*
G04*
G04 #@! TF.SameCoordinates,4FD7E483-A0BE-4EFF-918D-63B1A9DD4886*
G04*
G04*
G04 #@! TF.FilePolarity,Positive*
G04*
G01*
G75*
%ADD116C,0.1270*%
%ADD117C,0.1693*%
D116*
X97060Y161210D02*
Y158670D01*
X102140D01*
Y161210D01*
X104680D01*
Y166290D01*
X102140D01*
Y168830D01*
X97060D01*
Y166290D01*
X94520D01*
Y161210D01*
X97060D01*
X71660D02*
Y158670D01*
X76740D01*
Y161210D01*
X79280D01*
Y166290D01*
X76740D01*
Y168830D01*
X71660D01*
Y166290D01*
X69120D01*
Y161210D01*
X71660D01*
X46260D02*
Y158670D01*
X51340D01*
Y161210D01*
X53880D01*
Y166290D01*
X51340D01*
Y168830D01*
X46260D01*
Y166290D01*
X43720D01*
Y161210D01*
X46260D01*
X20860D02*
Y158670D01*
X25940D01*
Y161210D01*
X28480D01*
Y166290D01*
X25940D01*
Y168830D01*
X20860D01*
Y166290D01*
X18320D01*
Y161210D01*
X20860D01*
X244920Y323870D02*
Y334030D01*
X255080D01*
Y323870D01*
X244920D01*
Y879970D02*
Y890130D01*
X255080D01*
Y879970D01*
X244920D01*
X68420Y396420D02*
X70960Y401500D01*
X68420Y406580D01*
X73500Y404040D01*
X78580Y406580D01*
X76040Y401500D01*
X78580Y396420D01*
X73500Y398960D01*
X68420Y396420D01*
X264920Y434420D02*
X267460Y439500D01*
X264920Y444580D01*
X270000Y442040D01*
X275080Y444580D01*
X272540Y439500D01*
X275080Y434420D01*
X270000Y436960D01*
X264920Y434420D01*
X251420Y642420D02*
X253960Y647500D01*
X251420Y652580D01*
X256500Y650040D01*
X261580Y652580D01*
X259040Y647500D01*
X261580Y642420D01*
X256500Y644960D01*
X251420Y642420D01*
X277327Y560281D02*
X279867Y565361D01*
X277327Y570441D01*
X282407Y567901D01*
X287486Y570441D01*
X284946Y565361D01*
X287486Y560281D01*
X282407Y562821D01*
X277327Y560281D01*
X154170Y208170D02*
X156710Y213250D01*
X154170Y218330D01*
X159250Y215790D01*
X164330Y218330D01*
X161790Y213250D01*
X164330Y208170D01*
X159250Y210710D01*
X154170Y208170D01*
X10730Y225170D02*
X13270Y230250D01*
X10730Y235330D01*
X15810Y232790D01*
X20890Y235330D01*
X18350Y230250D01*
X20890Y225170D01*
X15810Y227710D01*
X10730Y225170D01*
X67920Y372170D02*
X70460Y377250D01*
X67920Y382330D01*
X73000Y379790D01*
X78080Y382330D01*
X75540Y377250D01*
X78080Y372170D01*
X73000Y374710D01*
X67920Y372170D01*
X208170Y230920D02*
X210710Y236000D01*
X208170Y241080D01*
X213250Y238540D01*
X218330Y241080D01*
X215790Y236000D01*
X218330Y230920D01*
X213250Y233460D01*
X208170Y230920D01*
X195170Y227670D02*
X197710Y232750D01*
X195170Y237830D01*
X200250Y235290D01*
X205330Y237830D01*
X202790Y232750D01*
X205330Y227670D01*
X200250Y230210D01*
X195170Y227670D01*
X63920Y427670D02*
X66460Y432750D01*
X63920Y437830D01*
X69000Y435290D01*
X74080Y437830D01*
X71540Y432750D01*
X74080Y427670D01*
X69000Y430210D01*
X63920Y427670D01*
X69170Y474420D02*
X71710Y479500D01*
X69170Y484580D01*
X74250Y482040D01*
X79330Y484580D01*
X76790Y479500D01*
X79330Y474420D01*
X74250Y476960D01*
X69170Y474420D01*
X172670Y544170D02*
X175210Y549250D01*
X172670Y554330D01*
X177750Y551790D01*
X182830Y554330D01*
X180290Y549250D01*
X182830Y544170D01*
X177750Y546710D01*
X172670Y544170D01*
X469170Y631920D02*
X471710Y637000D01*
X469170Y642080D01*
X474250Y639540D01*
X479330Y642080D01*
X476790Y637000D01*
X479330Y631920D01*
X474250Y634460D01*
X469170Y631920D01*
X353920Y533920D02*
X356460Y539000D01*
X353920Y544080D01*
X359000Y541540D01*
X364080Y544080D01*
X361540Y539000D01*
X364080Y533920D01*
X359000Y536460D01*
X353920Y533920D01*
X263920Y220670D02*
X266460Y225750D01*
X263920Y230830D01*
X269000Y228290D01*
X274080Y230830D01*
X271540Y225750D01*
X274080Y220670D01*
X269000Y223210D01*
X263920Y220670D01*
X159920Y275170D02*
X162460Y280250D01*
X159920Y285330D01*
X165000Y282790D01*
X170080Y285330D01*
X167540Y280250D01*
X170080Y275170D01*
X165000Y277710D01*
X159920Y275170D01*
X142670Y286420D02*
X145210Y291500D01*
X142670Y296580D01*
X147750Y294040D01*
X152830Y296580D01*
X150290Y291500D01*
X152830Y286420D01*
X147750Y288960D01*
X142670Y286420D01*
X149170Y503420D02*
X151710Y508500D01*
X149170Y513580D01*
X154250Y511040D01*
X159330Y513580D01*
X156790Y508500D01*
X159330Y503420D01*
X154250Y505960D01*
X149170Y503420D01*
X188170Y240170D02*
X190710Y245250D01*
X188170Y250330D01*
X193250Y247790D01*
X198330Y250330D01*
X195790Y245250D01*
X198330Y240170D01*
X193250Y242710D01*
X188170Y240170D01*
X195670Y273170D02*
X198210Y278250D01*
X195670Y283330D01*
X200750Y280790D01*
X205830Y283330D01*
X203290Y278250D01*
X205830Y273170D01*
X200750Y275710D01*
X195670Y273170D01*
X145170Y275170D02*
X147710Y280250D01*
X145170Y285330D01*
X150250Y282790D01*
X155330Y285330D01*
X152790Y280250D01*
X155330Y275170D01*
X150250Y277710D01*
X145170Y275170D01*
X10420Y263670D02*
X12960Y268750D01*
X10420Y273830D01*
X15500Y271290D01*
X20580Y273830D01*
X18040Y268750D01*
X20580Y263670D01*
X15500Y266210D01*
X10420Y263670D01*
X69670Y413420D02*
X72210Y418500D01*
X69670Y423580D01*
X74750Y421040D01*
X79830Y423580D01*
X77290Y418500D01*
X79830Y413420D01*
X74750Y415960D01*
X69670Y413420D01*
X243170Y487420D02*
X245710Y492500D01*
X243170Y497580D01*
X248250Y495040D01*
X253330Y497580D01*
X250790Y492500D01*
X253330Y487420D01*
X248250Y489960D01*
X243170Y487420D01*
X75420Y533920D02*
X77960Y539000D01*
X75420Y544080D01*
X80500Y541540D01*
X85580Y544080D01*
X83040Y539000D01*
X85580Y533920D01*
X80500Y536460D01*
X75420Y533920D01*
X328420Y547920D02*
X330960Y553000D01*
X328420Y558080D01*
X333500Y555540D01*
X338580Y558080D01*
X336040Y553000D01*
X338580Y547920D01*
X333500Y550460D01*
X328420Y547920D01*
X32670Y635420D02*
X35210Y640500D01*
X32670Y645580D01*
X37750Y643040D01*
X42830Y645580D01*
X40290Y640500D01*
X42830Y635420D01*
X37750Y637960D01*
X32670Y635420D01*
X159920Y306170D02*
X162460Y311250D01*
X159920Y316330D01*
X165000Y313790D01*
X170080Y316330D01*
X167540Y311250D01*
X170080Y306170D01*
X165000Y308710D01*
X159920Y306170D01*
X151420Y298670D02*
X153960Y303750D01*
X151420Y308830D01*
X156500Y306290D01*
X161580Y308830D01*
X159040Y303750D01*
X161580Y298670D01*
X156500Y301210D01*
X151420Y298670D01*
X159500Y240670D02*
X154420Y250830D01*
X164580D01*
X159500Y240670D01*
X170500D02*
X165420Y250830D01*
X175580D01*
X170500Y240670D01*
X159500Y251670D02*
X154420Y261830D01*
X164580D01*
X159500Y251670D01*
X170500D02*
X165420Y261830D01*
X175580D01*
X170500Y251670D01*
X32670Y541670D02*
X35210Y546750D01*
X32670Y551830D01*
X37750Y549290D01*
X42830Y551830D01*
X40290Y546750D01*
X42830Y541670D01*
X37750Y544210D01*
X32670Y541670D01*
X172170Y491920D02*
X174710Y497000D01*
X172170Y502080D01*
X177250Y499540D01*
X182330Y502080D01*
X179790Y497000D01*
X182330Y491920D01*
X177250Y494460D01*
X172170Y491920D01*
X53170Y488670D02*
X55710Y493750D01*
X53170Y498830D01*
X58250Y496290D01*
X63330Y498830D01*
X60790Y493750D01*
X63330Y488670D01*
X58250Y491210D01*
X53170Y488670D01*
X44920Y500670D02*
X47460Y505750D01*
X44920Y510830D01*
X50000Y508290D01*
X55080Y510830D01*
X52540Y505750D01*
X55080Y500670D01*
X50000Y503210D01*
X44920Y500670D01*
X14920Y471670D02*
X17460Y476750D01*
X14920Y481830D01*
X20000Y479290D01*
X25080Y481830D01*
X22540Y476750D01*
X25080Y471670D01*
X20000Y474210D01*
X14920Y471670D01*
X91000Y511170D02*
X85920Y521330D01*
X96080D01*
X91000Y511170D01*
Y500170D02*
X85920Y510330D01*
X96080D01*
X91000Y500170D01*
X102000Y511170D02*
X96920Y521330D01*
X107080D01*
X102000Y511170D01*
Y500170D02*
X96920Y510330D01*
X107080D01*
X102000Y500170D01*
X476170Y489170D02*
X478710Y494250D01*
X476170Y499330D01*
X481250Y496790D01*
X486330Y499330D01*
X483790Y494250D01*
X486330Y489170D01*
X481250Y491710D01*
X476170Y489170D01*
X444920Y458420D02*
X447460Y463500D01*
X444920Y468580D01*
X450000Y466040D01*
X455080Y468580D01*
X452540Y463500D01*
X455080Y458420D01*
X450000Y460960D01*
X444920Y458420D01*
X437420Y405670D02*
X439960Y410750D01*
X437420Y415830D01*
X442500Y413290D01*
X447580Y415830D01*
X445040Y410750D01*
X447580Y405670D01*
X442500Y408210D01*
X437420Y405670D01*
X440250Y354420D02*
X442790Y356960D01*
X445330D01*
X442790Y359500D01*
X445330Y362040D01*
X442790D01*
X440250Y364580D01*
X437710Y362040D01*
X435170D01*
X437710Y359500D01*
X435170Y356960D01*
X437710D01*
X440250Y354420D01*
D117*
X159580Y648000D02*
G03*
X159580Y648000I-5080J0D01*
G01*
X159580Y583000D02*
G03*
X159580Y583000I-5080J0D01*
G01*
X204580D02*
G03*
X204580Y583000I-5080J0D01*
G01*
Y648000D02*
G03*
X204580Y648000I-5080J0D01*
G01*
X305580Y583000D02*
G03*
X305580Y583000I-5080J0D01*
G01*
Y648000D02*
G03*
X305580Y648000I-5080J0D01*
G01*
X350580D02*
G03*
X350580Y648000I-5080J0D01*
G01*
Y583000D02*
G03*
X350580Y583000I-5080J0D01*
G01*
Y370000D02*
G03*
X350580Y370000I-5080J0D01*
G01*
Y435000D02*
G03*
X350580Y435000I-5080J0D01*
G01*
X305580D02*
G03*
X305580Y435000I-5080J0D01*
G01*
Y370000D02*
G03*
X305580Y370000I-5080J0D01*
G01*
X159580Y435000D02*
G03*
X159580Y435000I-5080J0D01*
G01*
Y370000D02*
G03*
X159580Y370000I-5080J0D01*
G01*
X204580D02*
G03*
X204580Y370000I-5080J0D01*
G01*
Y435000D02*
G03*
X204580Y435000I-5080J0D01*
G01*
X237580Y167000D02*
G03*
X237580Y167000I-5080J0D01*
G01*
X272580D02*
G03*
X272580Y167000I-5080J0D01*
G01*
M02*
