G04*
G04 #@! TF.GenerationSoftware,Altium Limited,Altium Designer,23.1.1 (15)*
G04*
G04 Layer_Color=8388736*
%FSLAX44Y44*%
%MOMM*%
G71*
G04*
G04 #@! TF.SameCoordinates,4FD7E483-A0BE-4EFF-918D-63B1A9DD4886*
G04*
G04*
G04 #@! TF.FilePolarity,Negative*
G04*
G01*
G75*
%ADD31R,1.0032X1.4032*%
%ADD32R,0.8032X1.0032*%
%ADD33R,0.7832X0.8432*%
%ADD34R,2.2032X5.7032*%
%ADD35R,5.5232X2.2632*%
%ADD36R,1.4032X1.9032*%
%ADD37R,2.3032X2.2032*%
%ADD38R,1.3032X3.5032*%
%ADD39R,1.6032X1.4532*%
%ADD40R,1.3032X1.9032*%
%ADD41R,2.0532X3.6532*%
%ADD42R,0.8432X0.7832*%
%ADD43C,1.9032*%
%ADD44C,1.8032*%
%ADD45C,4.4032*%
%ADD46R,4.4032X4.4032*%
%ADD47C,0.8032*%
%ADD48C,0.7032*%
%ADD49C,1.0032*%
D31*
X31000Y407750D02*
D03*
X48000D02*
D03*
X31000Y451500D02*
D03*
X48000D02*
D03*
D32*
X421500Y830250D02*
D03*
X443500D02*
D03*
D33*
X421950Y779500D02*
D03*
X431550D02*
D03*
X421950Y801500D02*
D03*
X431550D02*
D03*
D34*
X94000Y400500D02*
D03*
X94000Y333000D02*
D03*
D35*
X403500Y558450D02*
D03*
Y519050D02*
D03*
D36*
X404500Y433500D02*
D03*
X431500Y433500D02*
D03*
X431500Y463500D02*
D03*
X404500Y463500D02*
D03*
D37*
X465000Y518250D02*
D03*
Y554250D02*
D03*
D38*
X399000Y883250D02*
D03*
X456000D02*
D03*
D39*
X469500Y462750D02*
D03*
Y445750D02*
D03*
D40*
X413500Y398000D02*
D03*
X386500D02*
D03*
D41*
X412750Y309250D02*
D03*
Y358250D02*
D03*
D42*
X57250Y340700D02*
D03*
Y350300D02*
D03*
X56500Y380450D02*
D03*
Y390050D02*
D03*
D43*
X99600Y163750D02*
D03*
X74200D02*
D03*
X48800D02*
D03*
X23400D02*
D03*
D44*
X154500Y648000D02*
D03*
X154500Y583000D02*
D03*
X199500D02*
D03*
Y648000D02*
D03*
X300500Y583000D02*
D03*
Y648000D02*
D03*
X345500D02*
D03*
Y583000D02*
D03*
Y370000D02*
D03*
Y435000D02*
D03*
X300500D02*
D03*
Y370000D02*
D03*
X154500Y435000D02*
D03*
Y370000D02*
D03*
X199500D02*
D03*
Y435000D02*
D03*
X232500Y167000D02*
D03*
X267500D02*
D03*
D45*
X250000Y328950D02*
D03*
D46*
Y885050D02*
D03*
D47*
X73500Y401500D02*
D03*
X270000Y439500D02*
D03*
X256500Y647500D02*
D03*
X282407Y565361D02*
D03*
X159250Y213250D02*
D03*
X15810Y230250D02*
D03*
X73000Y377250D02*
D03*
X213250Y236000D02*
D03*
X200250Y232750D02*
D03*
X69000Y432750D02*
D03*
X74250Y479500D02*
D03*
X177750Y549250D02*
D03*
X474250Y637000D02*
D03*
X359000Y539000D02*
D03*
X269000Y225750D02*
D03*
X165000Y280250D02*
D03*
X147750Y291500D02*
D03*
X154250Y508500D02*
D03*
X193250Y245250D02*
D03*
X200750Y278250D02*
D03*
X150250Y280250D02*
D03*
X15500Y268750D02*
D03*
X74750Y418500D02*
D03*
X248250Y492500D02*
D03*
X80500Y539000D02*
D03*
X333500Y553000D02*
D03*
X37750Y640500D02*
D03*
X165000Y311250D02*
D03*
X156500Y303750D02*
D03*
X37750Y546750D02*
D03*
X177250Y497000D02*
D03*
X58250Y493750D02*
D03*
X50000Y505750D02*
D03*
X20000Y476750D02*
D03*
X481250Y494250D02*
D03*
X450000Y463500D02*
D03*
X442500Y410750D02*
D03*
D48*
X159500Y245750D02*
D03*
X170500D02*
D03*
X159500Y256750D02*
D03*
X170500D02*
D03*
X91000Y516250D02*
D03*
Y505250D02*
D03*
X102000Y516250D02*
D03*
Y505250D02*
D03*
D49*
X440250Y359500D02*
D03*
M02*
