G04*
G04 #@! TF.GenerationSoftware,Altium Limited,Altium Designer,23.1.1 (15)*
G04*
G04 Layer_Color=16711935*
%FSLAX44Y44*%
%MOMM*%
G71*
G04*
G04 #@! TF.SameCoordinates,4FD7E483-A0BE-4EFF-918D-63B1A9DD4886*
G04*
G04*
G04 #@! TF.FilePolarity,Negative*
G04*
G01*
G75*
%ADD33R,0.7832X0.8432*%
%ADD36R,1.4032X1.9032*%
%ADD39R,1.6032X1.4532*%
%ADD40R,1.3032X1.9032*%
%ADD41R,2.0532X3.6532*%
%ADD42R,0.8432X0.7832*%
%ADD43C,1.9032*%
%ADD44C,1.8032*%
%ADD45C,4.4032*%
%ADD46R,4.4032X4.4032*%
%ADD47C,0.8032*%
%ADD48C,0.7032*%
%ADD49C,1.0032*%
%ADD93R,0.7832X0.8232*%
%ADD94R,0.7032X0.7232*%
%ADD95R,2.5032X1.4532*%
%ADD96R,1.8032X1.4532*%
%ADD97R,0.7532X0.8032*%
%ADD98R,0.8232X0.7832*%
%ADD99R,1.0532X0.4532*%
%ADD100R,0.4532X1.0532*%
%ADD101R,2.8032X2.8032*%
%ADD102R,1.5532X0.6032*%
%ADD103R,1.0032X1.2032*%
%ADD104R,0.5032X1.3032*%
%ADD105R,1.3032X0.5032*%
%ADD106R,2.3032X2.3032*%
%ADD107R,1.4532X1.8032*%
%ADD108R,1.9032X1.8532*%
%ADD109R,2.2032X2.3032*%
%ADD110R,1.0532X1.1032*%
%ADD111R,0.8032X1.6532*%
%ADD112R,1.6032X5.4032*%
%ADD113R,1.9032X1.4032*%
D33*
X185700Y182250D02*
D03*
X195300D02*
D03*
X152200Y182500D02*
D03*
X161800D02*
D03*
D36*
X35500Y312000D02*
D03*
X62500D02*
D03*
X212250Y468250D02*
D03*
X185250D02*
D03*
X65000Y607000D02*
D03*
X38000D02*
D03*
X64750Y575750D02*
D03*
X37750Y575750D02*
D03*
X399250Y397000D02*
D03*
X426250D02*
D03*
X40750Y341000D02*
D03*
X13750D02*
D03*
D39*
X72750Y465750D02*
D03*
Y448750D02*
D03*
D40*
X288750Y209000D02*
D03*
X315750D02*
D03*
D41*
X316250Y533000D02*
D03*
Y484000D02*
D03*
D42*
X149750Y204800D02*
D03*
Y195200D02*
D03*
X192750Y310050D02*
D03*
Y300450D02*
D03*
X206250Y290700D02*
D03*
Y300300D02*
D03*
D43*
X99600Y163750D02*
D03*
X74200D02*
D03*
X48800D02*
D03*
X23400D02*
D03*
D44*
X154500Y648000D02*
D03*
X154500Y583000D02*
D03*
X199500D02*
D03*
Y648000D02*
D03*
X300500Y583000D02*
D03*
Y648000D02*
D03*
X345500D02*
D03*
Y583000D02*
D03*
Y370000D02*
D03*
Y435000D02*
D03*
X300500D02*
D03*
Y370000D02*
D03*
X154500Y435000D02*
D03*
Y370000D02*
D03*
X199500D02*
D03*
Y435000D02*
D03*
X232500Y167000D02*
D03*
X267500D02*
D03*
D45*
X250000Y328950D02*
D03*
D46*
Y885050D02*
D03*
D47*
X73500Y401500D02*
D03*
X270000Y439500D02*
D03*
X256500Y647500D02*
D03*
X282407Y565361D02*
D03*
X159250Y213250D02*
D03*
X15810Y230250D02*
D03*
X73000Y377250D02*
D03*
X213250Y236000D02*
D03*
X200250Y232750D02*
D03*
X69000Y432750D02*
D03*
X74250Y479500D02*
D03*
X177750Y549250D02*
D03*
X474250Y637000D02*
D03*
X359000Y539000D02*
D03*
X269000Y225750D02*
D03*
X165000Y280250D02*
D03*
X147750Y291500D02*
D03*
X154250Y508500D02*
D03*
X193250Y245250D02*
D03*
X200750Y278250D02*
D03*
X150250Y280250D02*
D03*
X15500Y268750D02*
D03*
X74750Y418500D02*
D03*
X248250Y492500D02*
D03*
X80500Y539000D02*
D03*
X333500Y553000D02*
D03*
X37750Y640500D02*
D03*
X165000Y311250D02*
D03*
X156500Y303750D02*
D03*
X37750Y546750D02*
D03*
X177250Y497000D02*
D03*
X58250Y493750D02*
D03*
X50000Y505750D02*
D03*
X20000Y476750D02*
D03*
X481250Y494250D02*
D03*
X450000Y463500D02*
D03*
X442500Y410750D02*
D03*
D48*
X159500Y245750D02*
D03*
X170500D02*
D03*
X159500Y256750D02*
D03*
X170500D02*
D03*
X91000Y516250D02*
D03*
Y505250D02*
D03*
X102000Y516250D02*
D03*
Y505250D02*
D03*
D49*
X440250Y359500D02*
D03*
D93*
X220900Y262250D02*
D03*
X211100D02*
D03*
X221650Y276750D02*
D03*
X211850D02*
D03*
D94*
X136250Y127750D02*
D03*
X155250D02*
D03*
D95*
X478250Y359750D02*
D03*
Y307750D02*
D03*
X390250Y359750D02*
D03*
Y307750D02*
D03*
D96*
X16250Y529000D02*
D03*
X43750D02*
D03*
D97*
X181500Y212750D02*
D03*
Y203750D02*
D03*
D98*
X220750Y300150D02*
D03*
Y290350D02*
D03*
D99*
X146000Y241250D02*
D03*
Y246250D02*
D03*
Y251250D02*
D03*
Y256250D02*
D03*
Y261250D02*
D03*
X184000D02*
D03*
Y256250D02*
D03*
Y251250D02*
D03*
Y246250D02*
D03*
Y241250D02*
D03*
D100*
X155000Y270250D02*
D03*
X160000D02*
D03*
X165000D02*
D03*
X170000D02*
D03*
X175000D02*
D03*
Y232250D02*
D03*
X170000D02*
D03*
X165000D02*
D03*
X160000D02*
D03*
X155000D02*
D03*
D101*
X165000Y251250D02*
D03*
D102*
X36000Y223250D02*
D03*
Y229750D02*
D03*
Y236250D02*
D03*
Y242750D02*
D03*
Y249250D02*
D03*
Y255750D02*
D03*
Y262250D02*
D03*
Y268750D02*
D03*
Y275250D02*
D03*
Y281750D02*
D03*
X93500Y223250D02*
D03*
X93500Y229750D02*
D03*
Y236250D02*
D03*
X93500Y242750D02*
D03*
X93500Y249250D02*
D03*
Y255750D02*
D03*
X93500Y262250D02*
D03*
X93500Y268750D02*
D03*
Y275250D02*
D03*
X93500Y281750D02*
D03*
D103*
X35250Y489250D02*
D03*
X45750Y489250D02*
D03*
D104*
X86750Y528750D02*
D03*
X93250D02*
D03*
X99750Y528750D02*
D03*
X106250Y528750D02*
D03*
Y492750D02*
D03*
X99750Y492750D02*
D03*
X93250D02*
D03*
X86750Y492750D02*
D03*
D105*
X114500Y520500D02*
D03*
Y514000D02*
D03*
Y507500D02*
D03*
Y501000D02*
D03*
X78500Y501000D02*
D03*
Y507500D02*
D03*
Y514000D02*
D03*
Y520500D02*
D03*
D106*
X96500Y510750D02*
D03*
D107*
X87500Y579500D02*
D03*
X87500Y607000D02*
D03*
X18500Y579500D02*
D03*
Y607000D02*
D03*
D108*
X119250Y593000D02*
D03*
X119250Y552500D02*
D03*
D109*
X144500Y528500D02*
D03*
X180500Y528500D02*
D03*
D110*
X35000Y506250D02*
D03*
X20000D02*
D03*
D111*
X446050Y437250D02*
D03*
X433350Y437250D02*
D03*
X420650Y437250D02*
D03*
X407950D02*
D03*
X446050Y491750D02*
D03*
X433350Y491750D02*
D03*
X420650Y491750D02*
D03*
X407950D02*
D03*
D112*
X277250Y267750D02*
D03*
X327250Y267750D02*
D03*
D113*
X279250Y417500D02*
D03*
Y390500D02*
D03*
M02*
