G04*
G04 #@! TF.GenerationSoftware,Altium Limited,Altium Designer,23.1.1 (15)*
G04*
G04 Layer_Color=128*
%FSLAX44Y44*%
%MOMM*%
G71*
G04*
G04 #@! TF.SameCoordinates,4FD7E483-A0BE-4EFF-918D-63B1A9DD4886*
G04*
G04*
G04 #@! TF.FilePolarity,Positive*
G04*
G01*
G75*
%ADD116C,0.1270*%
D116*
X94100Y163750D02*
X105100D01*
X99600Y158250D02*
Y169250D01*
X68700Y163750D02*
X79700D01*
X74200Y158250D02*
Y169250D01*
X43300Y163750D02*
X54300D01*
X48800Y158250D02*
Y169250D01*
X17900Y163750D02*
X28900D01*
X23400Y158250D02*
Y169250D01*
X149500Y648000D02*
X159500D01*
X154500Y643000D02*
Y653000D01*
X149500Y583000D02*
X159500D01*
X154500Y578000D02*
Y588000D01*
X194500Y583000D02*
X204500D01*
X199500Y578000D02*
Y588000D01*
X194500Y648000D02*
X204500D01*
X199500Y643000D02*
Y653000D01*
X295500Y583000D02*
X305500D01*
X300500Y578000D02*
Y588000D01*
X295500Y648000D02*
X305500D01*
X300500Y643000D02*
Y653000D01*
X340500Y648000D02*
X350500D01*
X345500Y643000D02*
Y653000D01*
X340500Y583000D02*
X350500D01*
X345500Y578000D02*
Y588000D01*
X340500Y370000D02*
X350500D01*
X345500Y365000D02*
Y375000D01*
X340500Y435000D02*
X350500D01*
X345500Y430000D02*
Y440000D01*
X295500Y435000D02*
X305500D01*
X300500Y430000D02*
Y440000D01*
X295500Y370000D02*
X305500D01*
X300500Y365000D02*
Y375000D01*
X149500Y435000D02*
X159500D01*
X154500Y430000D02*
Y440000D01*
X149500Y370000D02*
X159500D01*
X154500Y365000D02*
Y375000D01*
X194500Y370000D02*
X204500D01*
X199500Y365000D02*
Y375000D01*
X194500Y435000D02*
X204500D01*
X199500Y430000D02*
Y440000D01*
X232000Y328950D02*
X268000D01*
X250000Y310950D02*
Y346950D01*
X232000Y885050D02*
X268000D01*
X250000Y867050D02*
Y903050D01*
X227500Y167000D02*
X237500D01*
X232500Y162000D02*
Y172000D01*
X262500Y167000D02*
X272500D01*
X267500Y162000D02*
Y172000D01*
X72000Y401500D02*
X75000D01*
X73500Y400000D02*
Y403000D01*
X268500Y439500D02*
X271500D01*
X270000Y438000D02*
Y441000D01*
X255000Y647500D02*
X258000D01*
X256500Y646000D02*
Y649000D01*
X280907Y565361D02*
X283906D01*
X282407Y563861D02*
Y566861D01*
X157750Y213250D02*
X160750D01*
X159250Y211750D02*
Y214750D01*
X14310Y230250D02*
X17310D01*
X15810Y228750D02*
Y231750D01*
X71500Y377250D02*
X74500D01*
X73000Y375750D02*
Y378750D01*
X211750Y236000D02*
X214750D01*
X213250Y234500D02*
Y237500D01*
X198750Y232750D02*
X201750D01*
X200250Y231250D02*
Y234250D01*
X67500Y432750D02*
X70500D01*
X69000Y431250D02*
Y434250D01*
X72750Y479500D02*
X75750D01*
X74250Y478000D02*
Y481000D01*
X176250Y549250D02*
X179250D01*
X177750Y547750D02*
Y550750D01*
X472750Y637000D02*
X475750D01*
X474250Y635500D02*
Y638500D01*
X357500Y539000D02*
X360500D01*
X359000Y537500D02*
Y540500D01*
X267500Y225750D02*
X270500D01*
X269000Y224250D02*
Y227250D01*
X163500Y280250D02*
X166500D01*
X165000Y278750D02*
Y281750D01*
X146250Y291500D02*
X149250D01*
X147750Y290000D02*
Y293000D01*
X152750Y508500D02*
X155750D01*
X154250Y507000D02*
Y510000D01*
X191750Y245250D02*
X194750D01*
X193250Y243750D02*
Y246750D01*
X199250Y278250D02*
X202250D01*
X200750Y276750D02*
Y279750D01*
X148750Y280250D02*
X151750D01*
X150250Y278750D02*
Y281750D01*
X14000Y268750D02*
X17000D01*
X15500Y267250D02*
Y270250D01*
X73250Y418500D02*
X76250D01*
X74750Y417000D02*
Y420000D01*
X246750Y492500D02*
X249750D01*
X248250Y491000D02*
Y494000D01*
X79000Y539000D02*
X82000D01*
X80500Y537500D02*
Y540500D01*
X332000Y553000D02*
X335000D01*
X333500Y551500D02*
Y554500D01*
X36250Y640500D02*
X39250D01*
X37750Y639000D02*
Y642000D01*
X163500Y311250D02*
X166500D01*
X165000Y309750D02*
Y312750D01*
X155000Y303750D02*
X158000D01*
X156500Y302250D02*
Y305250D01*
X158500Y245750D02*
X160500D01*
X159500Y244750D02*
Y246750D01*
X169500Y245750D02*
X171500D01*
X170500Y244750D02*
Y246750D01*
X158500Y256750D02*
X160500D01*
X159500Y255750D02*
Y257750D01*
X169500Y256750D02*
X171500D01*
X170500Y255750D02*
Y257750D01*
X36250Y546750D02*
X39250D01*
X37750Y545250D02*
Y548250D01*
X175750Y497000D02*
X178750D01*
X177250Y495500D02*
Y498500D01*
X56750Y493750D02*
X59750D01*
X58250Y492250D02*
Y495250D01*
X48500Y505750D02*
X51500D01*
X50000Y504250D02*
Y507250D01*
X18500Y476750D02*
X21500D01*
X20000Y475250D02*
Y478250D01*
X90000Y516250D02*
X92000D01*
X91000Y515250D02*
Y517250D01*
X90000Y505250D02*
X92000D01*
X91000Y504250D02*
Y506250D01*
X101000Y516250D02*
X103000D01*
X102000Y515250D02*
Y517250D01*
X101000Y505250D02*
X103000D01*
X102000Y504250D02*
Y506250D01*
X479750Y494250D02*
X482750D01*
X481250Y492750D02*
Y495750D01*
X448500Y463500D02*
X451500D01*
X450000Y462000D02*
Y465000D01*
X441000Y410750D02*
X444000D01*
X442500Y409250D02*
Y412250D01*
X437250Y359500D02*
X443250D01*
X440250Y356500D02*
Y362500D01*
M02*
