G04*
G04 #@! TF.GenerationSoftware,Altium Limited,Altium Designer,23.1.1 (15)*
G04*
G04 Layer_Color=8421504*
%FSLAX44Y44*%
%MOMM*%
G71*
G04*
G04 #@! TF.SameCoordinates,4FD7E483-A0BE-4EFF-918D-63B1A9DD4886*
G04*
G04*
G04 #@! TF.FilePolarity,Positive*
G04*
G01*
G75*
%ADD19R,0.8000X1.2000*%
%ADD20R,0.6000X0.8000*%
%ADD21R,0.5800X0.6400*%
%ADD22R,2.0000X5.5000*%
%ADD23R,5.3200X2.0600*%
%ADD24R,1.2000X1.7000*%
%ADD25R,2.1000X2.0000*%
%ADD26R,1.1000X3.3000*%
%ADD27R,1.4000X1.2500*%
%ADD28R,1.1000X1.7000*%
%ADD29R,1.8500X3.4500*%
%ADD30R,0.6400X0.5800*%
D19*
X31000Y407750D02*
D03*
X48000D02*
D03*
X31000Y451500D02*
D03*
X48000D02*
D03*
D20*
X421500Y830250D02*
D03*
X443500D02*
D03*
D21*
X421950Y779500D02*
D03*
X431550D02*
D03*
X421950Y801500D02*
D03*
X431550D02*
D03*
D22*
X94000Y400500D02*
D03*
X94000Y333000D02*
D03*
D23*
X403500Y558450D02*
D03*
Y519050D02*
D03*
D24*
X404500Y433500D02*
D03*
X431500Y433500D02*
D03*
X431500Y463500D02*
D03*
X404500Y463500D02*
D03*
D25*
X465000Y518250D02*
D03*
Y554250D02*
D03*
D26*
X399000Y883250D02*
D03*
X456000D02*
D03*
D27*
X469500Y462750D02*
D03*
Y445750D02*
D03*
D28*
X413500Y398000D02*
D03*
X386500D02*
D03*
D29*
X412750Y309250D02*
D03*
Y358250D02*
D03*
D30*
X57250Y340700D02*
D03*
Y350300D02*
D03*
X56500Y380450D02*
D03*
Y390050D02*
D03*
M02*
