G04*
G04 #@! TF.GenerationSoftware,Altium Limited,Altium Designer,23.1.1 (15)*
G04*
G04 Layer_Color=65535*
%FSLAX44Y44*%
%MOMM*%
G71*
G04*
G04 #@! TF.SameCoordinates,4FD7E483-A0BE-4EFF-918D-63B1A9DD4886*
G04*
G04*
G04 #@! TF.FilePolarity,Positive*
G04*
G01*
G75*
%ADD10C,0.1000*%
%ADD11C,0.0600*%
%ADD12C,0.2500*%
%ADD13C,0.2000*%
%ADD14C,0.0400*%
%ADD15C,0.2560*%
%ADD16C,0.4000*%
%ADD17C,0.2540*%
%ADD18C,0.1500*%
D10*
X54621Y399629D02*
G03*
X54621Y399629I-500J0D01*
G01*
Y443379D02*
G03*
X54621Y443379I-500J0D01*
G01*
X12250Y157625D02*
Y169875D01*
X110750Y157625D02*
Y169875D01*
X17250Y174875D02*
X105750D01*
X17250Y152625D02*
X105750D01*
X12250Y157625D02*
X17250Y152625D01*
X12250Y169875D02*
X17250Y174875D01*
X105750Y152625D02*
X110750Y157625D01*
X105750Y174875D02*
X110750Y169875D01*
D11*
X436250Y774500D02*
G03*
X436250Y784500I-4700J5000D01*
G01*
X417250Y784500D02*
G03*
X417250Y774500I4700J-5000D01*
G01*
X460000Y438750D02*
G03*
X479000Y438750I9500J7000D01*
G01*
Y469750D02*
G03*
X460000Y469750I-9500J-7000D01*
G01*
X62250Y355000D02*
G03*
X52250Y355000I-5000J-4700D01*
G01*
X52250Y336000D02*
G03*
X62250Y336000I5000J4700D01*
G01*
X61500Y394750D02*
G03*
X51500Y394750I-5000J-4700D01*
G01*
X51500Y375750D02*
G03*
X61500Y375750I5000J4700D01*
G01*
X436250Y796500D02*
G03*
X436250Y806500I-4700J5000D01*
G01*
X417250Y806500D02*
G03*
X417250Y796500I4700J-5000D01*
G01*
X417250Y774500D02*
X436250D01*
X417250Y784500D02*
X436250D01*
X479000Y438750D02*
Y469750D01*
X460000Y438750D02*
Y469750D01*
X62250Y336000D02*
Y355000D01*
X52250Y336000D02*
Y355000D01*
X61500Y375750D02*
Y394750D01*
X51500Y375750D02*
Y394750D01*
X417250Y796500D02*
X436250D01*
X417250Y806500D02*
X436250D01*
D12*
X450250Y505750D02*
G03*
X450250Y505750I-1250J0D01*
G01*
D13*
X38500Y412750D02*
X40500D01*
X38500Y402750D02*
X40500D01*
X38500Y456500D02*
X40500D01*
X38500Y446500D02*
X40500D01*
X103000Y381250D02*
X103000Y352250D01*
X85000D02*
Y381250D01*
X429100Y533250D02*
Y544250D01*
X377900D02*
X377900Y533250D01*
X414500Y441000D02*
X421500D01*
X414500Y426000D02*
X421500Y426000D01*
X414500Y456000D02*
X421500Y456000D01*
X414500Y471000D02*
X421500Y471000D01*
X450500Y512250D02*
Y560250D01*
X479500Y512250D02*
Y560250D01*
X408500Y898750D02*
X446500Y898750D01*
X408500Y867750D02*
X446500D01*
X396000Y390500D02*
X404000Y390500D01*
X396000Y405500D02*
X404000D01*
X391125Y299750D02*
X400500Y299750D01*
X378750Y312125D02*
X391125Y299750D01*
X434375Y299750D02*
X446750Y312125D01*
X425000Y299750D02*
X434375D01*
X378750Y367750D02*
X378750Y312125D01*
X378750Y367750D02*
X400500Y367750D01*
X425000D02*
X446750Y367750D01*
X446750Y312125D01*
X116868Y473774D02*
X101632D01*
Y466157D01*
X104172Y463618D01*
X106711D01*
X109250Y466157D01*
Y473774D01*
Y466157D01*
X111789Y463618D01*
X114328D01*
X116868Y466157D01*
Y473774D01*
X104172Y448382D02*
X114328D01*
X116868Y450922D01*
Y456000D01*
X114328Y458539D01*
X104172D01*
X101632Y456000D01*
Y450922D01*
X106711Y453461D02*
X101632Y448382D01*
Y450922D02*
X104172Y448382D01*
X101632Y443304D02*
Y438226D01*
Y440765D01*
X116868D01*
X114328Y443304D01*
D14*
X23500Y415750D02*
X53500D01*
X56500Y412750D01*
Y402750D02*
Y412750D01*
X53500Y399750D02*
X56500Y402750D01*
X23500Y399750D02*
X53500D01*
X23500D02*
X23500Y415750D01*
Y459500D02*
X53500D01*
X56500Y456500D01*
Y446500D02*
Y456500D01*
X53500Y443500D02*
X56500Y446500D01*
X23500Y443500D02*
X53500D01*
X23500D02*
X23500Y459500D01*
X423250Y825250D02*
X423250Y823000D01*
X441750Y823000D01*
Y825250D01*
Y835250D02*
Y837500D01*
X423250Y837500D02*
X441750Y837500D01*
X423250Y835250D02*
X423250Y837500D01*
X465000Y533250D02*
X470000Y538250D01*
X460000D02*
X470000D01*
X460000D02*
X465000Y533250D01*
X459750D02*
X470250D01*
D15*
X250000Y367000D02*
Y387000D01*
Y827000D02*
Y847000D01*
X240000Y837000D02*
X260000D01*
D16*
X135000Y1002000D02*
X365000D01*
X135000Y212000D02*
X365000D01*
Y1002000D01*
X135000Y212000D02*
Y1002000D01*
D17*
X14224Y198115D02*
X24381Y182880D01*
Y198115D02*
X14224Y182880D01*
X29459D02*
Y198115D01*
X37077D01*
X39616Y195576D01*
Y190497D01*
X37077Y187958D01*
X29459D01*
X44694Y182880D02*
X49773D01*
X47233D01*
Y198115D01*
X44694Y195576D01*
X459883Y573187D02*
X470039D01*
X475117Y578265D01*
X470039Y583343D01*
X459883D01*
Y588422D02*
X475117D01*
Y596039D01*
X472578Y598578D01*
X462422D01*
X459883Y596039D01*
Y588422D01*
X475117Y611274D02*
X459883D01*
X467500Y603657D01*
Y613814D01*
X135636Y1026917D02*
Y1014221D01*
X138175Y1011682D01*
X143253D01*
X145793Y1014221D01*
Y1026917D01*
X150871Y1011682D02*
X155949D01*
X153410D01*
Y1026917D01*
X150871Y1024378D01*
X415804Y903132D02*
Y918367D01*
X423422D01*
X425961Y915828D01*
Y910750D01*
X423422Y908211D01*
X415804D01*
X420882D02*
X425961Y903132D01*
X431039Y918367D02*
X441196D01*
Y915828D01*
X431039Y905672D01*
Y903132D01*
X382382Y579304D02*
X397617D01*
Y589461D01*
X384922Y594539D02*
X382382Y597078D01*
Y602157D01*
X384922Y604696D01*
X387461D01*
X390000Y602157D01*
Y599618D01*
Y602157D01*
X392539Y604696D01*
X395078D01*
X397617Y602157D01*
Y597078D01*
X395078Y594539D01*
X465172Y327211D02*
X462632Y324672D01*
Y319593D01*
X465172Y317054D01*
X475328D01*
X477868Y319593D01*
Y324672D01*
X475328Y327211D01*
X465172Y332289D02*
X462632Y334828D01*
Y339907D01*
X465172Y342446D01*
X467711D01*
X470250Y339907D01*
X472789Y342446D01*
X475328D01*
X477868Y339907D01*
Y334828D01*
X475328Y332289D01*
X472789D01*
X470250Y334828D01*
X467711Y332289D01*
X465172D01*
X470250Y334828D02*
Y339907D01*
X440461Y399578D02*
X437922Y402118D01*
X432843D01*
X430304Y399578D01*
Y389422D01*
X432843Y386883D01*
X437922D01*
X440461Y389422D01*
X445539Y402118D02*
X455696D01*
Y399578D01*
X445539Y389422D01*
Y386883D01*
D18*
X421671Y815998D02*
Y809334D01*
X425003Y806002D01*
X428335Y809334D01*
Y815998D01*
X431668D02*
Y806002D01*
X436666D01*
X438332Y807668D01*
Y814332D01*
X436666Y815998D01*
X431668D01*
X441665Y814332D02*
X443331Y815998D01*
X446663D01*
X448329Y814332D01*
Y812666D01*
X446663Y811000D01*
X444997D01*
X446663D01*
X448329Y809334D01*
Y807668D01*
X446663Y806002D01*
X443331D01*
X441665Y807668D01*
X24671Y430248D02*
Y420252D01*
Y425250D01*
X31335D01*
Y430248D01*
Y420252D01*
X34668Y430248D02*
Y420252D01*
X41332D01*
X51329D02*
X44665D01*
X51329Y426916D01*
Y428582D01*
X49663Y430248D01*
X46331D01*
X44665Y428582D01*
X27087Y473248D02*
Y463252D01*
Y468250D01*
X33752D01*
Y473248D01*
Y463252D01*
X37084Y473248D02*
Y463252D01*
X43748D01*
X47081D02*
X50413D01*
X48747D01*
Y473248D01*
X47081Y471582D01*
X374919Y459752D02*
Y469748D01*
X379918D01*
X381584Y468082D01*
Y464750D01*
X379918Y463084D01*
X374919D01*
X378252D02*
X381584Y459752D01*
X391581Y469748D02*
X384916D01*
Y464750D01*
X388248Y466416D01*
X389915D01*
X391581Y464750D01*
Y461418D01*
X389915Y459752D01*
X386582D01*
X384916Y461418D01*
X375919Y428752D02*
Y438748D01*
X380918D01*
X382584Y437082D01*
Y433750D01*
X380918Y432084D01*
X375919D01*
X379252D02*
X382584Y428752D01*
X390914D02*
Y438748D01*
X385916Y433750D01*
X392581D01*
X45582Y390581D02*
X47248Y392248D01*
Y395580D01*
X45582Y397246D01*
X38918D01*
X37252Y395580D01*
Y392248D01*
X38918Y390581D01*
X37252Y387249D02*
Y383917D01*
Y385583D01*
X47248D01*
X45582Y387249D01*
X47248Y372254D02*
Y378918D01*
X42250D01*
X43916Y375586D01*
Y373920D01*
X42250Y372254D01*
X38918D01*
X37252Y373920D01*
Y377252D01*
X38918Y378918D01*
X46832Y352081D02*
X48498Y353747D01*
Y357080D01*
X46832Y358746D01*
X40168D01*
X38502Y357080D01*
Y353747D01*
X40168Y352081D01*
X38502Y348749D02*
Y345417D01*
Y347083D01*
X48498D01*
X46832Y348749D01*
X38502Y335420D02*
X48498D01*
X43500Y340419D01*
Y333754D01*
X452085Y808832D02*
X450419Y810498D01*
X447086D01*
X445420Y808832D01*
Y802168D01*
X447086Y800502D01*
X450419D01*
X452085Y802168D01*
X455417Y800502D02*
X458749D01*
X457083D01*
Y810498D01*
X455417Y808832D01*
X463748Y800502D02*
X467080D01*
X465414D01*
Y810498D01*
X463748Y808832D01*
X450419Y782832D02*
X448752Y784498D01*
X445420D01*
X443754Y782832D01*
Y776168D01*
X445420Y774502D01*
X448752D01*
X450419Y776168D01*
X453751Y774502D02*
X457083D01*
X455417D01*
Y784498D01*
X453751Y782832D01*
X462081D02*
X463748Y784498D01*
X467080D01*
X468746Y782832D01*
Y776168D01*
X467080Y774502D01*
X463748D01*
X462081Y776168D01*
Y782832D01*
X491582Y454166D02*
X493248Y455832D01*
Y459165D01*
X491582Y460831D01*
X484918D01*
X483252Y459165D01*
Y455832D01*
X484918Y454166D01*
Y450834D02*
X483252Y449168D01*
Y445835D01*
X484918Y444169D01*
X491582D01*
X493248Y445835D01*
Y449168D01*
X491582Y450834D01*
X489916D01*
X488250Y449168D01*
Y444169D01*
M02*
