G04*
G04 #@! TF.GenerationSoftware,Altium Limited,Altium Designer,23.1.1 (15)*
G04*
G04 Layer_Physical_Order=1*
G04 Layer_Color=255*
%FSLAX44Y44*%
%MOMM*%
G71*
G04*
G04 #@! TF.SameCoordinates,76B832DB-4935-4160-942D-398904476E74*
G04*
G04*
G04 #@! TF.FilePolarity,Positive*
G04*
G01*
G75*
%ADD18R,1.1000X1.7000*%
%ADD19R,1.2000X1.4000*%
%ADD20R,0.8500X0.9000*%
%ADD21R,1.7000X1.1000*%
%ADD22R,0.9000X0.8500*%
%ADD23R,0.6400X0.5800*%
%ADD24R,1.4000X1.2000*%
%ADD25R,1.3500X0.6000*%
%ADD26R,3.4500X1.8500*%
%ADD27R,2.0800X3.8100*%
%ADD28R,11.4300X8.8900*%
%ADD49C,0.5000*%
%ADD50C,0.7000*%
%ADD51C,1.6000*%
%ADD52O,1.0000X2.0000*%
%ADD53O,1.0000X2.0000*%
%ADD54C,1.7000*%
%ADD55C,3.0000*%
%ADD56R,3.7000X1.5000*%
%ADD57R,1.5000X3.7000*%
%ADD58R,4.1000X1.5000*%
%ADD59C,0.8000*%
G36*
X991659Y8341D02*
X459228D01*
X459219Y8358D01*
X458464Y11341D01*
X459989Y12511D01*
X482477Y35000D01*
X483977D01*
X486875Y35577D01*
X489605Y36707D01*
X492062Y38349D01*
X494151Y40438D01*
X495793Y42895D01*
X496923Y45625D01*
X497500Y48523D01*
Y50780D01*
X499176Y51824D01*
X500438Y52085D01*
X502500Y50023D01*
Y48523D01*
X503077Y45625D01*
X504207Y42895D01*
X505849Y40438D01*
X507938Y38349D01*
X510395Y36707D01*
X513125Y35577D01*
X516023Y35000D01*
X518977D01*
X521875Y35577D01*
X524605Y36707D01*
X527062Y38349D01*
X529151Y40438D01*
X530793Y42895D01*
X531923Y45625D01*
X532500Y48523D01*
Y51477D01*
X531923Y54375D01*
X530793Y57105D01*
X529151Y59562D01*
X527062Y61651D01*
X524605Y63293D01*
X521875Y64423D01*
X518977Y65000D01*
X517477D01*
X503989Y78489D01*
X501795Y80172D01*
X499241Y81230D01*
X496500Y81591D01*
X476000D01*
X473259Y81230D01*
X470705Y80172D01*
X468511Y78489D01*
X434613Y44591D01*
X53387D01*
X47591Y50387D01*
Y255495D01*
X49552Y257000D01*
X52448D01*
X55246Y257750D01*
X57754Y259198D01*
X59802Y261246D01*
X61250Y263754D01*
X62000Y266552D01*
Y269448D01*
X61250Y272246D01*
X60582Y273403D01*
Y368031D01*
X73969Y381418D01*
X108250D01*
Y379500D01*
X132449D01*
X140724Y371225D01*
X142709Y369702D01*
X145020Y368745D01*
X147500Y368418D01*
X171209D01*
X171818Y366948D01*
X173627Y364591D01*
X173516Y363911D01*
X172529Y361591D01*
X148000D01*
Y365000D01*
X104000D01*
Y337000D01*
X106409D01*
Y247000D01*
X106770Y244259D01*
X107828Y241705D01*
X109511Y239511D01*
X123861Y225161D01*
X126055Y223478D01*
X128609Y222420D01*
X131350Y222059D01*
X154250D01*
Y209950D01*
X181750D01*
Y209950D01*
X184684Y209790D01*
X184754Y209750D01*
X187552Y209000D01*
X190448D01*
X193246Y209750D01*
X195754Y211198D01*
X197802Y213246D01*
X199250Y215754D01*
X200000Y218552D01*
Y221448D01*
X201243Y223068D01*
X210250D01*
Y209950D01*
X237750D01*
Y210368D01*
X242081D01*
X251224Y201224D01*
X253209Y199702D01*
X255520Y198745D01*
X258000Y198418D01*
X290800D01*
X293280Y198745D01*
X295591Y199702D01*
X297575Y201224D01*
X310651Y214300D01*
X317200D01*
Y233577D01*
X317282Y234200D01*
Y234500D01*
X316956Y236980D01*
X315998Y239291D01*
X314475Y241276D01*
X312491Y242798D01*
X310180Y243755D01*
X308323Y244000D01*
X308519Y247000D01*
X310000D01*
Y265000D01*
Y269250D01*
X329500D01*
Y286168D01*
X336500D01*
Y283500D01*
X367500D01*
Y286418D01*
X627031D01*
X704224Y209224D01*
X706209Y207702D01*
X708520Y206744D01*
X711000Y206418D01*
X725361D01*
X725560Y206119D01*
X727719Y203960D01*
X730258Y202264D01*
X733079Y201096D01*
X736073Y200500D01*
X739127D01*
X742121Y201096D01*
X744942Y202264D01*
X747481Y203960D01*
X749640Y206119D01*
X751336Y208658D01*
X751467Y208975D01*
X753508Y209352D01*
X754849Y209301D01*
X756553Y207598D01*
X758947Y206216D01*
X760500Y205800D01*
Y216000D01*
Y226201D01*
X758947Y225784D01*
X756553Y224402D01*
X754849Y222699D01*
X753508Y222648D01*
X751467Y223025D01*
X751336Y223342D01*
X749640Y225881D01*
X747481Y228040D01*
X744942Y229736D01*
X742121Y230904D01*
X739127Y231500D01*
X736073D01*
X733079Y230904D01*
X730258Y229736D01*
X727719Y228040D01*
X725560Y225881D01*
X725361Y225582D01*
X714969D01*
X637775Y302775D01*
X635791Y304298D01*
X633480Y305256D01*
X631000Y305582D01*
X367500D01*
Y308500D01*
X336500D01*
Y305332D01*
X329500D01*
Y306750D01*
X306500D01*
Y305082D01*
X283500D01*
X281020Y304755D01*
X278709Y303798D01*
X276724Y302276D01*
X242081Y267632D01*
X237750D01*
Y268050D01*
X210250D01*
Y267539D01*
X205478D01*
X204246Y268250D01*
X201448Y269000D01*
X198552D01*
X195754Y268250D01*
X193246Y266802D01*
X191198Y264754D01*
X189750Y262246D01*
X189000Y259448D01*
Y257377D01*
X188965Y257264D01*
X187367Y255495D01*
X186353Y254839D01*
X185650Y254932D01*
X181750D01*
Y255350D01*
X176750D01*
Y255550D01*
X168000D01*
X159250D01*
Y255350D01*
X154250D01*
Y243241D01*
X135737D01*
X127591Y251387D01*
Y337000D01*
X148000D01*
Y340409D01*
X185000D01*
X187741Y340770D01*
X190295Y341828D01*
X192489Y343511D01*
X202489Y353511D01*
X204172Y355705D01*
X205230Y358259D01*
X205591Y361000D01*
Y363191D01*
X207700Y365940D01*
X209527Y366180D01*
X211230Y366886D01*
X212692Y368008D01*
X213815Y369470D01*
X214520Y371173D01*
X214760Y373000D01*
Y375500D01*
X207700D01*
Y378000D01*
X207104D01*
Y383000D01*
X206692Y386133D01*
X205482Y389052D01*
X205200Y389420D01*
X205343Y389600D01*
X205129Y389512D01*
X203559Y391558D01*
X201052Y393482D01*
X198133Y394691D01*
X195000Y395104D01*
X191867Y394691D01*
X188948Y393482D01*
X188650Y393253D01*
X188352Y393482D01*
X185433Y394691D01*
X182300Y395104D01*
X179167Y394691D01*
X176248Y393482D01*
X173741Y391558D01*
X171818Y389052D01*
X171209Y387582D01*
X151469D01*
X145750Y393301D01*
Y402000D01*
X148000D01*
Y430000D01*
X127891D01*
Y443170D01*
X135000D01*
Y495270D01*
X100200D01*
Y443170D01*
X106709D01*
Y430000D01*
X104000D01*
Y402000D01*
X101587Y400582D01*
X70000D01*
X67520Y400256D01*
X65209Y399298D01*
X63225Y397775D01*
X50362Y384913D01*
X47591Y386061D01*
Y573613D01*
X53387Y579409D01*
X78850D01*
Y538550D01*
X207150D01*
Y641450D01*
X174091D01*
Y692500D01*
X176000D01*
Y723500D01*
X174091D01*
Y739500D01*
X176000D01*
Y770500D01*
X151000D01*
Y770500D01*
X150091D01*
X147091Y772709D01*
Y883113D01*
X183387Y919409D01*
X783617D01*
X785911Y915976D01*
X788976Y912912D01*
X792579Y910504D01*
X796583Y908845D01*
X800833Y908000D01*
X805167D01*
X809417Y908845D01*
X813421Y910504D01*
X817024Y912912D01*
X820089Y915976D01*
X822383Y919409D01*
X901617D01*
X903912Y915976D01*
X906976Y912912D01*
X910579Y910504D01*
X914583Y908845D01*
X918833Y908000D01*
X923167D01*
X927417Y908845D01*
X931421Y910504D01*
X935024Y912912D01*
X938089Y915976D01*
X940496Y919579D01*
X942155Y923583D01*
X943000Y927833D01*
Y932167D01*
X942155Y936417D01*
X940496Y940421D01*
X938089Y944024D01*
X935024Y947088D01*
X931421Y949496D01*
X927417Y951155D01*
X923167Y952000D01*
X918833D01*
X914583Y951155D01*
X910579Y949496D01*
X906976Y947088D01*
X903912Y944024D01*
X901617Y940591D01*
X822383D01*
X820089Y944024D01*
X817024Y947088D01*
X813421Y949496D01*
X809417Y951155D01*
X805167Y952000D01*
X800833D01*
X796583Y951155D01*
X792579Y949496D01*
X788976Y947088D01*
X785911Y944024D01*
X783617Y940591D01*
X179000D01*
X176259Y940230D01*
X173705Y939172D01*
X171511Y937489D01*
X129011Y894989D01*
X127328Y892795D01*
X126270Y890241D01*
X125909Y887500D01*
Y770500D01*
X124000D01*
Y739500D01*
X125909D01*
Y723500D01*
X124000D01*
Y718591D01*
X30000D01*
X27259Y718230D01*
X24705Y717172D01*
X22511Y715489D01*
X14511Y707489D01*
X12828Y705295D01*
X11770Y702741D01*
X11409Y700000D01*
Y32000D01*
X11770Y29259D01*
X12828Y26705D01*
X14511Y24511D01*
X26511Y12511D01*
X28036Y11341D01*
X27281Y8357D01*
X27272Y8341D01*
X8341D01*
Y991659D01*
X991659D01*
Y8341D01*
D02*
G37*
G36*
X149909Y739500D02*
X152909Y737291D01*
Y725709D01*
X151000Y723500D01*
X150091D01*
X147091Y725709D01*
Y737291D01*
X149000Y739500D01*
X149909D01*
D02*
G37*
G36*
X124000Y692500D02*
X149000D01*
Y692500D01*
X149909D01*
X152909Y690291D01*
Y641450D01*
X78850D01*
Y600591D01*
X49000D01*
X46259Y600230D01*
X43705Y599172D01*
X41511Y597489D01*
X35362Y591340D01*
X32591Y592488D01*
Y695613D01*
X34387Y697409D01*
X124000D01*
Y692500D01*
D02*
G37*
G36*
X210250Y242232D02*
X202686D01*
X200874Y244389D01*
X201850Y247108D01*
X204246Y247750D01*
X205329Y248375D01*
X210250D01*
Y242232D01*
D02*
G37*
%LPC*%
G36*
X180800Y490270D02*
X170900D01*
Y471720D01*
X180800D01*
Y490270D01*
D02*
G37*
G36*
X165900D02*
X156000D01*
Y471720D01*
X165900D01*
Y490270D01*
D02*
G37*
G36*
X180800Y466720D02*
X170900D01*
Y448170D01*
X180800D01*
Y466720D01*
D02*
G37*
G36*
X165900D02*
X156000D01*
Y448170D01*
X165900D01*
Y466720D01*
D02*
G37*
G36*
X210200Y389541D02*
Y380500D01*
X214760D01*
Y383000D01*
X214520Y384827D01*
X213815Y386530D01*
X212692Y387992D01*
X211230Y389114D01*
X210200Y389541D01*
D02*
G37*
G36*
X923167Y372000D02*
X918833D01*
X914583Y371155D01*
X910579Y369496D01*
X906976Y367089D01*
X903912Y364024D01*
X901617Y360591D01*
X822383D01*
X820089Y364024D01*
X817024Y367089D01*
X813421Y369496D01*
X809417Y371155D01*
X805167Y372000D01*
X800833D01*
X796583Y371155D01*
X792579Y369496D01*
X788976Y367089D01*
X785911Y364024D01*
X783504Y360421D01*
X781845Y356417D01*
X781000Y352167D01*
Y347833D01*
X781845Y343583D01*
X783504Y339579D01*
X785911Y335976D01*
X788976Y332911D01*
X792579Y330504D01*
X796583Y328845D01*
X800833Y328000D01*
X805167D01*
X809417Y328845D01*
X813421Y330504D01*
X817024Y332911D01*
X820089Y335976D01*
X822383Y339409D01*
X901617D01*
X903912Y335976D01*
X906976Y332911D01*
X910579Y330504D01*
X914583Y328845D01*
X918833Y328000D01*
X923167D01*
X927417Y328845D01*
X931421Y330504D01*
X935024Y332911D01*
X938089Y335976D01*
X940383Y339409D01*
X955513D01*
X958409Y336513D01*
Y308387D01*
X912011Y261989D01*
X910328Y259795D01*
X909270Y257241D01*
X908909Y254500D01*
Y241250D01*
X895250D01*
Y235591D01*
X800106D01*
X797365Y235230D01*
X794811Y234172D01*
X792617Y232489D01*
X791346Y231218D01*
X789927Y231500D01*
X786873D01*
X783879Y230904D01*
X781058Y229736D01*
X778519Y228040D01*
X776360Y225881D01*
X774664Y223342D01*
X774533Y223025D01*
X772492Y222648D01*
X771151Y222699D01*
X769447Y224402D01*
X767053Y225784D01*
X765500Y226201D01*
Y216000D01*
Y205800D01*
X767053Y206216D01*
X769447Y207598D01*
X771151Y209301D01*
X772492Y209352D01*
X774533Y208975D01*
X774664Y208658D01*
X776360Y206119D01*
X778519Y203960D01*
X781058Y202264D01*
X783879Y201096D01*
X786873Y200500D01*
X789927D01*
X792921Y201096D01*
X795742Y202264D01*
X798281Y203960D01*
X800440Y206119D01*
X802136Y208658D01*
X803304Y211479D01*
X803737Y213654D01*
X804493Y214409D01*
X894409D01*
Y162500D01*
X877500D01*
Y133500D01*
X932500D01*
Y162500D01*
X915591D01*
Y208750D01*
X943750D01*
Y241250D01*
X930091D01*
Y250113D01*
X976489Y296511D01*
X978172Y298705D01*
X979230Y301259D01*
X979591Y304000D01*
Y340900D01*
X979230Y343641D01*
X978172Y346195D01*
X976489Y348388D01*
X967388Y357489D01*
X965195Y359172D01*
X962641Y360230D01*
X959900Y360591D01*
X940383D01*
X938089Y364024D01*
X935024Y367089D01*
X931421Y369496D01*
X927417Y371155D01*
X923167Y372000D01*
D02*
G37*
G36*
X362500Y276500D02*
X354500D01*
Y271500D01*
X362500D01*
Y276500D01*
D02*
G37*
G36*
X349500D02*
X341500D01*
Y271500D01*
X349500D01*
Y276500D01*
D02*
G37*
G36*
X362500Y266500D02*
X354500D01*
Y261500D01*
X362500D01*
Y266500D01*
D02*
G37*
G36*
X349500D02*
X341500D01*
Y261500D01*
X349500D01*
Y266500D01*
D02*
G37*
G36*
X176750Y263050D02*
X170500D01*
Y260550D01*
X176750D01*
Y263050D01*
D02*
G37*
G36*
X165500D02*
X159250D01*
Y260550D01*
X165500D01*
Y263050D01*
D02*
G37*
G36*
X987750Y236250D02*
X971000D01*
Y227500D01*
X987750D01*
Y236250D01*
D02*
G37*
G36*
X966000D02*
X949250D01*
Y227500D01*
X966000D01*
Y236250D01*
D02*
G37*
G36*
X987750Y222500D02*
X971000D01*
Y213750D01*
X987750D01*
Y222500D01*
D02*
G37*
G36*
X966000D02*
X949250D01*
Y213750D01*
X966000D01*
Y222500D01*
D02*
G37*
G36*
X962500Y143500D02*
X955500D01*
Y125500D01*
X962500D01*
Y143500D01*
D02*
G37*
G36*
X950500D02*
X943500D01*
Y125500D01*
X950500D01*
Y143500D01*
D02*
G37*
G36*
X962500Y120500D02*
X955500D01*
Y102500D01*
X962500D01*
Y120500D01*
D02*
G37*
G36*
X950500D02*
X943500D01*
Y102500D01*
X950500D01*
Y120500D01*
D02*
G37*
G36*
X925500Y97500D02*
X907500D01*
Y90500D01*
X925500D01*
Y97500D01*
D02*
G37*
G36*
X902500D02*
X884500D01*
Y90500D01*
X902500D01*
Y97500D01*
D02*
G37*
G36*
X925500Y85500D02*
X907500D01*
Y78500D01*
X925500D01*
Y85500D01*
D02*
G37*
G36*
X902500D02*
X884500D01*
Y78500D01*
X902500D01*
Y85500D01*
D02*
G37*
%LPD*%
D18*
X136500Y755000D02*
D03*
X163500D02*
D03*
X136500Y708000D02*
D03*
X163500D02*
D03*
D19*
X117000Y416000D02*
D03*
X135000D02*
D03*
X135000Y351000D02*
D03*
X117000D02*
D03*
D20*
X119500Y391000D02*
D03*
X134500D02*
D03*
D21*
X352000Y296000D02*
D03*
Y269000D02*
D03*
D22*
X318000Y295500D02*
D03*
Y280500D02*
D03*
D23*
X307000Y233800D02*
D03*
Y224200D02*
D03*
X268000Y223200D02*
D03*
Y232800D02*
D03*
D24*
X296000Y260000D02*
D03*
Y278000D02*
D03*
D25*
X168000Y258050D02*
D03*
Y245350D02*
D03*
Y232650D02*
D03*
Y219950D02*
D03*
X224000Y258050D02*
D03*
Y245350D02*
D03*
Y232650D02*
D03*
Y219950D02*
D03*
D26*
X968500Y225000D02*
D03*
X919500D02*
D03*
D27*
X117600Y469220D02*
D03*
X168400D02*
D03*
D28*
X143000Y590000D02*
D03*
D49*
X293000Y234000D02*
X307000D01*
X307300Y233800D02*
X316800D01*
X307000D02*
X307300D01*
X316800D02*
X319000Y236000D01*
X307300Y233800D02*
X307700Y234200D01*
Y234500D01*
X306700Y224200D02*
X307000D01*
X306300Y223800D02*
X306700Y224200D01*
X290800Y208000D02*
X306300Y223500D01*
X258000Y208000D02*
X290800D01*
X306300Y223500D02*
Y223800D01*
X282200Y223200D02*
X293000Y234000D01*
X268000Y223200D02*
X282200D01*
X246050Y219950D02*
X258000Y208000D01*
X224000Y219950D02*
X246050D01*
X283500Y295500D02*
X318000D01*
X246050Y258050D02*
X283500Y295500D01*
X224000Y258050D02*
X246050D01*
X268400Y233200D02*
X273200D01*
X291500Y251500D02*
Y256500D01*
X295000Y260000D02*
X296000D01*
X273200Y233200D02*
X291500Y251500D01*
Y256500D02*
X295000Y260000D01*
X267925Y232725D02*
X268400Y233200D01*
X185650Y245350D02*
X198350Y232650D01*
X224000D01*
X51000Y372000D02*
X70000Y391000D01*
X51000Y268000D02*
Y372000D01*
X70000Y391000D02*
X119500D01*
X134500Y390750D02*
X136250Y389000D01*
X136500D01*
X147500Y378000D01*
X134500Y390750D02*
Y391000D01*
X147500Y378000D02*
X182300D01*
X134750Y391250D02*
Y415750D01*
X134500Y391000D02*
X134750Y391250D01*
Y415750D02*
X135000Y416000D01*
X200000Y258000D02*
X200043Y257957D01*
X223907D01*
X224000Y258050D01*
X188975Y219975D02*
X189000Y220000D01*
X168000Y219950D02*
X168025Y219975D01*
X188975D01*
X168000Y245350D02*
X185650D01*
X224075Y232725D02*
X267925D01*
X224000Y232650D02*
X224075Y232725D01*
X297250Y279250D02*
X316750D01*
X296000Y278000D02*
X297250Y279250D01*
X316750D02*
X318000Y280500D01*
X292500Y274500D02*
X296000Y278000D01*
X283500Y274500D02*
X292500D01*
X254350Y245350D02*
X283500Y274500D01*
X224000Y245350D02*
X254350D01*
X318250Y295750D02*
X351750D01*
X352000Y296000D01*
X318000Y295500D02*
X318250Y295750D01*
X352000Y296000D02*
X631000D01*
X711000Y216000D01*
X737600D01*
D50*
X117300Y416300D02*
Y468920D01*
X117000Y416000D02*
X117300Y416300D01*
Y468920D02*
X117600Y469220D01*
X452500Y20000D02*
X482500Y50000D01*
X496500Y71000D02*
X517500Y50000D01*
X49000Y590000D02*
X143000D01*
X37000Y578000D02*
X49000Y590000D01*
X37000Y46000D02*
Y578000D01*
Y46000D02*
X49000Y34000D01*
X439000D01*
X476000Y71000D01*
X496500D01*
X30000Y708000D02*
X136500D01*
X22000Y700000D02*
X30000Y708000D01*
X22000Y32000D02*
Y700000D01*
Y32000D02*
X34000Y20000D01*
X452500D01*
X131350Y232650D02*
X168000D01*
X117000Y247000D02*
X131350Y232650D01*
X117000Y247000D02*
Y351000D01*
X195000Y361000D02*
Y378000D01*
X185000Y351000D02*
X195000Y361000D01*
X135000Y351000D02*
X185000D01*
X163500Y610500D02*
Y708000D01*
X143000Y590000D02*
X163500Y610500D01*
Y708000D02*
Y755000D01*
X136500Y708000D02*
Y755000D01*
Y887500D01*
X179000Y930000D02*
X803000D01*
X136500Y887500D02*
X179000Y930000D01*
X803000D02*
X921000D01*
X803000Y350000D02*
X921000D01*
X959900D01*
X969000Y340900D01*
Y304000D02*
Y340900D01*
X919500Y254500D02*
X969000Y304000D01*
X919500Y225000D02*
Y254500D01*
X911500Y225000D02*
X919500D01*
X800106D02*
X911500D01*
X791106Y216000D02*
X800106Y225000D01*
X788400Y216000D02*
X791106D01*
X905000Y148000D02*
Y218500D01*
X911500Y225000D01*
D51*
X482500Y50000D02*
D03*
X517500D02*
D03*
D52*
X207700Y378000D02*
D03*
D53*
X195000D02*
D03*
X182300D02*
D03*
D54*
X788400Y216000D02*
D03*
X763000D02*
D03*
X737600D02*
D03*
D55*
X803000Y350000D02*
D03*
Y930000D02*
D03*
X921000Y350000D02*
D03*
Y930000D02*
D03*
D56*
X905000Y88000D02*
D03*
D57*
X953000Y123000D02*
D03*
D58*
X905000Y148000D02*
D03*
D59*
X51000Y268000D02*
D03*
X200000Y258000D02*
D03*
X189000Y220000D02*
D03*
M02*
