G04*
G04 #@! TF.GenerationSoftware,Altium Limited,Altium Designer,23.1.1 (15)*
G04*
G04 Layer_Physical_Order=2*
G04 Layer_Color=16711680*
%FSLAX44Y44*%
%MOMM*%
G71*
G04*
G04 #@! TF.SameCoordinates,76B832DB-4935-4160-942D-398904476E74*
G04*
G04*
G04 #@! TF.FilePolarity,Positive*
G04*
G01*
G75*
%ADD49C,0.5000*%
%ADD51C,1.6000*%
%ADD52O,1.0000X2.0000*%
%ADD53O,1.0000X2.0000*%
%ADD54C,1.7000*%
%ADD55C,3.0000*%
%ADD56R,3.7000X1.5000*%
%ADD57R,1.5000X3.7000*%
%ADD58R,4.1000X1.5000*%
%ADD59C,0.8000*%
G36*
X991659Y8341D02*
X8341D01*
Y991659D01*
X991659D01*
Y8341D01*
D02*
G37*
%LPC*%
G36*
X923167Y952000D02*
X918833D01*
X914583Y951155D01*
X910579Y949496D01*
X906976Y947088D01*
X903912Y944024D01*
X901504Y940421D01*
X899845Y936417D01*
X899000Y932167D01*
Y927833D01*
X899845Y923583D01*
X901504Y919579D01*
X903912Y915976D01*
X906976Y912912D01*
X910579Y910504D01*
X914583Y908845D01*
X918833Y908000D01*
X923167D01*
X927417Y908845D01*
X931421Y910504D01*
X935024Y912912D01*
X938089Y915976D01*
X940496Y919579D01*
X942155Y923583D01*
X943000Y927833D01*
Y932167D01*
X942155Y936417D01*
X940496Y940421D01*
X938089Y944024D01*
X935024Y947088D01*
X931421Y949496D01*
X927417Y951155D01*
X923167Y952000D01*
D02*
G37*
G36*
X805167D02*
X800833D01*
X796583Y951155D01*
X792579Y949496D01*
X788976Y947088D01*
X785911Y944024D01*
X783504Y940421D01*
X781845Y936417D01*
X781000Y932167D01*
Y927833D01*
X781845Y923583D01*
X783504Y919579D01*
X785911Y915976D01*
X788976Y912912D01*
X792579Y910504D01*
X796583Y908845D01*
X800833Y908000D01*
X805167D01*
X809417Y908845D01*
X813421Y910504D01*
X817024Y912912D01*
X820089Y915976D01*
X822496Y919579D01*
X824155Y923583D01*
X825000Y927833D01*
Y932167D01*
X824155Y936417D01*
X822496Y940421D01*
X820089Y944024D01*
X817024Y947088D01*
X813421Y949496D01*
X809417Y951155D01*
X805167Y952000D01*
D02*
G37*
G36*
X195000Y395104D02*
X191867Y394691D01*
X188948Y393482D01*
X188650Y393253D01*
X188352Y393482D01*
X185433Y394691D01*
X182300Y395104D01*
X179167Y394691D01*
X176248Y393482D01*
X173741Y391558D01*
X171818Y389052D01*
X170609Y386133D01*
X170196Y383000D01*
Y373000D01*
X170609Y369867D01*
X171818Y366948D01*
X173741Y364441D01*
X176248Y362518D01*
X179167Y361309D01*
X182300Y360896D01*
X185433Y361309D01*
X188352Y362518D01*
X188650Y362747D01*
X188948Y362518D01*
X191867Y361309D01*
X195000Y360896D01*
X198133Y361309D01*
X201052Y362518D01*
X201350Y362747D01*
X201648Y362518D01*
X204567Y361309D01*
X207700Y360896D01*
X210833Y361309D01*
X213752Y362518D01*
X216259Y364441D01*
X218182Y366948D01*
X219391Y369867D01*
X219804Y373000D01*
Y383000D01*
X219391Y386133D01*
X218182Y389052D01*
X216259Y391558D01*
X213752Y393482D01*
X210833Y394691D01*
X207700Y395104D01*
X204567Y394691D01*
X201648Y393482D01*
X201350Y393253D01*
X201052Y393482D01*
X198133Y394691D01*
X195000Y395104D01*
D02*
G37*
G36*
X923167Y372000D02*
X918833D01*
X914583Y371155D01*
X910579Y369496D01*
X906976Y367089D01*
X903912Y364024D01*
X901504Y360421D01*
X899845Y356417D01*
X899000Y352167D01*
Y347833D01*
X899845Y343583D01*
X901504Y339579D01*
X903912Y335976D01*
X906976Y332911D01*
X910579Y330504D01*
X914583Y328845D01*
X918833Y328000D01*
X923167D01*
X927417Y328845D01*
X931421Y330504D01*
X935024Y332911D01*
X938089Y335976D01*
X940496Y339579D01*
X942155Y343583D01*
X943000Y347833D01*
Y352167D01*
X942155Y356417D01*
X940496Y360421D01*
X938089Y364024D01*
X935024Y367089D01*
X931421Y369496D01*
X927417Y371155D01*
X923167Y372000D01*
D02*
G37*
G36*
X805167D02*
X800833D01*
X796583Y371155D01*
X792579Y369496D01*
X788976Y367089D01*
X785911Y364024D01*
X783504Y360421D01*
X781845Y356417D01*
X781000Y352167D01*
Y347833D01*
X781845Y343583D01*
X783504Y339579D01*
X785911Y335976D01*
X788976Y332911D01*
X792579Y330504D01*
X796583Y328845D01*
X800833Y328000D01*
X805167D01*
X809417Y328845D01*
X813421Y330504D01*
X817024Y332911D01*
X820089Y335976D01*
X822496Y339579D01*
X824155Y343583D01*
X825000Y347833D01*
Y352167D01*
X824155Y356417D01*
X822496Y360421D01*
X820089Y364024D01*
X817024Y367089D01*
X813421Y369496D01*
X809417Y371155D01*
X805167Y372000D01*
D02*
G37*
G36*
X789927Y231500D02*
X786873D01*
X783879Y230904D01*
X781058Y229736D01*
X778519Y228040D01*
X777731Y227252D01*
X775700Y226217D01*
X773669Y227252D01*
X772881Y228040D01*
X770342Y229736D01*
X767521Y230904D01*
X764527Y231500D01*
X761473D01*
X758479Y230904D01*
X755658Y229736D01*
X753119Y228040D01*
X752331Y227252D01*
X750300Y226217D01*
X748269Y227252D01*
X747481Y228040D01*
X744942Y229736D01*
X742121Y230904D01*
X739127Y231500D01*
X736073D01*
X733079Y230904D01*
X730258Y229736D01*
X727719Y228040D01*
X725560Y225881D01*
X723864Y223342D01*
X722696Y220521D01*
X722100Y217527D01*
Y214473D01*
X722696Y211479D01*
X723864Y208658D01*
X725560Y206119D01*
X727719Y203960D01*
X730258Y202264D01*
X733079Y201096D01*
X736073Y200500D01*
X739127D01*
X742121Y201096D01*
X744942Y202264D01*
X747481Y203960D01*
X748269Y204748D01*
X750300Y205783D01*
X752331Y204748D01*
X753119Y203960D01*
X755658Y202264D01*
X758479Y201096D01*
X761473Y200500D01*
X764527D01*
X767521Y201096D01*
X770342Y202264D01*
X772881Y203960D01*
X773669Y204748D01*
X775700Y205783D01*
X777731Y204748D01*
X778519Y203960D01*
X781058Y202264D01*
X783879Y201096D01*
X786873Y200500D01*
X789927D01*
X792921Y201096D01*
X795742Y202264D01*
X798281Y203960D01*
X800440Y206119D01*
X802136Y208658D01*
X803304Y211479D01*
X803900Y214473D01*
Y217527D01*
X803304Y220521D01*
X802136Y223342D01*
X800440Y225881D01*
X798281Y228040D01*
X795742Y229736D01*
X792921Y230904D01*
X789927Y231500D01*
D02*
G37*
G36*
X52448Y279000D02*
X49552D01*
X46754Y278250D01*
X44246Y276802D01*
X42198Y274754D01*
X40750Y272246D01*
X40000Y269448D01*
Y266552D01*
X40750Y263754D01*
X42198Y261246D01*
X44246Y259198D01*
X46754Y257750D01*
X48045Y257404D01*
X54225Y251224D01*
X56209Y249702D01*
X58520Y248745D01*
X61000Y248418D01*
X179418D01*
Y225403D01*
X178750Y224246D01*
X178000Y221448D01*
Y218552D01*
X178750Y215754D01*
X180198Y213246D01*
X182246Y211198D01*
X184754Y209750D01*
X187552Y209000D01*
X190448D01*
X193246Y209750D01*
X195754Y211198D01*
X197802Y213246D01*
X199250Y215754D01*
X200000Y218552D01*
Y221448D01*
X199250Y224246D01*
X198582Y225403D01*
Y244228D01*
X200236Y245497D01*
X201846Y247106D01*
X204246Y247750D01*
X206754Y249198D01*
X208802Y251246D01*
X210250Y253754D01*
X211000Y256552D01*
Y259448D01*
X210250Y262246D01*
X208802Y264754D01*
X206754Y266802D01*
X204246Y268250D01*
X201448Y269000D01*
X198552D01*
X195754Y268250D01*
X194597Y267582D01*
X64969D01*
X61596Y270955D01*
X61250Y272246D01*
X59802Y274754D01*
X57754Y276802D01*
X55246Y278250D01*
X52448Y279000D01*
D02*
G37*
G36*
X932500Y162500D02*
X877500D01*
Y133500D01*
X932500D01*
Y162500D01*
D02*
G37*
G36*
X967500Y148500D02*
X938500D01*
Y97500D01*
X967500D01*
Y148500D01*
D02*
G37*
G36*
X930500Y102500D02*
X879500D01*
Y73500D01*
X930500D01*
Y102500D01*
D02*
G37*
G36*
X518977Y65000D02*
X516023D01*
X513125Y64423D01*
X510395Y63293D01*
X507938Y61651D01*
X505849Y59562D01*
X504207Y57105D01*
X503077Y54375D01*
X502500Y51477D01*
Y48523D01*
X503077Y45625D01*
X504207Y42895D01*
X505849Y40438D01*
X507938Y38349D01*
X510395Y36707D01*
X513125Y35577D01*
X516023Y35000D01*
X518977D01*
X521875Y35577D01*
X524605Y36707D01*
X527062Y38349D01*
X529151Y40438D01*
X530793Y42895D01*
X531923Y45625D01*
X532500Y48523D01*
Y51477D01*
X531923Y54375D01*
X530793Y57105D01*
X529151Y59562D01*
X527062Y61651D01*
X524605Y63293D01*
X521875Y64423D01*
X518977Y65000D01*
D02*
G37*
G36*
X483977D02*
X481023D01*
X478125Y64423D01*
X475395Y63293D01*
X472938Y61651D01*
X470849Y59562D01*
X469207Y57105D01*
X468076Y54375D01*
X467500Y51477D01*
Y48523D01*
X468076Y45625D01*
X469207Y42895D01*
X470849Y40438D01*
X472938Y38349D01*
X475395Y36707D01*
X478125Y35577D01*
X481023Y35000D01*
X483977D01*
X486875Y35577D01*
X489605Y36707D01*
X492062Y38349D01*
X494151Y40438D01*
X495793Y42895D01*
X496923Y45625D01*
X497500Y48523D01*
Y51477D01*
X496923Y54375D01*
X495793Y57105D01*
X494151Y59562D01*
X492062Y61651D01*
X489605Y63293D01*
X486875Y64423D01*
X483977Y65000D01*
D02*
G37*
%LPD*%
D49*
X199188Y258000D02*
X200000D01*
X61000D02*
X199188D01*
X51000Y268000D02*
X61000Y258000D01*
X193460Y252272D02*
X199188Y258000D01*
X189000Y248737D02*
X192535Y252272D01*
X193460D01*
X189000Y220000D02*
Y248737D01*
D51*
X482500Y50000D02*
D03*
X517500D02*
D03*
D52*
X207700Y378000D02*
D03*
D53*
X195000D02*
D03*
X182300D02*
D03*
D54*
X788400Y216000D02*
D03*
X763000D02*
D03*
X737600D02*
D03*
D55*
X803000Y350000D02*
D03*
Y930000D02*
D03*
X921000Y350000D02*
D03*
Y930000D02*
D03*
D56*
X905000Y88000D02*
D03*
D57*
X953000Y123000D02*
D03*
D58*
X905000Y148000D02*
D03*
D59*
X51000Y268000D02*
D03*
X200000Y258000D02*
D03*
X189000Y220000D02*
D03*
M02*
