G04*
G04 #@! TF.GenerationSoftware,Altium Limited,Altium Designer,23.1.1 (15)*
G04*
G04 Layer_Color=8388736*
%FSLAX44Y44*%
%MOMM*%
G71*
G04*
G04 #@! TF.SameCoordinates,76B832DB-4935-4160-942D-398904476E74*
G04*
G04*
G04 #@! TF.FilePolarity,Negative*
G04*
G01*
G75*
%ADD29R,1.3032X1.9032*%
%ADD30R,1.4032X1.6032*%
%ADD31R,1.0532X1.1032*%
%ADD32R,1.9032X1.3032*%
%ADD33R,1.1032X1.0532*%
%ADD34R,0.8432X0.7832*%
%ADD35R,1.6032X1.4032*%
%ADD36R,1.5532X0.8032*%
%ADD37R,3.6532X2.0532*%
%ADD38R,2.2832X4.0132*%
%ADD39R,11.6332X9.0932*%
%ADD40C,1.8032*%
%ADD41O,1.2032X2.2032*%
%ADD42O,1.2032X2.2032*%
%ADD43C,1.9032*%
%ADD44C,3.2032*%
%ADD45R,3.9032X1.7032*%
%ADD46R,1.7032X3.9032*%
%ADD47R,4.3032X1.7032*%
%ADD48C,1.0032*%
D29*
X136500Y755000D02*
D03*
X163500D02*
D03*
X136500Y708000D02*
D03*
X163500D02*
D03*
D30*
X117000Y416000D02*
D03*
X135000D02*
D03*
X135000Y351000D02*
D03*
X117000D02*
D03*
D31*
X119500Y391000D02*
D03*
X134500D02*
D03*
D32*
X352000Y296000D02*
D03*
Y269000D02*
D03*
D33*
X318000Y295500D02*
D03*
Y280500D02*
D03*
D34*
X307000Y233800D02*
D03*
Y224200D02*
D03*
X268000Y223200D02*
D03*
Y232800D02*
D03*
D35*
X296000Y260000D02*
D03*
Y278000D02*
D03*
D36*
X168000Y258050D02*
D03*
Y245350D02*
D03*
Y232650D02*
D03*
Y219950D02*
D03*
X224000Y258050D02*
D03*
Y245350D02*
D03*
Y232650D02*
D03*
Y219950D02*
D03*
D37*
X968500Y225000D02*
D03*
X919500D02*
D03*
D38*
X117600Y469220D02*
D03*
X168400D02*
D03*
D39*
X143000Y590000D02*
D03*
D40*
X482500Y50000D02*
D03*
X517500D02*
D03*
D41*
X207700Y378000D02*
D03*
D42*
X195000D02*
D03*
X182300D02*
D03*
D43*
X788400Y216000D02*
D03*
X763000D02*
D03*
X737600D02*
D03*
D44*
X803000Y350000D02*
D03*
Y930000D02*
D03*
X921000Y350000D02*
D03*
Y930000D02*
D03*
D45*
X905000Y88000D02*
D03*
D46*
X953000Y123000D02*
D03*
D47*
X905000Y148000D02*
D03*
D48*
X51000Y268000D02*
D03*
X200000Y258000D02*
D03*
X189000Y220000D02*
D03*
M02*
