G04*
G04 #@! TF.GenerationSoftware,Altium Limited,Altium Designer,23.1.1 (15)*
G04*
G04 Layer_Color=2752767*
%FSLAX44Y44*%
%MOMM*%
G71*
G04*
G04 #@! TF.SameCoordinates,76B832DB-4935-4160-942D-398904476E74*
G04*
G04*
G04 #@! TF.FilePolarity,Positive*
G04*
G01*
G75*
%ADD60C,0.1693*%
%ADD61C,0.1270*%
D60*
X487580Y50000D02*
G03*
X487580Y50000I-5080J0D01*
G01*
X522580D02*
G03*
X522580Y50000I-5080J0D01*
G01*
D61*
X207700Y372920D02*
X202620Y383080D01*
X212780D01*
X207700Y372920D01*
X195000D02*
X189920Y383080D01*
X200080D01*
X195000Y372920D01*
X182300D02*
X177220Y383080D01*
X187380D01*
X182300Y372920D01*
X785860Y213460D02*
Y210920D01*
X790940D01*
Y213460D01*
X793480D01*
Y218540D01*
X790940D01*
Y221080D01*
X785860D01*
Y218540D01*
X783320D01*
Y213460D01*
X785860D01*
X760460D02*
Y210920D01*
X765540D01*
Y213460D01*
X768080D01*
Y218540D01*
X765540D01*
Y221080D01*
X760460D01*
Y218540D01*
X757920D01*
Y213460D01*
X760460D01*
X735060D02*
Y210920D01*
X740140D01*
Y213460D01*
X742680D01*
Y218540D01*
X740140D01*
Y221080D01*
X735060D01*
Y218540D01*
X732520D01*
Y213460D01*
X735060D01*
X797920Y344920D02*
Y355080D01*
X808080D01*
Y344920D01*
X797920D01*
Y924920D02*
Y935080D01*
X808080D01*
Y924920D01*
X797920D01*
X915920Y344920D02*
Y355080D01*
X926080D01*
Y344920D01*
X915920D01*
Y924920D02*
Y935080D01*
X926080D01*
Y924920D01*
X915920D01*
X905000Y82920D02*
X907540Y85460D01*
X910080D01*
X907540Y88000D01*
X910080Y90540D01*
X907540D01*
X905000Y93080D01*
X902460Y90540D01*
X899920D01*
X902460Y88000D01*
X899920Y85460D01*
X902460D01*
X905000Y82920D01*
X953000Y117920D02*
X955540Y120460D01*
X958080D01*
X955540Y123000D01*
X958080Y125540D01*
X955540D01*
X953000Y128080D01*
X950460Y125540D01*
X947920D01*
X950460Y123000D01*
X947920Y120460D01*
X950460D01*
X953000Y117920D01*
X899920Y142920D02*
X902460Y148000D01*
X899920Y153080D01*
X905000Y150540D01*
X910080Y153080D01*
X907540Y148000D01*
X910080Y142920D01*
X905000Y145460D01*
X899920Y142920D01*
X45920Y262920D02*
X48460D01*
X51000Y265460D01*
X53540Y262920D01*
X56080D01*
Y265460D01*
X53540Y268000D01*
X56080Y270540D01*
Y273080D01*
X53540D01*
X51000Y270540D01*
X48460Y273080D01*
X45920D01*
Y270540D01*
X48460Y268000D01*
X45920Y265460D01*
Y262920D01*
X194920Y252920D02*
X197460D01*
X200000Y255460D01*
X202540Y252920D01*
X205080D01*
Y255460D01*
X202540Y258000D01*
X205080Y260540D01*
Y263080D01*
X202540D01*
X200000Y260540D01*
X197460Y263080D01*
X194920D01*
Y260540D01*
X197460Y258000D01*
X194920Y255460D01*
Y252920D01*
X183920Y214920D02*
X186460D01*
X189000Y217460D01*
X191540Y214920D01*
X194080D01*
Y217460D01*
X191540Y220000D01*
X194080Y222540D01*
Y225080D01*
X191540D01*
X189000Y222540D01*
X186460Y225080D01*
X183920D01*
Y222540D01*
X186460Y220000D01*
X183920Y217460D01*
Y214920D01*
M02*
