G04*
G04 #@! TF.GenerationSoftware,Altium Limited,Altium Designer,23.1.1 (15)*
G04*
G04 Layer_Color=65535*
%FSLAX44Y44*%
%MOMM*%
G71*
G04*
G04 #@! TF.SameCoordinates,76B832DB-4935-4160-942D-398904476E74*
G04*
G04*
G04 #@! TF.FilePolarity,Positive*
G04*
G01*
G75*
%ADD10C,0.2540*%
%ADD11C,0.2500*%
%ADD12C,0.2000*%
%ADD13C,0.0600*%
%ADD14C,0.6000*%
%ADD15C,0.2560*%
%ADD16C,0.0400*%
%ADD17C,0.1000*%
D10*
X730000Y945000D02*
G03*
X700000Y975000I-30000J0D01*
G01*
X700000Y555000D02*
G03*
X730000Y585000I0J30000D01*
G01*
X300000Y975000D02*
G03*
X270000Y945000I0J-30000D01*
G01*
X270000Y585000D02*
G03*
X300000Y555000I30000J0D01*
G01*
X300000D02*
X700000D01*
X300000Y975000D02*
X700000D01*
X730000Y585000D02*
Y945000D01*
X270000Y585000D02*
Y945000D01*
X753000Y396750D02*
X803000D01*
X753000D02*
Y883250D01*
X853000D01*
Y396750D02*
Y883250D01*
X803000Y396750D02*
X853000D01*
X803000Y883250D02*
Y900000D01*
Y380000D02*
Y396750D01*
X871000D02*
X921000D01*
X871000D02*
Y883250D01*
X971000D01*
Y396750D02*
Y883250D01*
X921000Y396750D02*
X971000D01*
X921000Y883250D02*
Y900000D01*
Y380000D02*
Y396750D01*
X857500Y13000D02*
X952500D01*
X857500Y159000D02*
X952500D01*
X857500Y13000D02*
Y159000D01*
X952500Y13000D02*
Y159000D01*
X706120Y301244D02*
Y311401D01*
X711198Y316479D01*
X716277Y311401D01*
Y301244D01*
Y308862D01*
X706120D01*
X721355Y301244D02*
X726433D01*
X723894D01*
Y316479D01*
X721355Y313940D01*
X858774Y183129D02*
X868931Y167894D01*
Y183129D02*
X858774Y167894D01*
X874009D02*
Y183129D01*
X881627D01*
X884166Y180590D01*
Y175511D01*
X881627Y172972D01*
X874009D01*
X889244Y167894D02*
X894323D01*
X891783D01*
Y183129D01*
X889244Y180590D01*
X87376Y658363D02*
Y648206D01*
X92454Y643128D01*
X97533Y648206D01*
Y658363D01*
X102611D02*
X112768D01*
X107689D01*
Y643128D01*
X128003D02*
X117846D01*
X128003Y653285D01*
Y655824D01*
X125464Y658363D01*
X120385D01*
X117846Y655824D01*
X230226Y399618D02*
Y389461D01*
X235304Y384383D01*
X240382Y389461D01*
Y399618D01*
X245461D02*
X255618D01*
X250539D01*
Y384383D01*
X260696D02*
X265774D01*
X263235D01*
Y399618D01*
X260696Y397078D01*
X73304Y409383D02*
Y424618D01*
X80922D01*
X83461Y422078D01*
Y417000D01*
X80922Y414461D01*
X73304D01*
X78383D02*
X83461Y409383D01*
X88539Y424618D02*
X98696D01*
Y422078D01*
X88539Y411922D01*
Y409383D01*
X74304Y344383D02*
Y359618D01*
X81922D01*
X84461Y357078D01*
Y352000D01*
X81922Y349461D01*
X74304D01*
X79383D02*
X84461Y344383D01*
X99696Y359618D02*
X94618Y357078D01*
X89539Y352000D01*
Y346922D01*
X92078Y344383D01*
X97157D01*
X99696Y346922D01*
Y349461D01*
X97157Y352000D01*
X89539D01*
X74304Y378382D02*
Y393618D01*
X81922D01*
X84461Y391078D01*
Y386000D01*
X81922Y383461D01*
X74304D01*
X79383D02*
X84461Y378382D01*
X99696Y393618D02*
X89539D01*
Y386000D01*
X94618Y388539D01*
X97157D01*
X99696Y386000D01*
Y380922D01*
X97157Y378382D01*
X92078D01*
X89539Y380922D01*
X872236Y953516D02*
Y968751D01*
X879854D01*
X882393Y966212D01*
Y961133D01*
X879854Y958594D01*
X872236D01*
X877314D02*
X882393Y953516D01*
X895089D02*
Y968751D01*
X887471Y961133D01*
X897628D01*
X754380Y953516D02*
Y968751D01*
X761998D01*
X764537Y966212D01*
Y961133D01*
X761998Y958594D01*
X754380D01*
X759458D02*
X764537Y953516D01*
X769615Y966212D02*
X772154Y968751D01*
X777233D01*
X779772Y966212D01*
Y963673D01*
X777233Y961133D01*
X774693D01*
X777233D01*
X779772Y958594D01*
Y956055D01*
X777233Y953516D01*
X772154D01*
X769615Y956055D01*
X296618Y293304D02*
X281383D01*
Y300922D01*
X283922Y303461D01*
X289000D01*
X291539Y300922D01*
Y293304D01*
Y298382D02*
X296618Y303461D01*
Y318696D02*
Y308539D01*
X286461Y318696D01*
X283922D01*
X281383Y316157D01*
Y311078D01*
X283922Y308539D01*
X326618Y308843D02*
X311383D01*
Y316461D01*
X313922Y319000D01*
X319000D01*
X321539Y316461D01*
Y308843D01*
Y313922D02*
X326618Y319000D01*
Y324078D02*
Y329157D01*
Y326618D01*
X311383D01*
X313922Y324078D01*
X237843Y956618D02*
Y941383D01*
X248000D01*
X253078D02*
X258157D01*
X255618D01*
Y956618D01*
X253078Y954078D01*
X161290Y291841D02*
Y276606D01*
X168908D01*
X171447Y279145D01*
Y289302D01*
X168908Y291841D01*
X161290D01*
X176525Y276606D02*
Y286763D01*
X181603Y291841D01*
X186682Y286763D01*
Y276606D01*
Y284223D01*
X176525D01*
X191760Y276606D02*
X196838D01*
X194299D01*
Y291841D01*
X191760Y289302D01*
X104461Y717078D02*
X101922Y719617D01*
X96843D01*
X94304Y717078D01*
Y706922D01*
X96843Y704382D01*
X101922D01*
X104461Y706922D01*
X119696Y719617D02*
X114618Y717078D01*
X109539Y712000D01*
Y706922D01*
X112078Y704382D01*
X117157D01*
X119696Y706922D01*
Y709461D01*
X117157Y712000D01*
X109539D01*
X105461Y759078D02*
X102922Y761618D01*
X97843D01*
X95304Y759078D01*
Y748922D01*
X97843Y746383D01*
X102922D01*
X105461Y748922D01*
X120696Y761618D02*
X110539D01*
Y754000D01*
X115618Y756539D01*
X118157D01*
X120696Y754000D01*
Y748922D01*
X118157Y746383D01*
X113078D01*
X110539Y748922D01*
X301922Y193461D02*
X299382Y190922D01*
Y185843D01*
X301922Y183304D01*
X312078D01*
X314618Y185843D01*
Y190922D01*
X312078Y193461D01*
X314618Y206157D02*
X299382D01*
X307000Y198539D01*
Y208696D01*
X259922Y191461D02*
X257383Y188922D01*
Y183843D01*
X259922Y181304D01*
X270078D01*
X272617Y183843D01*
Y188922D01*
X270078Y191461D01*
X259922Y196539D02*
X257383Y199078D01*
Y204157D01*
X259922Y206696D01*
X262461D01*
X265000Y204157D01*
Y201618D01*
Y204157D01*
X267539Y206696D01*
X270078D01*
X272617Y204157D01*
Y199078D01*
X270078Y196539D01*
X375922Y280461D02*
X373382Y277922D01*
Y272843D01*
X375922Y270304D01*
X386078D01*
X388618Y272843D01*
Y277922D01*
X386078Y280461D01*
X388618Y295696D02*
Y285539D01*
X378461Y295696D01*
X375922D01*
X373382Y293157D01*
Y288078D01*
X375922Y285539D01*
X904999Y289556D02*
X902459Y292095D01*
X897381D01*
X894842Y289556D01*
Y279399D01*
X897381Y276860D01*
X902459D01*
X904999Y279399D01*
X910077Y276860D02*
X915155D01*
X912616D01*
Y292095D01*
X910077Y289556D01*
D11*
X166220Y364290D02*
G03*
X166220Y364290I-1250J0D01*
G01*
X169250Y266550D02*
G03*
X169250Y266550I-1250J0D01*
G01*
X105850Y468500D02*
G03*
X105850Y468500I-1250J0D01*
G01*
D12*
X216707Y362800D02*
G03*
X173293Y362800I-21707J15200D01*
G01*
X146000Y762500D02*
X154000D01*
X146000Y747500D02*
X154000D01*
X146000Y715500D02*
X154000D01*
X146000Y700500D02*
X154000D01*
X173293Y362800D02*
X216707D01*
X126000Y410000D02*
Y422000D01*
Y345000D02*
Y357000D01*
X359500Y278500D02*
Y286500D01*
X344500Y278500D02*
Y286500D01*
X290000Y269000D02*
X302000D01*
X178750Y214000D02*
Y264000D01*
X213250Y214000D02*
Y264000D01*
X178750D02*
X213250D01*
X178750Y214000D02*
X213250D01*
X978000Y203375D02*
Y212750D01*
X965625Y191000D02*
X978000Y203375D01*
X965625Y259000D02*
X978000Y246625D01*
Y237250D02*
Y246625D01*
X910000Y191000D02*
X965625D01*
X910000D02*
Y212750D01*
Y237250D02*
Y259000D01*
X965625D01*
X196500Y508500D02*
Y552500D01*
X89500Y508500D02*
X196500D01*
X89500D02*
Y552500D01*
D13*
X302000Y219500D02*
G03*
X312000Y219500I5000J4700D01*
G01*
X312000Y238500D02*
G03*
X302000Y238500I-5000J-4700D01*
G01*
X273000Y237500D02*
G03*
X263000Y237500I-5000J-4700D01*
G01*
X263000Y218500D02*
G03*
X273000Y218500I5000J4700D01*
G01*
X302000Y219500D02*
Y238500D01*
X312000Y219500D02*
Y238500D01*
X273000Y218500D02*
Y237500D01*
X263000Y218500D02*
Y237500D01*
D14*
X191750Y254000D02*
G03*
X191750Y254000I-3000J0D01*
G01*
D15*
X517500Y62500D02*
Y552500D01*
X482500Y62500D02*
Y552500D01*
D16*
X113000Y384000D02*
X141000D01*
X113000D02*
Y398000D01*
X141000D01*
Y384000D02*
Y398000D01*
X311000Y274000D02*
Y302000D01*
X325000D01*
Y274000D02*
Y302000D01*
X311000Y274000D02*
X325000D01*
D17*
X822000Y206000D02*
Y288000D01*
X704000Y206000D02*
Y288000D01*
X709000Y201000D02*
X817000D01*
X709000Y293000D02*
X817000D01*
X822000Y288000D01*
X817000Y201000D02*
X822000Y206000D01*
X704000Y288000D02*
X709000Y293000D01*
X704000Y206000D02*
X709000Y201000D01*
M02*
