G04*
G04 #@! TF.GenerationSoftware,Altium Limited,Altium Designer,23.1.1 (15)*
G04*
G04 Layer_Color=8421504*
%FSLAX44Y44*%
%MOMM*%
G71*
G04*
G04 #@! TF.SameCoordinates,76B832DB-4935-4160-942D-398904476E74*
G04*
G04*
G04 #@! TF.FilePolarity,Positive*
G04*
G01*
G75*
%ADD18R,1.1000X1.7000*%
%ADD19R,1.2000X1.4000*%
%ADD20R,0.8500X0.9000*%
%ADD21R,1.7000X1.1000*%
%ADD22R,0.9000X0.8500*%
%ADD23R,0.6400X0.5800*%
%ADD24R,1.4000X1.2000*%
%ADD25R,1.3500X0.6000*%
%ADD26R,3.4500X1.8500*%
%ADD27R,2.0800X3.8100*%
%ADD28R,11.4300X8.8900*%
D18*
X136500Y755000D02*
D03*
X163500D02*
D03*
X136500Y708000D02*
D03*
X163500D02*
D03*
D19*
X117000Y416000D02*
D03*
X135000D02*
D03*
X135000Y351000D02*
D03*
X117000D02*
D03*
D20*
X119500Y391000D02*
D03*
X134500D02*
D03*
D21*
X352000Y296000D02*
D03*
Y269000D02*
D03*
D22*
X318000Y295500D02*
D03*
Y280500D02*
D03*
D23*
X307000Y233800D02*
D03*
Y224200D02*
D03*
X268000Y223200D02*
D03*
Y232800D02*
D03*
D24*
X296000Y260000D02*
D03*
Y278000D02*
D03*
D25*
X168000Y258050D02*
D03*
Y245350D02*
D03*
Y232650D02*
D03*
Y219950D02*
D03*
X224000Y258050D02*
D03*
Y245350D02*
D03*
Y232650D02*
D03*
Y219950D02*
D03*
D26*
X968500Y225000D02*
D03*
X919500D02*
D03*
D27*
X117600Y469220D02*
D03*
X168400D02*
D03*
D28*
X143000Y590000D02*
D03*
M02*
