G04*
G04 #@! TF.GenerationSoftware,Altium Limited,Altium Designer,23.1.1 (15)*
G04*
G04 Layer_Color=128*
%FSLAX44Y44*%
%MOMM*%
G71*
G04*
G04 #@! TF.SameCoordinates,76B832DB-4935-4160-942D-398904476E74*
G04*
G04*
G04 #@! TF.FilePolarity,Positive*
G04*
G01*
G75*
%ADD61C,0.1270*%
D61*
X477500Y50000D02*
X487500D01*
X482500Y45000D02*
Y55000D01*
X512500Y50000D02*
X522500D01*
X517500Y45000D02*
Y55000D01*
X203200Y378000D02*
X212200D01*
X207700Y373500D02*
Y382500D01*
X190500Y378000D02*
X199500D01*
X195000Y373500D02*
Y382500D01*
X177800Y378000D02*
X186800D01*
X182300Y373500D02*
Y382500D01*
X782900Y216000D02*
X793900D01*
X788400Y210500D02*
Y221500D01*
X757500Y216000D02*
X768500D01*
X763000Y210500D02*
Y221500D01*
X732100Y216000D02*
X743100D01*
X737600Y210500D02*
Y221500D01*
X795500Y350000D02*
X810500D01*
X803000Y342500D02*
Y357500D01*
X795500Y930000D02*
X810500D01*
X803000Y922500D02*
Y937500D01*
X913500Y350000D02*
X928500D01*
X921000Y342500D02*
Y357500D01*
X913500Y930000D02*
X928500D01*
X921000Y922500D02*
Y937500D01*
X901000Y88000D02*
X909000D01*
X905000Y84000D02*
Y92000D01*
X949000Y123000D02*
X957000D01*
X953000Y119000D02*
Y127000D01*
X901000Y148000D02*
X909000D01*
X905000Y144000D02*
Y152000D01*
X48000Y268000D02*
X54000D01*
X51000Y265000D02*
Y271000D01*
X197000Y258000D02*
X203000D01*
X200000Y255000D02*
Y261000D01*
X186000Y220000D02*
X192000D01*
X189000Y217000D02*
Y223000D01*
M02*
