M48
;Layer_Color=9474304
;FILE_FORMAT=4:4
METRIC,LZ
;TYPE=PLATED
T1F00S00C0.2000
T2F00S00C0.3000
T3F00S00C0.6000
T4F00S00C1.0000
T5F00S00C1.1000
T6F00S00C3.6000
%
T01
X001595Y0024575
X001595Y0025675
X001705
Y0024575
X00102Y0050525
X00091
Y0051625
X00102Y0051625
T02
X0001581Y0023025
X000155Y0026875
X0015025Y0028025
X0014775Y002915
X001565Y0030375
X00165Y0031125
Y0028025
X0020075Y0027825
X0019325Y0024525
X0020025Y0023275
X0021325Y00236
X00269Y0022575
X0015925Y0021325
X00073Y0037725
X004425Y0041075
X0045Y004635
X0048125Y0049425
X0047425Y00637
X00359Y00539
X003335Y00553
X00282407Y00565361
X0024825Y004925
X0027Y004395
X0017725Y00497
X0015425Y005085
X0017775Y0054925
X000805Y00539
X0003775Y0054675
X0005Y0050575
X0005825Y0049375
X0007425Y004795
X00069Y0043275
X0007475Y004185
X000735Y004015
X0002Y0047675
X0003775Y006405
X002565Y006475
T03
X0044025Y003595
T04
X002325Y00167
X002675
X003005Y0037
X003455
X001995Y0037
X001545
Y00435
X001995
X003005Y00435
X003455
Y00583
X003005
Y00648
X003455
X001995Y00648
X001545
X001545Y00583
X001995
T05
X000234Y0016375
X000488
X000742
X000996
T06
X0025Y0032895
Y0088505
M30
